<svg width="291" height="154" viewBox="0 0 291 154" fill="none" xmlns="http://www.w3.org/2000/svg">
<path d="M57.2684 34H63.7484C63.5564 34.896 63.2684 35.824 62.8844 36.784C62.5324 37.744 61.9404 38.832 61.1084 40.048C60.3084 41.232 59.3804 42.288 58.3244 43.216C57.2684 44.144 55.8924 44.928 54.1964 45.568C52.5004 46.176 50.6444 46.48 48.6284 46.48C44.0204 46.48 40.1484 44.848 37.0124 41.584C33.8764 38.32 32.3084 34.192 32.3084 29.2C32.3084 24.208 33.8764 20.08 37.0124 16.816C40.1484 13.552 44.0204 11.92 48.6284 11.92C50.5164 11.92 52.2604 12.208 53.8604 12.784C55.4924 13.328 56.8524 14.032 57.9404 14.896C59.0284 15.76 59.9884 16.768 60.8204 17.92C61.6524 19.04 62.2924 20.112 62.7404 21.136C63.1884 22.16 63.5244 23.168 63.7484 24.16H57.2684C56.6284 22.496 55.5884 21.04 54.1484 19.792C52.7404 18.544 50.9004 17.92 48.6284 17.92C45.6844 17.92 43.2684 18.96 41.3804 21.04C39.4924 23.088 38.5484 25.808 38.5484 29.2C38.5484 32.592 39.4924 35.328 41.3804 37.408C43.2684 39.456 45.6844 40.48 48.6284 40.48C50.9324 40.48 52.7884 39.84 54.1964 38.56C55.6364 37.28 56.6604 35.76 57.2684 34ZM83.9253 46L83.4453 43.6H83.2053C82.7893 44.112 82.2293 44.592 81.5253 45.04C79.9893 46 78.2293 46.48 76.2453 46.48C73.5573 46.48 71.3973 45.76 69.7653 44.32C68.1653 42.88 67.3653 41.12 67.3653 39.04C67.3653 36.544 68.2293 34.56 69.9573 33.088C71.6853 31.616 74.1813 30.88 77.4453 30.88H82.9653V30.4C82.9653 29.024 82.5653 27.92 81.7653 27.088C80.9973 26.256 79.9573 25.84 78.6453 25.84C77.3973 25.84 76.3893 26.16 75.6213 26.8C74.8853 27.44 74.4533 28.16 74.3253 28.96H68.3253C68.6133 26.752 69.6373 24.88 71.3973 23.344C73.1573 21.808 75.5733 21.04 78.6453 21.04C81.7173 21.04 84.1973 21.936 86.0853 23.728C88.0053 25.52 88.9653 27.744 88.9653 30.4V46H83.9253ZM82.9653 36.16V35.44H77.9253C74.8853 35.44 73.3653 36.48 73.3653 38.56C73.3653 39.52 73.7013 40.288 74.3733 40.864C75.0453 41.408 75.9893 41.68 77.2053 41.68C79.0293 41.68 80.4373 41.2 81.4293 40.24C82.4533 39.248 82.9653 37.888 82.9653 36.16ZM94.9559 46V21.52H99.9959L100.476 23.68H100.716C101.004 23.296 101.356 22.944 101.772 22.624C102.764 21.888 103.852 21.52 105.036 21.52H109.836V27.28H105.516C102.476 27.28 100.956 28.8 100.956 31.84V46H94.9559ZM117.287 31.6H129.767C129.479 29.968 128.807 28.64 127.751 27.616C126.727 26.592 125.399 26.08 123.767 26.08C122.039 26.08 120.615 26.592 119.495 27.616C118.407 28.608 117.671 29.936 117.287 31.6ZM128.807 38.8H135.047C134.887 39.408 134.567 40.096 134.087 40.864C133.639 41.6 132.983 42.432 132.119 43.36C131.287 44.256 130.135 45.008 128.663 45.616C127.191 46.192 125.559 46.48 123.767 46.48C120.151 46.48 117.159 45.296 114.791 42.928C112.455 40.528 111.287 37.472 111.287 33.76C111.287 30.048 112.455 27.008 114.791 24.64C117.159 22.24 120.151 21.04 123.767 21.04C127.127 21.04 129.959 22.224 132.263 24.592C134.599 26.928 135.767 29.824 135.767 33.28C135.767 33.568 135.719 34.144 135.623 35.008L135.527 35.68H117.287C117.543 37.408 118.263 38.8 119.447 39.856C120.631 40.912 122.071 41.44 123.767 41.44C125.047 41.44 126.135 41.168 127.031 40.624C127.927 40.048 128.519 39.44 128.807 38.8ZM145.6 31.6H158.08C157.792 29.968 157.12 28.64 156.064 27.616C155.04 26.592 153.712 26.08 152.08 26.08C150.352 26.08 148.928 26.592 147.808 27.616C146.72 28.608 145.984 29.936 145.6 31.6ZM157.12 38.8H163.36C163.2 39.408 162.88 40.096 162.4 40.864C161.952 41.6 161.296 42.432 160.432 43.36C159.6 44.256 158.448 45.008 156.976 45.616C155.504 46.192 153.872 46.48 152.08 46.48C148.464 46.48 145.472 45.296 143.104 42.928C140.768 40.528 139.6 37.472 139.6 33.76C139.6 30.048 140.768 27.008 143.104 24.64C145.472 22.24 148.464 21.04 152.08 21.04C155.44 21.04 158.272 22.224 160.576 24.592C162.912 26.928 164.08 29.824 164.08 33.28C164.08 33.568 164.032 34.144 163.936 35.008L163.84 35.68H145.6C145.856 37.408 146.576 38.8 147.76 39.856C148.944 40.912 150.384 41.44 152.08 41.44C153.36 41.44 154.448 41.168 155.344 40.624C156.24 40.048 156.832 39.44 157.12 38.8ZM169.112 46V21.52H174.152L174.632 23.68H174.872C175.16 23.296 175.512 22.944 175.928 22.624C176.92 21.888 178.008 21.52 179.192 21.52H183.992V27.28H179.672C176.632 27.28 175.112 28.8 175.112 31.84V46H169.112ZM185.901 38.56H191.661C191.661 39.296 192.077 40 192.909 40.672C193.773 41.344 194.957 41.68 196.461 41.68C199.501 41.68 201.021 40.8 201.021 39.04C201.021 38.272 200.781 37.68 200.301 37.264C199.821 36.816 198.941 36.496 197.661 36.304L193.821 35.68C188.541 34.816 185.901 32.496 185.901 28.72C185.901 26.576 186.813 24.768 188.637 23.296C190.461 21.792 192.989 21.04 196.221 21.04C199.453 21.04 201.981 21.92 203.805 23.68C205.629 25.44 206.541 27.2 206.541 28.96H200.781C200.781 28.16 200.365 27.44 199.533 26.8C198.701 26.16 197.597 25.84 196.221 25.84C194.845 25.84 193.773 26.128 193.005 26.704C192.269 27.248 191.901 27.92 191.901 28.72C191.901 29.904 193.021 30.656 195.261 30.976L199.341 31.6C204.461 32.368 207.021 34.848 207.021 39.04C207.021 41.184 206.109 42.96 204.285 44.368C202.493 45.776 199.885 46.48 196.461 46.48C194.733 46.48 193.197 46.256 191.853 45.808C190.541 45.36 189.517 44.832 188.781 44.224C188.077 43.584 187.485 42.864 187.005 42.064C186.557 41.264 186.253 40.592 186.093 40.048C185.965 39.472 185.901 38.976 185.901 38.56ZM239.175 46L238.695 43.6H238.455C238.039 44.112 237.479 44.592 236.775 45.04C235.239 46 233.479 46.48 231.495 46.48C228.807 46.48 226.647 45.76 225.015 44.32C223.415 42.88 222.615 41.12 222.615 39.04C222.615 36.544 223.479 34.56 225.207 33.088C226.935 31.616 229.431 30.88 232.695 30.88H238.215V30.4C238.215 29.024 237.815 27.92 237.015 27.088C236.247 26.256 235.207 25.84 233.895 25.84C232.647 25.84 231.639 26.16 230.871 26.8C230.135 27.44 229.703 28.16 229.575 28.96H223.575C223.863 26.752 224.887 24.88 226.647 23.344C228.407 21.808 230.823 21.04 233.895 21.04C236.967 21.04 239.447 21.936 241.335 23.728C243.255 25.52 244.215 27.744 244.215 30.4V46H239.175ZM238.215 36.16V35.44H233.175C230.135 35.44 228.615 36.48 228.615 38.56C228.615 39.52 228.951 40.288 229.623 40.864C230.295 41.408 231.239 41.68 232.455 41.68C234.279 41.68 235.687 41.2 236.679 40.24C237.703 39.248 238.215 37.888 238.215 36.16ZM251.188 40.24V27.28H247.348V21.52H251.188V14.56H257.188V21.52H262.708V27.28H257.188V39.04C257.188 40.16 257.748 40.72 258.868 40.72H262.708V46H257.428C255.412 46 253.86 45.504 252.772 44.512C251.716 43.488 251.188 42.064 251.188 40.24ZM21.6078 102V68.4H27.8478V102H21.6078ZM51.3809 92.88H57.3809C57.1569 93.968 56.7889 95.024 56.2769 96.048C55.7969 97.072 55.1249 98.096 54.2609 99.12C53.3969 100.112 52.2289 100.928 50.7569 101.568C49.3169 102.176 47.6849 102.48 45.8609 102.48C42.2449 102.48 39.2529 101.296 36.8849 98.928C34.5489 96.528 33.3809 93.472 33.3809 89.76C33.3809 86.048 34.5489 83.008 36.8849 80.64C39.2529 78.24 42.2449 77.04 45.8609 77.04C47.6849 77.04 49.3169 77.36 50.7569 78C52.2289 78.608 53.3969 79.408 54.2609 80.4C55.1249 81.392 55.7969 82.384 56.2769 83.376C56.7889 84.368 57.1569 85.376 57.3809 86.4H51.3809C50.4209 83.84 48.5809 82.56 45.8609 82.56C44.0369 82.56 42.5009 83.232 41.2529 84.576C40.0049 85.92 39.3809 87.648 39.3809 89.76C39.3809 91.872 40.0049 93.6 41.2529 94.944C42.5009 96.288 44.0369 96.96 45.8609 96.96C48.6769 96.96 50.5169 95.6 51.3809 92.88ZM66.9903 87.6H79.4703C79.1823 85.968 78.5103 84.64 77.4543 83.616C76.4303 82.592 75.1023 82.08 73.4703 82.08C71.7423 82.08 70.3183 82.592 69.1983 83.616C68.1103 84.608 67.3743 85.936 66.9903 87.6ZM78.5103 94.8H84.7503C84.5903 95.408 84.2703 96.096 83.7903 96.864C83.3423 97.6 82.6863 98.432 81.8223 99.36C80.9903 100.256 79.8383 101.008 78.3663 101.616C76.8943 102.192 75.2623 102.48 73.4703 102.48C69.8543 102.48 66.8623 101.296 64.4943 98.928C62.1583 96.528 60.9903 93.472 60.9903 89.76C60.9903 86.048 62.1583 83.008 64.4943 80.64C66.8623 78.24 69.8543 77.04 73.4703 77.04C76.8303 77.04 79.6623 78.224 81.9663 80.592C84.3023 82.928 85.4703 85.824 85.4703 89.28C85.4703 89.568 85.4223 90.144 85.3263 91.008L85.2303 91.68H66.9903C67.2463 93.408 67.9663 94.8 69.1503 95.856C70.3343 96.912 71.7743 97.44 73.4703 97.44C74.7503 97.44 75.8383 97.168 76.7343 96.624C77.6303 96.048 78.2223 95.44 78.5103 94.8ZM91.4853 96.24V83.28H87.6453V77.52H91.4853V70.56H97.4853V77.52H103.005V83.28H97.4853V95.04C97.4853 96.16 98.0453 96.72 99.1653 96.72H103.005V102H97.7253C95.7093 102 94.1573 101.504 93.0693 100.512C92.0133 99.488 91.4853 98.064 91.4853 96.24ZM112.131 87.6H124.611C124.323 85.968 123.651 84.64 122.595 83.616C121.571 82.592 120.243 82.08 118.611 82.08C116.883 82.08 115.459 82.592 114.339 83.616C113.251 84.608 112.515 85.936 112.131 87.6ZM123.651 94.8H129.891C129.731 95.408 129.411 96.096 128.931 96.864C128.483 97.6 127.827 98.432 126.963 99.36C126.131 100.256 124.979 101.008 123.507 101.616C122.035 102.192 120.403 102.48 118.611 102.48C114.995 102.48 112.003 101.296 109.635 98.928C107.299 96.528 106.131 93.472 106.131 89.76C106.131 86.048 107.299 83.008 109.635 80.64C112.003 78.24 114.995 77.04 118.611 77.04C121.971 77.04 124.803 78.224 127.107 80.592C129.443 82.928 130.611 85.824 130.611 89.28C130.611 89.568 130.563 90.144 130.467 91.008L130.371 91.68H112.131C112.387 93.408 113.107 94.8 114.291 95.856C115.475 96.912 116.915 97.44 118.611 97.44C119.891 97.44 120.979 97.168 121.875 96.624C122.771 96.048 123.363 95.44 123.651 94.8ZM151.003 102L150.523 99.6H150.283C149.867 100.112 149.307 100.592 148.603 101.04C147.067 102 145.307 102.48 143.323 102.48C140.635 102.48 138.475 101.76 136.843 100.32C135.243 98.88 134.443 97.12 134.443 95.04C134.443 92.544 135.307 90.56 137.035 89.088C138.763 87.616 141.259 86.88 144.523 86.88H150.043V86.4C150.043 85.024 149.643 83.92 148.843 83.088C148.075 82.256 147.035 81.84 145.723 81.84C144.475 81.84 143.467 82.16 142.699 82.8C141.963 83.44 141.531 84.16 141.403 84.96H135.403C135.691 82.752 136.715 80.88 138.475 79.344C140.235 77.808 142.651 77.04 145.723 77.04C148.795 77.04 151.275 77.936 153.163 79.728C155.083 81.52 156.043 83.744 156.043 86.4V102H151.003ZM150.043 92.16V91.44H145.003C141.963 91.44 140.443 92.48 140.443 94.56C140.443 95.52 140.779 96.288 141.451 96.864C142.123 97.408 143.067 97.68 144.283 97.68C146.107 97.68 147.515 97.2 148.507 96.24C149.531 95.248 150.043 93.888 150.043 92.16ZM174.514 102V68.4H180.754V96H196.594V102H174.514ZM215.082 102L214.602 99.6H214.362C213.946 100.112 213.386 100.592 212.682 101.04C211.146 102 209.386 102.48 207.402 102.48C204.714 102.48 202.554 101.76 200.922 100.32C199.322 98.88 198.522 97.12 198.522 95.04C198.522 92.544 199.386 90.56 201.114 89.088C202.842 87.616 205.338 86.88 208.602 86.88H214.122V86.4C214.122 85.024 213.722 83.92 212.922 83.088C212.154 82.256 211.114 81.84 209.802 81.84C208.554 81.84 207.546 82.16 206.778 82.8C206.042 83.44 205.61 84.16 205.482 84.96H199.482C199.77 82.752 200.794 80.88 202.554 79.344C204.314 77.808 206.73 77.04 209.802 77.04C212.874 77.04 215.354 77.936 217.242 79.728C219.162 81.52 220.122 83.744 220.122 86.4V102H215.082ZM214.122 92.16V91.44H209.082C206.042 91.44 204.522 92.48 204.522 94.56C204.522 95.52 204.858 96.288 205.53 96.864C206.202 97.408 207.146 97.68 208.362 97.68C210.186 97.68 211.594 97.2 212.586 96.24C213.61 95.248 214.122 93.888 214.122 92.16ZM234.08 95.088C235.232 96.336 236.736 96.96 238.592 96.96C240.448 96.96 241.952 96.336 243.104 95.088C244.256 93.808 244.832 92.032 244.832 89.76C244.832 87.488 244.256 85.728 243.104 84.48C241.952 83.2 240.448 82.56 238.592 82.56C236.736 82.56 235.232 83.2 234.08 84.48C232.928 85.728 232.352 87.488 232.352 89.76C232.352 92.032 232.928 93.808 234.08 95.088ZM226.352 102V68.4H232.352V80.16H232.592C233.04 79.584 233.6 79.072 234.272 78.624C235.84 77.568 237.6 77.04 239.552 77.04C242.752 77.04 245.424 78.224 247.568 80.592C249.744 82.928 250.832 85.984 250.832 89.76C250.832 93.536 249.744 96.608 247.568 98.976C245.424 101.312 242.752 102.48 239.552 102.48C237.44 102.48 235.616 101.968 234.08 100.944C233.408 100.496 232.832 99.968 232.352 99.36H232.112L231.632 102H226.352ZM254.198 94.56H259.958C259.958 95.296 260.374 96 261.206 96.672C262.07 97.344 263.254 97.68 264.758 97.68C267.798 97.68 269.318 96.8 269.318 95.04C269.318 94.272 269.078 93.68 268.598 93.264C268.118 92.816 267.238 92.496 265.958 92.304L262.118 91.68C256.838 90.816 254.198 88.496 254.198 84.72C254.198 82.576 255.11 80.768 256.934 79.296C258.758 77.792 261.286 77.04 264.518 77.04C267.75 77.04 270.278 77.92 272.102 79.68C273.926 81.44 274.838 83.2 274.838 84.96H269.078C269.078 84.16 268.662 83.44 267.83 82.8C266.998 82.16 265.894 81.84 264.518 81.84C263.142 81.84 262.07 82.128 261.302 82.704C260.566 83.248 260.198 83.92 260.198 84.72C260.198 85.904 261.318 86.656 263.558 86.976L267.638 87.6C272.758 88.368 275.318 90.848 275.318 95.04C275.318 97.184 274.406 98.96 272.582 100.368C270.79 101.776 268.182 102.48 264.758 102.48C263.03 102.48 261.494 102.256 260.15 101.808C258.838 101.36 257.814 100.832 257.078 100.224C256.374 99.584 255.782 98.864 255.302 98.064C254.854 97.264 254.55 96.592 254.39 96.048C254.262 95.472 254.198 94.976 254.198 94.56Z" fill="white"/>
<path d="M0.2 146V143.5H3.3C3.9 143.5 4.2 143.167 4.2 142.5V132H6.8V143.2C6.8 145.067 5.86667 146 4 146H0.2ZM12.2831 143.06C12.8031 143.62 13.4431 143.9 14.2031 143.9C14.9631 143.9 15.6031 143.62 16.1231 143.06C16.6431 142.5 16.9031 141.78 16.9031 140.9C16.9031 140.02 16.6431 139.3 16.1231 138.74C15.6031 138.18 14.9631 137.9 14.2031 137.9C13.4431 137.9 12.8031 138.18 12.2831 138.74C11.7631 139.3 11.5031 140.02 11.5031 140.9C11.5031 141.78 11.7631 142.5 12.2831 143.06ZM10.4631 137.1C11.4498 136.1 12.6965 135.6 14.2031 135.6C15.7098 135.6 16.9498 136.1 17.9231 137.1C18.9098 138.087 19.4031 139.353 19.4031 140.9C19.4031 142.447 18.9098 143.72 17.9231 144.72C16.9498 145.707 15.7098 146.2 14.2031 146.2C12.6965 146.2 11.4498 145.707 10.4631 144.72C9.48979 143.72 9.00313 142.447 9.00313 140.9C9.00313 139.353 9.48979 138.087 10.4631 137.1ZM21.4953 146V135.8H23.9953V146H21.4953ZM21.3953 134.2V131.8H24.0953V134.2H21.3953ZM26.593 146V135.8H28.893L29.093 136.8H29.193C29.353 136.6 29.5796 136.4 29.873 136.2C30.4863 135.8 31.193 135.6 31.993 135.6C33.153 135.6 34.1063 136 34.853 136.8C35.613 137.587 35.993 138.62 35.993 139.9V146H33.493V140.1C33.493 139.447 33.2863 138.92 32.873 138.52C32.473 138.107 31.9463 137.9 31.293 137.9C30.6396 137.9 30.1063 138.107 29.693 138.52C29.293 138.92 29.093 139.447 29.093 140.1V146H26.593ZM43.6875 146V132H46.2875V146H43.6875ZM56.093 142.2H58.593C58.4996 142.653 58.3463 143.093 58.133 143.52C57.933 143.947 57.653 144.373 57.293 144.8C56.933 145.213 56.4463 145.553 55.833 145.82C55.233 146.073 54.553 146.2 53.793 146.2C52.2863 146.2 51.0396 145.707 50.053 144.72C49.0796 143.72 48.593 142.447 48.593 140.9C48.593 139.353 49.0796 138.087 50.053 137.1C51.0396 136.1 52.2863 135.6 53.793 135.6C54.553 135.6 55.233 135.733 55.833 136C56.4463 136.253 56.933 136.587 57.293 137C57.653 137.413 57.933 137.827 58.133 138.24C58.3463 138.653 58.4996 139.073 58.593 139.5H56.093C55.693 138.433 54.9263 137.9 53.793 137.9C53.033 137.9 52.393 138.18 51.873 138.74C51.353 139.3 51.093 140.02 51.093 140.9C51.093 141.78 51.353 142.5 51.873 143.06C52.393 143.62 53.033 143.9 53.793 143.9C54.9663 143.9 55.733 143.333 56.093 142.2ZM62.5969 140H67.7969C67.6769 139.32 67.3969 138.767 66.9569 138.34C66.5302 137.913 65.9769 137.7 65.2969 137.7C64.5769 137.7 63.9835 137.913 63.5169 138.34C63.0635 138.753 62.7569 139.307 62.5969 140ZM67.3969 143H69.9969C69.9302 143.253 69.7969 143.54 69.5969 143.86C69.4102 144.167 69.1369 144.513 68.7769 144.9C68.4302 145.273 67.9502 145.587 67.3369 145.84C66.7235 146.08 66.0435 146.2 65.2969 146.2C63.7902 146.2 62.5435 145.707 61.5569 144.72C60.5835 143.72 60.0969 142.447 60.0969 140.9C60.0969 139.353 60.5835 138.087 61.5569 137.1C62.5435 136.1 63.7902 135.6 65.2969 135.6C66.6969 135.6 67.8769 136.093 68.8369 137.08C69.8102 138.053 70.2969 139.26 70.2969 140.7C70.2969 140.82 70.2769 141.06 70.2369 141.42L70.1969 141.7H62.5969C62.7035 142.42 63.0035 143 63.4969 143.44C63.9902 143.88 64.5902 144.1 65.2969 144.1C65.8302 144.1 66.2835 143.987 66.6569 143.76C67.0302 143.52 67.2769 143.267 67.3969 143ZM72.8031 143.6V138.2H71.2031V135.8H72.8031V132.9H75.3031V135.8H77.6031V138.2H75.3031V143.1C75.3031 143.567 75.5365 143.8 76.0031 143.8H77.6031V146H75.4031C74.5631 146 73.9165 145.793 73.4631 145.38C73.0231 144.953 72.8031 144.36 72.8031 143.6ZM81.4055 140H86.6055C86.4855 139.32 86.2055 138.767 85.7655 138.34C85.3388 137.913 84.7855 137.7 84.1055 137.7C83.3855 137.7 82.7921 137.913 82.3255 138.34C81.8721 138.753 81.5655 139.307 81.4055 140ZM86.2055 143H88.8055C88.7388 143.253 88.6055 143.54 88.4055 143.86C88.2188 144.167 87.9455 144.513 87.5855 144.9C87.2388 145.273 86.7588 145.587 86.1455 145.84C85.5321 146.08 84.8521 146.2 84.1055 146.2C82.5988 146.2 81.3521 145.707 80.3655 144.72C79.3921 143.72 78.9055 142.447 78.9055 140.9C78.9055 139.353 79.3921 138.087 80.3655 137.1C81.3521 136.1 82.5988 135.6 84.1055 135.6C85.5055 135.6 86.6855 136.093 87.6455 137.08C88.6188 138.053 89.1055 139.26 89.1055 140.7C89.1055 140.82 89.0855 141.06 89.0455 141.42L89.0055 141.7H81.4055C81.5121 142.42 81.8121 143 82.3055 143.44C82.7988 143.88 83.3988 144.1 84.1055 144.1C84.6388 144.1 85.0921 143.987 85.4655 143.76C85.8388 143.52 86.0855 143.267 86.2055 143ZM97.6023 146L97.4023 145H97.3023C97.129 145.213 96.8957 145.413 96.6023 145.6C95.9623 146 95.229 146.2 94.4023 146.2C93.2823 146.2 92.3823 145.9 91.7023 145.3C91.0357 144.7 90.7023 143.967 90.7023 143.1C90.7023 142.06 91.0623 141.233 91.7823 140.62C92.5023 140.007 93.5423 139.7 94.9023 139.7H97.2023V139.5C97.2023 138.927 97.0357 138.467 96.7023 138.12C96.3823 137.773 95.949 137.6 95.4023 137.6C94.8823 137.6 94.4623 137.733 94.1423 138C93.8357 138.267 93.6557 138.567 93.6023 138.9H91.1023C91.2223 137.98 91.649 137.2 92.3823 136.56C93.1157 135.92 94.1223 135.6 95.4023 135.6C96.6823 135.6 97.7157 135.973 98.5023 136.72C99.3023 137.467 99.7023 138.393 99.7023 139.5V146H97.6023ZM97.2023 141.9V141.6H95.1023C93.8357 141.6 93.2023 142.033 93.2023 142.9C93.2023 143.3 93.3423 143.62 93.6223 143.86C93.9023 144.087 94.2957 144.2 94.8023 144.2C95.5623 144.2 96.149 144 96.5623 143.6C96.989 143.187 97.2023 142.62 97.2023 141.9ZM107.398 146V132H109.998V143.5H116.598V146H107.398ZM124.302 146L124.102 145H124.002C123.828 145.213 123.595 145.413 123.302 145.6C122.662 146 121.928 146.2 121.102 146.2C119.982 146.2 119.082 145.9 118.402 145.3C117.735 144.7 117.402 143.967 117.402 143.1C117.402 142.06 117.762 141.233 118.482 140.62C119.202 140.007 120.242 139.7 121.602 139.7H123.902V139.5C123.902 138.927 123.735 138.467 123.402 138.12C123.082 137.773 122.648 137.6 122.102 137.6C121.582 137.6 121.162 137.733 120.842 138C120.535 138.267 120.355 138.567 120.302 138.9H117.802C117.922 137.98 118.348 137.2 119.082 136.56C119.815 135.92 120.822 135.6 122.102 135.6C123.382 135.6 124.415 135.973 125.202 136.72C126.002 137.467 126.402 138.393 126.402 139.5V146H124.302ZM123.902 141.9V141.6H121.802C120.535 141.6 119.902 142.033 119.902 142.9C119.902 143.3 120.042 143.62 120.322 143.86C120.602 144.087 120.995 144.2 121.502 144.2C122.262 144.2 122.848 144 123.262 143.6C123.688 143.187 123.902 142.62 123.902 141.9ZM132.218 143.12C132.698 143.64 133.324 143.9 134.098 143.9C134.871 143.9 135.498 143.64 135.978 143.12C136.458 142.587 136.698 141.847 136.698 140.9C136.698 139.953 136.458 139.22 135.978 138.7C135.498 138.167 134.871 137.9 134.098 137.9C133.324 137.9 132.698 138.167 132.218 138.7C131.738 139.22 131.498 139.953 131.498 140.9C131.498 141.847 131.738 142.587 132.218 143.12ZM128.998 146V132H131.498V136.9H131.598C131.784 136.66 132.018 136.447 132.298 136.26C132.951 135.82 133.684 135.6 134.498 135.6C135.831 135.6 136.944 136.093 137.838 137.08C138.744 138.053 139.198 139.327 139.198 140.9C139.198 142.473 138.744 143.753 137.838 144.74C136.944 145.713 135.831 146.2 134.498 146.2C133.618 146.2 132.858 145.987 132.218 145.56C131.938 145.373 131.698 145.153 131.498 144.9H131.398L131.198 146H128.998ZM140.6 142.9H143C143 143.207 143.173 143.5 143.52 143.78C143.88 144.06 144.373 144.2 145 144.2C146.267 144.2 146.9 143.833 146.9 143.1C146.9 142.78 146.8 142.533 146.6 142.36C146.4 142.173 146.033 142.04 145.5 141.96L143.9 141.7C141.7 141.34 140.6 140.373 140.6 138.8C140.6 137.907 140.98 137.153 141.74 136.54C142.5 135.913 143.553 135.6 144.9 135.6C146.247 135.6 147.3 135.967 148.06 136.7C148.82 137.433 149.2 138.167 149.2 138.9H146.8C146.8 138.567 146.627 138.267 146.28 138C145.933 137.733 145.473 137.6 144.9 137.6C144.327 137.6 143.88 137.72 143.56 137.96C143.253 138.187 143.1 138.467 143.1 138.8C143.1 139.293 143.567 139.607 144.5 139.74L146.2 140C148.333 140.32 149.4 141.353 149.4 143.1C149.4 143.993 149.02 144.733 148.26 145.32C147.513 145.907 146.427 146.2 145 146.2C144.28 146.2 143.64 146.107 143.08 145.92C142.533 145.733 142.107 145.513 141.8 145.26C141.507 144.993 141.26 144.693 141.06 144.36C140.873 144.027 140.747 143.747 140.68 143.52C140.627 143.28 140.6 143.073 140.6 142.9ZM150.898 147.8L151.398 143.2H154.198L152.898 147.8H150.898ZM160.795 142.9H163.195C163.195 143.207 163.369 143.5 163.715 143.78C164.075 144.06 164.569 144.2 165.195 144.2C166.462 144.2 167.095 143.833 167.095 143.1C167.095 142.78 166.995 142.533 166.795 142.36C166.595 142.173 166.229 142.04 165.695 141.96L164.095 141.7C161.895 141.34 160.795 140.373 160.795 138.8C160.795 137.907 161.175 137.153 161.935 136.54C162.695 135.913 163.749 135.6 165.095 135.6C166.442 135.6 167.495 135.967 168.255 136.7C169.015 137.433 169.395 138.167 169.395 138.9H166.995C166.995 138.567 166.822 138.267 166.475 138C166.129 137.733 165.669 137.6 165.095 137.6C164.522 137.6 164.075 137.72 163.755 137.96C163.449 138.187 163.295 138.467 163.295 138.8C163.295 139.293 163.762 139.607 164.695 139.74L166.395 140C168.529 140.32 169.595 141.353 169.595 143.1C169.595 143.993 169.215 144.733 168.455 145.32C167.709 145.907 166.622 146.2 165.195 146.2C164.475 146.2 163.835 146.107 163.275 145.92C162.729 145.733 162.302 145.513 161.995 145.26C161.702 144.993 161.455 144.693 161.255 144.36C161.069 144.027 160.942 143.747 160.875 143.52C160.822 143.28 160.795 143.073 160.795 142.9ZM172.002 143.6V138.2H170.402V135.8H172.002V132.9H174.502V135.8H176.802V138.2H174.502V143.1C174.502 143.567 174.736 143.8 175.202 143.8H176.802V146H174.602C173.762 146 173.116 145.793 172.662 145.38C172.222 144.953 172.002 144.36 172.002 143.6ZM185.005 146L184.805 145H184.705C184.531 145.213 184.298 145.413 184.005 145.6C183.365 146 182.631 146.2 181.805 146.2C180.685 146.2 179.785 145.9 179.105 145.3C178.438 144.7 178.105 143.967 178.105 143.1C178.105 142.06 178.465 141.233 179.185 140.62C179.905 140.007 180.945 139.7 182.305 139.7H184.605V139.5C184.605 138.927 184.438 138.467 184.105 138.12C183.785 137.773 183.351 137.6 182.805 137.6C182.285 137.6 181.865 137.733 181.545 138C181.238 138.267 181.058 138.567 181.005 138.9H178.505C178.625 137.98 179.051 137.2 179.785 136.56C180.518 135.92 181.525 135.6 182.805 135.6C184.085 135.6 185.118 135.973 185.905 136.72C186.705 137.467 187.105 138.393 187.105 139.5V146H185.005ZM184.605 141.9V141.6H182.505C181.238 141.6 180.605 142.033 180.605 142.9C180.605 143.3 180.745 143.62 181.025 143.86C181.305 144.087 181.698 144.2 182.205 144.2C182.965 144.2 183.551 144 183.965 143.6C184.391 143.187 184.605 142.62 184.605 141.9ZM189.11 150V147.7H191.11C191.51 147.7 191.763 147.533 191.87 147.2L192.05 146.7L187.91 135.8H190.51L193.11 142.7H193.51L195.91 135.8H198.51L194.21 148C193.957 148.733 193.617 149.247 193.19 149.54C192.777 149.847 192.117 150 191.21 150H189.11ZM205.805 146L202.305 135.8H204.905L207.305 142.9H207.705L210.105 135.8H212.705L209.205 146H205.805ZM213.995 146V135.8H216.495V146H213.995ZM213.895 134.2V131.8H216.595V134.2H213.895ZM218.393 142.9H220.793C220.793 143.207 220.966 143.5 221.313 143.78C221.673 144.06 222.166 144.2 222.793 144.2C224.06 144.2 224.693 143.833 224.693 143.1C224.693 142.78 224.593 142.533 224.393 142.36C224.193 142.173 223.826 142.04 223.293 141.96L221.693 141.7C219.493 141.34 218.393 140.373 218.393 138.8C218.393 137.907 218.773 137.153 219.533 136.54C220.293 135.913 221.346 135.6 222.693 135.6C224.04 135.6 225.093 135.967 225.853 136.7C226.613 137.433 226.993 138.167 226.993 138.9H224.593C224.593 138.567 224.42 138.267 224.073 138C223.726 137.733 223.266 137.6 222.693 137.6C222.12 137.6 221.673 137.72 221.353 137.96C221.046 138.187 220.893 138.467 220.893 138.8C220.893 139.293 221.36 139.607 222.293 139.74L223.993 140C226.126 140.32 227.193 141.353 227.193 143.1C227.193 143.993 226.813 144.733 226.053 145.32C225.306 145.907 224.22 146.2 222.793 146.2C222.073 146.2 221.433 146.107 220.873 145.92C220.326 145.733 219.9 145.513 219.593 145.26C219.3 144.993 219.053 144.693 218.853 144.36C218.666 144.027 218.54 143.747 218.473 143.52C218.42 143.28 218.393 143.073 218.393 142.9ZM229.191 146V135.8H231.691V146H229.191ZM229.091 134.2V131.8H231.791V134.2H229.091ZM237.068 143.06C237.588 143.62 238.228 143.9 238.988 143.9C239.748 143.9 240.388 143.62 240.908 143.06C241.428 142.5 241.688 141.78 241.688 140.9C241.688 140.02 241.428 139.3 240.908 138.74C240.388 138.18 239.748 137.9 238.988 137.9C238.228 137.9 237.588 138.18 237.068 138.74C236.548 139.3 236.288 140.02 236.288 140.9C236.288 141.78 236.548 142.5 237.068 143.06ZM235.248 137.1C236.235 136.1 237.482 135.6 238.988 135.6C240.495 135.6 241.735 136.1 242.708 137.1C243.695 138.087 244.188 139.353 244.188 140.9C244.188 142.447 243.695 143.72 242.708 144.72C241.735 145.707 240.495 146.2 238.988 146.2C237.482 146.2 236.235 145.707 235.248 144.72C234.275 143.72 233.788 142.447 233.788 140.9C233.788 139.353 234.275 138.087 235.248 137.1ZM246.28 146V135.8H248.58L248.78 136.8H248.88C249.04 136.6 249.267 136.4 249.56 136.2C250.174 135.8 250.88 135.6 251.68 135.6C252.84 135.6 253.794 136 254.54 136.8C255.3 137.587 255.68 138.62 255.68 139.9V146H253.18V140.1C253.18 139.447 252.974 138.92 252.56 138.52C252.16 138.107 251.634 137.9 250.98 137.9C250.327 137.9 249.794 138.107 249.38 138.52C248.98 138.92 248.78 139.447 248.78 140.1V146H246.28ZM264.575 146L264.375 145H264.275C264.102 145.213 263.868 145.413 263.575 145.6C262.935 146 262.202 146.2 261.375 146.2C260.255 146.2 259.355 145.9 258.675 145.3C258.008 144.7 257.675 143.967 257.675 143.1C257.675 142.06 258.035 141.233 258.755 140.62C259.475 140.007 260.515 139.7 261.875 139.7H264.175V139.5C264.175 138.927 264.008 138.467 263.675 138.12C263.355 137.773 262.922 137.6 262.375 137.6C261.855 137.6 261.435 137.733 261.115 138C260.808 138.267 260.628 138.567 260.575 138.9H258.075C258.195 137.98 258.622 137.2 259.355 136.56C260.088 135.92 261.095 135.6 262.375 135.6C263.655 135.6 264.688 135.973 265.475 136.72C266.275 137.467 266.675 138.393 266.675 139.5V146H264.575ZM264.175 141.9V141.6H262.075C260.808 141.6 260.175 142.033 260.175 142.9C260.175 143.3 260.315 143.62 260.595 143.86C260.875 144.087 261.268 144.2 261.775 144.2C262.535 144.2 263.122 144 263.535 143.6C263.962 143.187 264.175 142.62 264.175 141.9ZM269.171 146V135.8H271.271L271.471 136.7H271.571C271.691 136.54 271.838 136.393 272.011 136.26C272.424 135.953 272.878 135.8 273.371 135.8H275.371V138.2H273.571C272.304 138.2 271.671 138.833 271.671 140.1V146H269.171ZM276.766 150V147.7H278.766C279.166 147.7 279.42 147.533 279.526 147.2L279.706 146.7L275.566 135.8H278.166L280.766 142.7H281.166L283.566 135.8H286.166L281.866 148C281.613 148.733 281.273 149.247 280.846 149.54C280.433 149.847 279.773 150 278.866 150H276.766Z" fill="white"/>
</svg>
