<svg width="420" height="200" viewBox="0 0 420 200" fill="none" xmlns="http://www.w3.org/2000/svg">
<path d="M0.26 191V187.75H4.29C5.07 187.75 5.46 187.317 5.46 186.45V172.8H8.84V187.36C8.84 189.787 7.62667 191 5.2 191H0.26ZM15.9681 187.178C16.6441 187.906 17.4761 188.27 18.4641 188.27C19.4521 188.27 20.2841 187.906 20.9601 187.178C21.6361 186.45 21.9741 185.514 21.9741 184.37C21.9741 183.226 21.6361 182.29 20.9601 181.562C20.2841 180.834 19.4521 180.47 18.4641 180.47C17.4761 180.47 16.6441 180.834 15.9681 181.562C15.2921 182.29 14.9541 183.226 14.9541 184.37C14.9541 185.514 15.2921 186.45 15.9681 187.178ZM13.6021 179.43C14.8847 178.13 16.5054 177.48 18.4641 177.48C20.4227 177.48 22.0347 178.13 23.3001 179.43C24.5827 180.713 25.2241 182.359 25.2241 184.37C25.2241 186.381 24.5827 188.036 23.3001 189.336C22.0347 190.619 20.4227 191.26 18.4641 191.26C16.5054 191.26 14.8847 190.619 13.6021 189.336C12.3367 188.036 11.7041 186.381 11.7041 184.37C11.7041 182.359 12.3367 180.713 13.6021 179.43ZM27.9439 191V177.74H31.1939V191H27.9439ZM27.8139 175.66V172.54H31.3239V175.66H27.8139ZM34.5709 191V177.74H37.5609L37.8209 179.04H37.9509C38.1589 178.78 38.4535 178.52 38.8349 178.26C39.6322 177.74 40.5509 177.48 41.5909 177.48C43.0989 177.48 44.3382 178 45.3089 179.04C46.2969 180.063 46.7909 181.406 46.7909 183.07V191H43.5409V183.33C43.5409 182.481 43.2722 181.796 42.7349 181.276C42.2149 180.739 41.5302 180.47 40.6809 180.47C39.8315 180.47 39.1382 180.739 38.6009 181.276C38.0809 181.796 37.8209 182.481 37.8209 183.33V191H34.5709ZM56.7938 191V172.8H60.1738V191H56.7938ZM72.9209 186.06H76.1709C76.0495 186.649 75.8502 187.221 75.5729 187.776C75.3129 188.331 74.9489 188.885 74.4809 189.44C74.0129 189.977 73.3802 190.419 72.5829 190.766C71.8029 191.095 70.9189 191.26 69.9309 191.26C67.9722 191.26 66.3515 190.619 65.0689 189.336C63.8035 188.036 63.1709 186.381 63.1709 184.37C63.1709 182.359 63.8035 180.713 65.0689 179.43C66.3515 178.13 67.9722 177.48 69.9309 177.48C70.9189 177.48 71.8029 177.653 72.5829 178C73.3802 178.329 74.0129 178.763 74.4809 179.3C74.9489 179.837 75.3129 180.375 75.5729 180.912C75.8502 181.449 76.0495 181.995 76.1709 182.55H72.9209C72.4009 181.163 71.4042 180.47 69.9309 180.47C68.9429 180.47 68.1109 180.834 67.4349 181.562C66.7589 182.29 66.4209 183.226 66.4209 184.37C66.4209 185.514 66.7589 186.45 67.4349 187.178C68.1109 187.906 68.9429 188.27 69.9309 188.27C71.4562 188.27 72.4529 187.533 72.9209 186.06ZM81.3759 183.2H88.1359C87.9799 182.316 87.6159 181.597 87.0439 181.042C86.4893 180.487 85.7699 180.21 84.8859 180.21C83.9499 180.21 83.1786 180.487 82.5719 181.042C81.9826 181.579 81.5839 182.299 81.3759 183.2ZM87.6159 187.1H90.9959C90.9093 187.429 90.7359 187.802 90.4759 188.218C90.2333 188.617 89.8779 189.067 89.4099 189.57C88.9593 190.055 88.3353 190.463 87.5379 190.792C86.7406 191.104 85.8566 191.26 84.8859 191.26C82.9273 191.26 81.3066 190.619 80.0239 189.336C78.7586 188.036 78.1259 186.381 78.1259 184.37C78.1259 182.359 78.7586 180.713 80.0239 179.43C81.3066 178.13 82.9273 177.48 84.8859 177.48C86.7059 177.48 88.2399 178.121 89.4879 179.404C90.7533 180.669 91.3859 182.238 91.3859 184.11C91.3859 184.266 91.3599 184.578 91.3079 185.046L91.2559 185.41H81.3759C81.5146 186.346 81.9046 187.1 82.5459 187.672C83.1873 188.244 83.9673 188.53 84.8859 188.53C85.5793 188.53 86.1686 188.383 86.6539 188.088C87.1393 187.776 87.4599 187.447 87.6159 187.1ZM94.6441 187.88V180.86H92.5641V177.74H94.6441V173.97H97.8941V177.74H100.884V180.86H97.8941V187.23C97.8941 187.837 98.1974 188.14 98.8041 188.14H100.884V191H98.0241C96.9321 191 96.0914 190.731 95.5021 190.194C94.9301 189.639 94.6441 188.868 94.6441 187.88ZM105.827 183.2H112.587C112.431 182.316 112.067 181.597 111.495 181.042C110.94 180.487 110.221 180.21 109.337 180.21C108.401 180.21 107.63 180.487 107.023 181.042C106.434 181.579 106.035 182.299 105.827 183.2ZM112.067 187.1H115.447C115.36 187.429 115.187 187.802 114.927 188.218C114.684 188.617 114.329 189.067 113.861 189.57C113.41 190.055 112.786 190.463 111.989 190.792C111.192 191.104 110.308 191.26 109.337 191.26C107.378 191.26 105.758 190.619 104.475 189.336C103.21 188.036 102.577 186.381 102.577 184.37C102.577 182.359 103.21 180.713 104.475 179.43C105.758 178.13 107.378 177.48 109.337 177.48C111.157 177.48 112.691 178.121 113.939 179.404C115.204 180.669 115.837 182.238 115.837 184.11C115.837 184.266 115.811 184.578 115.759 185.046L115.707 185.41H105.827C105.966 186.346 106.356 187.1 106.997 187.672C107.638 188.244 108.418 188.53 109.337 188.53C110.03 188.53 110.62 188.383 111.105 188.088C111.59 187.776 111.911 187.447 112.067 187.1ZM126.883 191L126.623 189.7H126.493C126.268 189.977 125.964 190.237 125.583 190.48C124.751 191 123.798 191.26 122.723 191.26C121.267 191.26 120.097 190.87 119.213 190.09C118.346 189.31 117.913 188.357 117.913 187.23C117.913 185.878 118.381 184.803 119.317 184.006C120.253 183.209 121.605 182.81 123.373 182.81H126.363V182.55C126.363 181.805 126.146 181.207 125.713 180.756C125.297 180.305 124.734 180.08 124.023 180.08C123.347 180.08 122.801 180.253 122.385 180.6C121.986 180.947 121.752 181.337 121.683 181.77H118.433C118.589 180.574 119.144 179.56 120.097 178.728C121.05 177.896 122.359 177.48 124.023 177.48C125.687 177.48 127.03 177.965 128.053 178.936C129.093 179.907 129.613 181.111 129.613 182.55V191H126.883ZM126.363 185.67V185.28H123.633C121.986 185.28 121.163 185.843 121.163 186.97C121.163 187.49 121.345 187.906 121.709 188.218C122.073 188.513 122.584 188.66 123.243 188.66C124.231 188.66 124.994 188.4 125.531 187.88C126.086 187.343 126.363 186.606 126.363 185.67ZM139.618 191V172.8H142.998V187.75H151.578V191H139.618ZM161.592 191L161.332 189.7H161.202C160.977 189.977 160.673 190.237 160.292 190.48C159.46 191 158.507 191.26 157.432 191.26C155.976 191.26 154.806 190.87 153.922 190.09C153.055 189.31 152.622 188.357 152.622 187.23C152.622 185.878 153.09 184.803 154.026 184.006C154.962 183.209 156.314 182.81 158.082 182.81H161.072V182.55C161.072 181.805 160.855 181.207 160.422 180.756C160.006 180.305 159.443 180.08 158.732 180.08C158.056 180.08 157.51 180.253 157.094 180.6C156.695 180.947 156.461 181.337 156.392 181.77H153.142C153.298 180.574 153.853 179.56 154.806 178.728C155.759 177.896 157.068 177.48 158.732 177.48C160.396 177.48 161.739 177.965 162.762 178.936C163.802 179.907 164.322 181.111 164.322 182.55V191H161.592ZM161.072 185.67V185.28H158.342C156.695 185.28 155.872 185.843 155.872 186.97C155.872 187.49 156.054 187.906 156.418 188.218C156.782 188.513 157.293 188.66 157.952 188.66C158.94 188.66 159.703 188.4 160.24 187.88C160.795 187.343 161.072 186.606 161.072 185.67ZM171.883 187.256C172.507 187.932 173.322 188.27 174.327 188.27C175.332 188.27 176.147 187.932 176.771 187.256C177.395 186.563 177.707 185.601 177.707 184.37C177.707 183.139 177.395 182.186 176.771 181.51C176.147 180.817 175.332 180.47 174.327 180.47C173.322 180.47 172.507 180.817 171.883 181.51C171.259 182.186 170.947 183.139 170.947 184.37C170.947 185.601 171.259 186.563 171.883 187.256ZM167.697 191V172.8H170.947V179.17H171.077C171.32 178.858 171.623 178.581 171.987 178.338C172.836 177.766 173.79 177.48 174.847 177.48C176.58 177.48 178.028 178.121 179.189 179.404C180.368 180.669 180.957 182.325 180.957 184.37C180.957 186.415 180.368 188.079 179.189 189.362C178.028 190.627 176.58 191.26 174.847 191.26C173.703 191.26 172.715 190.983 171.883 190.428C171.519 190.185 171.207 189.899 170.947 189.57H170.817L170.557 191H167.697ZM182.78 186.97H185.9C185.9 187.369 186.125 187.75 186.576 188.114C187.044 188.478 187.685 188.66 188.5 188.66C190.147 188.66 190.97 188.183 190.97 187.23C190.97 186.814 190.84 186.493 190.58 186.268C190.32 186.025 189.843 185.852 189.15 185.748L187.07 185.41C184.21 184.942 182.78 183.685 182.78 181.64C182.78 180.479 183.274 179.499 184.262 178.702C185.25 177.887 186.619 177.48 188.37 177.48C190.121 177.48 191.49 177.957 192.478 178.91C193.466 179.863 193.96 180.817 193.96 181.77H190.84C190.84 181.337 190.615 180.947 190.164 180.6C189.713 180.253 189.115 180.08 188.37 180.08C187.625 180.08 187.044 180.236 186.628 180.548C186.229 180.843 186.03 181.207 186.03 181.64C186.03 182.281 186.637 182.689 187.85 182.862L190.06 183.2C192.833 183.616 194.22 184.959 194.22 187.23C194.22 188.391 193.726 189.353 192.738 190.116C191.767 190.879 190.355 191.26 188.5 191.26C187.564 191.26 186.732 191.139 186.004 190.896C185.293 190.653 184.739 190.367 184.34 190.038C183.959 189.691 183.638 189.301 183.378 188.868C183.135 188.435 182.971 188.071 182.884 187.776C182.815 187.464 182.78 187.195 182.78 186.97ZM196.167 193.34L196.817 187.36H200.457L198.767 193.34H196.167ZM209.034 186.97H212.154C212.154 187.369 212.379 187.75 212.83 188.114C213.298 188.478 213.939 188.66 214.754 188.66C216.401 188.66 217.224 188.183 217.224 187.23C217.224 186.814 217.094 186.493 216.834 186.268C216.574 186.025 216.097 185.852 215.404 185.748L213.324 185.41C210.464 184.942 209.034 183.685 209.034 181.64C209.034 180.479 209.528 179.499 210.516 178.702C211.504 177.887 212.873 177.48 214.624 177.48C216.375 177.48 217.744 177.957 218.732 178.91C219.72 179.863 220.214 180.817 220.214 181.77H217.094C217.094 181.337 216.869 180.947 216.418 180.6C215.967 180.253 215.369 180.08 214.624 180.08C213.879 180.08 213.298 180.236 212.882 180.548C212.483 180.843 212.284 181.207 212.284 181.64C212.284 182.281 212.891 182.689 214.104 182.862L216.314 183.2C219.087 183.616 220.474 184.959 220.474 187.23C220.474 188.391 219.98 189.353 218.992 190.116C218.021 190.879 216.609 191.26 214.754 191.26C213.818 191.26 212.986 191.139 212.258 190.896C211.547 190.653 210.993 190.367 210.594 190.038C210.213 189.691 209.892 189.301 209.632 188.868C209.389 188.435 209.225 188.071 209.138 187.776C209.069 187.464 209.034 187.195 209.034 186.97ZM223.603 187.88V180.86H221.523V177.74H223.603V173.97H226.853V177.74H229.843V180.86H226.853V187.23C226.853 187.837 227.156 188.14 227.763 188.14H229.843V191H226.983C225.891 191 225.05 190.731 224.461 190.194C223.889 189.639 223.603 188.868 223.603 187.88ZM240.506 191L240.246 189.7H240.116C239.891 189.977 239.587 190.237 239.206 190.48C238.374 191 237.421 191.26 236.346 191.26C234.89 191.26 233.72 190.87 232.836 190.09C231.969 189.31 231.536 188.357 231.536 187.23C231.536 185.878 232.004 184.803 232.94 184.006C233.876 183.209 235.228 182.81 236.996 182.81H239.986V182.55C239.986 181.805 239.769 181.207 239.336 180.756C238.92 180.305 238.357 180.08 237.646 180.08C236.97 180.08 236.424 180.253 236.008 180.6C235.609 180.947 235.375 181.337 235.306 181.77H232.056C232.212 180.574 232.767 179.56 233.72 178.728C234.673 177.896 235.982 177.48 237.646 177.48C239.31 177.48 240.653 177.965 241.676 178.936C242.716 179.907 243.236 181.111 243.236 182.55V191H240.506ZM239.986 185.67V185.28H237.256C235.609 185.28 234.786 185.843 234.786 186.97C234.786 187.49 234.968 187.906 235.332 188.218C235.696 188.513 236.207 188.66 236.866 188.66C237.854 188.66 238.617 188.4 239.154 187.88C239.709 187.343 239.986 186.606 239.986 185.67ZM245.843 196.2V193.21H248.443C248.963 193.21 249.293 192.993 249.431 192.56L249.665 191.91L244.283 177.74H247.663L251.043 186.71H251.563L254.683 177.74H258.063L252.473 193.6C252.144 194.553 251.702 195.221 251.147 195.602C250.61 196.001 249.752 196.2 248.573 196.2H245.843ZM267.546 191L262.996 177.74H266.376L269.496 186.97H270.016L273.136 177.74H276.516L271.966 191H267.546ZM278.194 191V177.74H281.444V191H278.194ZM278.064 175.66V172.54H281.574V175.66H278.064ZM283.911 186.97H287.031C287.031 187.369 287.256 187.75 287.707 188.114C288.175 188.478 288.816 188.66 289.631 188.66C291.278 188.66 292.101 188.183 292.101 187.23C292.101 186.814 291.971 186.493 291.711 186.268C291.451 186.025 290.974 185.852 290.281 185.748L288.201 185.41C285.341 184.942 283.911 183.685 283.911 181.64C283.911 180.479 284.405 179.499 285.393 178.702C286.381 177.887 287.75 177.48 289.501 177.48C291.252 177.48 292.621 177.957 293.609 178.91C294.597 179.863 295.091 180.817 295.091 181.77H291.971C291.971 181.337 291.746 180.947 291.295 180.6C290.844 180.253 290.246 180.08 289.501 180.08C288.756 180.08 288.175 180.236 287.759 180.548C287.36 180.843 287.161 181.207 287.161 181.64C287.161 182.281 287.768 182.689 288.981 182.862L291.191 183.2C293.964 183.616 295.351 184.959 295.351 187.23C295.351 188.391 294.857 189.353 293.869 190.116C292.898 190.879 291.486 191.26 289.631 191.26C288.695 191.26 287.863 191.139 287.135 190.896C286.424 190.653 285.87 190.367 285.471 190.038C285.09 189.691 284.769 189.301 284.509 188.868C284.266 188.435 284.102 188.071 284.015 187.776C283.946 187.464 283.911 187.195 283.911 186.97ZM297.948 191V177.74H301.198V191H297.948ZM297.818 175.66V172.54H301.328V175.66H297.818ZM308.189 187.178C308.865 187.906 309.697 188.27 310.685 188.27C311.673 188.27 312.505 187.906 313.181 187.178C313.857 186.45 314.195 185.514 314.195 184.37C314.195 183.226 313.857 182.29 313.181 181.562C312.505 180.834 311.673 180.47 310.685 180.47C309.697 180.47 308.865 180.834 308.189 181.562C307.513 182.29 307.175 183.226 307.175 184.37C307.175 185.514 307.513 186.45 308.189 187.178ZM305.823 179.43C307.105 178.13 308.726 177.48 310.685 177.48C312.643 177.48 314.255 178.13 315.521 179.43C316.803 180.713 317.445 182.359 317.445 184.37C317.445 186.381 316.803 188.036 315.521 189.336C314.255 190.619 312.643 191.26 310.685 191.26C308.726 191.26 307.105 190.619 305.823 189.336C304.557 188.036 303.925 186.381 303.925 184.37C303.925 182.359 304.557 180.713 305.823 179.43ZM320.165 191V177.74H323.155L323.415 179.04H323.545C323.753 178.78 324.047 178.52 324.429 178.26C325.226 177.74 326.145 177.48 327.185 177.48C328.693 177.48 329.932 178 330.903 179.04C331.891 180.063 332.385 181.406 332.385 183.07V191H329.135V183.33C329.135 182.481 328.866 181.796 328.329 181.276C327.809 180.739 327.124 180.47 326.275 180.47C325.425 180.47 324.732 180.739 324.195 181.276C323.675 181.796 323.415 182.481 323.415 183.33V191H320.165ZM343.948 191L343.688 189.7H343.558C343.332 189.977 343.029 190.237 342.648 190.48C341.816 191 340.862 191.26 339.788 191.26C338.332 191.26 337.162 190.87 336.278 190.09C335.411 189.31 334.978 188.357 334.978 187.23C334.978 185.878 335.446 184.803 336.382 184.006C337.318 183.209 338.67 182.81 340.438 182.81H343.428V182.55C343.428 181.805 343.211 181.207 342.778 180.756C342.362 180.305 341.798 180.08 341.088 180.08C340.412 180.08 339.866 180.253 339.45 180.6C339.051 180.947 338.817 181.337 338.748 181.77H335.498C335.654 180.574 336.208 179.56 337.162 178.728C338.115 177.896 339.424 177.48 341.088 177.48C342.752 177.48 344.095 177.965 345.118 178.936C346.158 179.907 346.678 181.111 346.678 182.55V191H343.948ZM343.428 185.67V185.28H340.698C339.051 185.28 338.228 185.843 338.228 186.97C338.228 187.49 338.41 187.906 338.774 188.218C339.138 188.513 339.649 188.66 340.308 188.66C341.296 188.66 342.058 188.4 342.596 187.88C343.15 187.343 343.428 186.606 343.428 185.67ZM349.922 191V177.74H352.652L352.912 178.91H353.042C353.198 178.702 353.389 178.511 353.614 178.338C354.152 177.939 354.741 177.74 355.382 177.74H357.982V180.86H355.642C353.996 180.86 353.172 181.683 353.172 183.33V191H349.922ZM359.796 196.2V193.21H362.396C362.916 193.21 363.246 192.993 363.384 192.56L363.618 191.91L358.236 177.74H361.616L364.996 186.71H365.516L368.636 177.74H372.016L366.426 193.6C366.097 194.553 365.655 195.221 365.1 195.602C364.563 196.001 363.705 196.2 362.526 196.2H359.796Z" fill="white"/>
<path d="M41.81 44.5H51.8C51.504 45.8813 51.06 47.312 50.468 48.792C49.9253 50.272 49.0127 51.9493 47.73 53.824C46.4967 55.6493 45.066 57.2773 43.438 58.708C41.81 60.1387 39.6887 61.3473 37.074 62.334C34.4593 63.2713 31.598 63.74 28.49 63.74C21.386 63.74 15.4167 61.224 10.582 56.192C5.74733 51.16 3.33 44.796 3.33 37.1C3.33 29.404 5.74733 23.04 10.582 18.008C15.4167 12.976 21.386 10.46 28.49 10.46C31.4007 10.46 34.0893 10.904 36.556 11.792C39.072 12.6307 41.1687 13.716 42.846 15.048C44.5233 16.38 46.0033 17.934 47.286 19.71C48.5687 21.4367 49.5553 23.0893 50.246 24.668C50.9367 26.2467 51.4547 27.8007 51.8 29.33H41.81C40.8233 26.7647 39.22 24.52 37 22.596C34.8293 20.672 31.9927 19.71 28.49 19.71C23.9513 19.71 20.2267 21.3133 17.316 24.52C14.4053 27.6773 12.95 31.8707 12.95 37.1C12.95 42.3293 14.4053 46.5473 17.316 49.754C20.2267 52.9113 23.9513 54.49 28.49 54.49C32.042 54.49 34.9033 53.5033 37.074 51.53C39.294 49.5567 40.8727 47.2133 41.81 44.5ZM82.906 63L82.166 59.3H81.796C81.1547 60.0893 80.2914 60.8293 79.206 61.52C76.838 63 74.1247 63.74 71.066 63.74C66.922 63.74 63.592 62.63 61.076 60.41C58.6093 58.19 57.376 55.4767 57.376 52.27C57.376 48.422 58.708 45.3633 61.372 43.094C64.036 40.8247 67.884 39.69 72.916 39.69H81.426V38.95C81.426 36.8287 80.8093 35.1267 79.576 33.844C78.392 32.5613 76.7887 31.92 74.766 31.92C72.842 31.92 71.288 32.4133 70.104 33.4C68.9693 34.3867 68.3033 35.4967 68.106 36.73H58.856C59.3 33.326 60.8787 30.44 63.592 28.072C66.3053 25.704 70.03 24.52 74.766 24.52C79.502 24.52 83.3254 25.9013 86.236 28.664C89.196 31.4267 90.676 34.8553 90.676 38.95V63H82.906ZM81.426 47.83V46.72H73.656C68.9693 46.72 66.626 48.3233 66.626 51.53C66.626 53.01 67.144 54.194 68.18 55.082C69.216 55.9207 70.6713 56.34 72.546 56.34C75.358 56.34 77.5287 55.6 79.058 54.12C80.6367 52.5907 81.426 50.494 81.426 47.83ZM99.9116 63V25.26H107.682L108.422 28.59H108.792C109.236 27.998 109.778 27.4553 110.42 26.962C111.949 25.8273 113.626 25.26 115.452 25.26H122.852V34.14H116.192C111.505 34.14 109.162 36.4833 109.162 41.17V63H99.9116ZM134.339 40.8H153.579C153.135 38.284 152.099 36.2367 150.471 34.658C148.892 33.0793 146.845 32.29 144.329 32.29C141.665 32.29 139.47 33.0793 137.743 34.658C136.066 36.1873 134.931 38.2347 134.339 40.8ZM152.099 51.9H161.719C161.472 52.8373 160.979 53.898 160.239 55.082C159.548 56.2167 158.537 57.4993 157.205 58.93C155.922 60.3113 154.146 61.4707 151.877 62.408C149.608 63.296 147.092 63.74 144.329 63.74C138.754 63.74 134.142 61.9147 130.491 58.264C126.89 54.564 125.089 49.8527 125.089 44.13C125.089 38.4073 126.89 33.7207 130.491 30.07C134.142 26.37 138.754 24.52 144.329 24.52C149.509 24.52 153.875 26.3453 157.427 29.996C161.028 33.5973 162.829 38.062 162.829 43.39C162.829 43.834 162.755 44.722 162.607 46.054L162.459 47.09H134.339C134.734 49.754 135.844 51.9 137.669 53.528C139.494 55.156 141.714 55.97 144.329 55.97C146.302 55.97 147.98 55.5507 149.361 54.712C150.742 53.824 151.655 52.8867 152.099 51.9ZM177.987 40.8H197.227C196.783 38.284 195.747 36.2367 194.119 34.658C192.541 33.0793 190.493 32.29 187.977 32.29C185.313 32.29 183.118 33.0793 181.391 34.658C179.714 36.1873 178.579 38.2347 177.987 40.8ZM195.747 51.9H205.367C205.121 52.8373 204.627 53.898 203.887 55.082C203.197 56.2167 202.185 57.4993 200.853 58.93C199.571 60.3113 197.795 61.4707 195.525 62.408C193.256 63.296 190.74 63.74 187.977 63.74C182.403 63.74 177.79 61.9147 174.139 58.264C170.538 54.564 168.737 49.8527 168.737 44.13C168.737 38.4073 170.538 33.7207 174.139 30.07C177.79 26.37 182.403 24.52 187.977 24.52C193.157 24.52 197.523 26.3453 201.075 29.996C204.677 33.5973 206.477 38.062 206.477 43.39C206.477 43.834 206.403 44.722 206.255 46.054L206.107 47.09H177.987C178.382 49.754 179.492 51.9 181.317 53.528C183.143 55.156 185.363 55.97 187.977 55.97C189.951 55.97 191.628 55.5507 193.009 54.712C194.391 53.824 195.303 52.8867 195.747 51.9ZM214.236 63V25.26H222.006L222.746 28.59H223.116C223.56 27.998 224.102 27.4553 224.744 26.962C226.273 25.8273 227.95 25.26 229.776 25.26H237.176V34.14H230.516C225.829 34.14 223.486 36.4833 223.486 41.17V63H214.236ZM240.118 51.53H248.998C248.998 52.6647 249.64 53.75 250.922 54.786C252.254 55.822 254.08 56.34 256.398 56.34C261.085 56.34 263.428 54.9833 263.428 52.27C263.428 51.086 263.058 50.1733 262.318 49.532C261.578 48.8413 260.222 48.348 258.248 48.052L252.328 47.09C244.188 45.758 240.118 42.1813 240.118 36.36C240.118 33.0547 241.524 30.2673 244.336 27.998C247.148 25.6793 251.046 24.52 256.028 24.52C261.011 24.52 264.908 25.8767 267.72 28.59C270.532 31.3033 271.938 34.0167 271.938 36.73H263.058C263.058 35.4967 262.417 34.3867 261.134 33.4C259.852 32.4133 258.15 31.92 256.028 31.92C253.907 31.92 252.254 32.364 251.07 33.252C249.936 34.0907 249.368 35.1267 249.368 36.36C249.368 38.1853 251.095 39.3447 254.548 39.838L260.838 40.8C268.732 41.984 272.678 45.8073 272.678 52.27C272.678 55.5753 271.272 58.3133 268.46 60.484C265.698 62.6547 261.677 63.74 256.398 63.74C253.734 63.74 251.366 63.3947 249.294 62.704C247.272 62.0133 245.693 61.1993 244.558 60.262C243.473 59.2753 242.56 58.1653 241.82 56.932C241.13 55.6987 240.661 54.6627 240.414 53.824C240.217 52.936 240.118 52.1713 240.118 51.53ZM322.25 63L321.51 59.3H321.14C320.498 60.0893 319.635 60.8293 318.55 61.52C316.182 63 313.468 63.74 310.41 63.74C306.266 63.74 302.936 62.63 300.42 60.41C297.953 58.19 296.72 55.4767 296.72 52.27C296.72 48.422 298.052 45.3633 300.716 43.094C303.38 40.8247 307.228 39.69 312.26 39.69H320.77V38.95C320.77 36.8287 320.153 35.1267 318.92 33.844C317.736 32.5613 316.132 31.92 314.11 31.92C312.186 31.92 310.632 32.4133 309.448 33.4C308.313 34.3867 307.647 35.4967 307.45 36.73H298.2C298.644 33.326 300.222 30.44 302.936 28.072C305.649 25.704 309.374 24.52 314.11 24.52C318.846 24.52 322.669 25.9013 325.58 28.664C328.54 31.4267 330.02 34.8553 330.02 38.95V63H322.25ZM320.77 47.83V46.72H313C308.313 46.72 305.97 48.3233 305.97 51.53C305.97 53.01 306.488 54.194 307.524 55.082C308.56 55.9207 310.015 56.34 311.89 56.34C314.702 56.34 316.872 55.6 318.402 54.12C319.98 52.5907 320.77 50.494 320.77 47.83ZM340.77 54.12V34.14H334.85V25.26H340.77V14.53H350.02V25.26H358.53V34.14H350.02V52.27C350.02 53.9967 350.883 54.86 352.61 54.86H358.53V63H350.39C347.282 63 344.889 62.2353 343.212 60.706C341.584 59.1273 340.77 56.932 340.77 54.12ZM5.55 135V83.2H15.17V135H5.55ZM51.4502 120.94H60.7002C60.3549 122.617 59.7876 124.245 58.9982 125.824C58.2582 127.403 57.2222 128.981 55.8902 130.56C54.5582 132.089 52.7576 133.347 50.4882 134.334C48.2682 135.271 45.7522 135.74 42.9402 135.74C37.3656 135.74 32.7529 133.915 29.1022 130.264C25.5009 126.564 23.7002 121.853 23.7002 116.13C23.7002 110.407 25.5009 105.721 29.1022 102.07C32.7529 98.37 37.3656 96.52 42.9402 96.52C45.7522 96.52 48.2682 97.0133 50.4882 98C52.7576 98.9373 54.5582 100.171 55.8902 101.7C57.2222 103.229 58.2582 104.759 58.9982 106.288C59.7876 107.817 60.3549 109.371 60.7002 110.95H51.4502C49.9702 107.003 47.1336 105.03 42.9402 105.03C40.1282 105.03 37.7602 106.066 35.8362 108.138C33.9122 110.21 32.9502 112.874 32.9502 116.13C32.9502 119.386 33.9122 122.05 35.8362 124.122C37.7602 126.194 40.1282 127.23 42.9402 127.23C47.2816 127.23 50.1182 125.133 51.4502 120.94ZM75.5147 112.8H94.7547C94.3107 110.284 93.2747 108.237 91.6467 106.658C90.068 105.079 88.0207 104.29 85.5047 104.29C82.8407 104.29 80.6454 105.079 78.9187 106.658C77.2414 108.187 76.1067 110.235 75.5147 112.8ZM93.2747 123.9H102.895C102.648 124.837 102.155 125.898 101.415 127.082C100.724 128.217 99.7127 129.499 98.3807 130.93C97.098 132.311 95.322 133.471 93.0527 134.408C90.7834 135.296 88.2674 135.74 85.5047 135.74C79.93 135.74 75.3174 133.915 71.6667 130.264C68.0654 126.564 66.2647 121.853 66.2647 116.13C66.2647 110.407 68.0654 105.721 71.6667 102.07C75.3174 98.37 79.93 96.52 85.5047 96.52C90.6847 96.52 95.0507 98.3453 98.6027 101.996C102.204 105.597 104.005 110.062 104.005 115.39C104.005 115.834 103.931 116.722 103.783 118.054L103.635 119.09H75.5147C75.9094 121.754 77.0194 123.9 78.8447 125.528C80.67 127.156 82.89 127.97 85.5047 127.97C87.478 127.97 89.1554 127.551 90.5367 126.712C91.918 125.824 92.8307 124.887 93.2747 123.9ZM113.278 126.12V106.14H107.358V97.26H113.278V86.53H122.528V97.26H131.038V106.14H122.528V124.27C122.528 125.997 123.391 126.86 125.118 126.86H131.038V135H122.898C119.79 135 117.397 134.235 115.72 132.706C114.092 131.127 113.278 128.932 113.278 126.12ZM145.106 112.8H164.346C163.902 110.284 162.866 108.237 161.238 106.658C159.66 105.079 157.612 104.29 155.096 104.29C152.432 104.29 150.237 105.079 148.51 106.658C146.833 108.187 145.698 110.235 145.106 112.8ZM162.866 123.9H172.486C172.24 124.837 171.746 125.898 171.006 127.082C170.316 128.217 169.304 129.499 167.972 130.93C166.69 132.311 164.914 133.471 162.644 134.408C160.375 135.296 157.859 135.74 155.096 135.74C149.522 135.74 144.909 133.915 141.258 130.264C137.657 126.564 135.856 121.853 135.856 116.13C135.856 110.407 137.657 105.721 141.258 102.07C144.909 98.37 149.522 96.52 155.096 96.52C160.276 96.52 164.642 98.3453 168.194 101.996C171.796 105.597 173.596 110.062 173.596 115.39C173.596 115.834 173.522 116.722 173.374 118.054L173.226 119.09H145.106C145.501 121.754 146.611 123.9 148.436 125.528C150.262 127.156 152.482 127.97 155.096 127.97C157.07 127.97 158.747 127.551 160.128 126.712C161.51 125.824 162.422 124.887 162.866 123.9ZM205.035 135L204.295 131.3H203.925C203.284 132.089 202.42 132.829 201.335 133.52C198.967 135 196.254 135.74 193.195 135.74C189.051 135.74 185.721 134.63 183.205 132.41C180.738 130.19 179.505 127.477 179.505 124.27C179.505 120.422 180.837 117.363 183.501 115.094C186.165 112.825 190.013 111.69 195.045 111.69H203.555V110.95C203.555 108.829 202.938 107.127 201.705 105.844C200.521 104.561 198.918 103.92 196.895 103.92C194.971 103.92 193.417 104.413 192.233 105.4C191.098 106.387 190.432 107.497 190.235 108.73H180.985C181.429 105.326 183.008 102.44 185.721 100.072C188.434 97.704 192.159 96.52 196.895 96.52C201.631 96.52 205.454 97.9013 208.365 100.664C211.325 103.427 212.805 106.855 212.805 110.95V135H205.035ZM203.555 119.83V118.72H195.785C191.098 118.72 188.755 120.323 188.755 123.53C188.755 125.01 189.273 126.194 190.309 127.082C191.345 127.921 192.8 128.34 194.675 128.34C197.487 128.34 199.658 127.6 201.187 126.12C202.766 124.591 203.555 122.494 203.555 119.83ZM241.28 135V83.2H250.9V125.75H275.32V135H241.28ZM303.822 135L303.082 131.3H302.712C302.071 132.089 301.207 132.829 300.122 133.52C297.754 135 295.041 135.74 291.982 135.74C287.838 135.74 284.508 134.63 281.992 132.41C279.525 130.19 278.292 127.477 278.292 124.27C278.292 120.422 279.624 117.363 282.288 115.094C284.952 112.825 288.8 111.69 293.832 111.69H302.342V110.95C302.342 108.829 301.725 107.127 300.492 105.844C299.308 104.561 297.705 103.92 295.682 103.92C293.758 103.92 292.204 104.413 291.02 105.4C289.885 106.387 289.219 107.497 289.022 108.73H279.772C280.216 105.326 281.795 102.44 284.508 100.072C287.221 97.704 290.946 96.52 295.682 96.52C300.418 96.52 304.241 97.9013 307.152 100.664C310.112 103.427 311.592 106.855 311.592 110.95V135H303.822ZM302.342 119.83V118.72H294.572C289.885 118.72 287.542 120.323 287.542 123.53C287.542 125.01 288.06 126.194 289.096 127.082C290.132 127.921 291.587 128.34 293.462 128.34C296.274 128.34 298.445 127.6 299.974 126.12C301.553 124.591 302.342 122.494 302.342 119.83ZM333.112 124.344C334.888 126.268 337.206 127.23 340.068 127.23C342.929 127.23 345.248 126.268 347.024 124.344C348.8 122.371 349.688 119.633 349.688 116.13C349.688 112.627 348.8 109.914 347.024 107.99C345.248 106.017 342.929 105.03 340.068 105.03C337.206 105.03 334.888 106.017 333.112 107.99C331.336 109.914 330.448 112.627 330.448 116.13C330.448 119.633 331.336 122.371 333.112 124.344ZM321.198 135V83.2H330.448V101.33H330.818C331.508 100.442 332.372 99.6527 333.408 98.962C335.825 97.334 338.538 96.52 341.548 96.52C346.481 96.52 350.6 98.3453 353.906 101.996C357.26 105.597 358.938 110.309 358.938 116.13C358.938 121.951 357.26 126.687 353.906 130.338C350.6 133.939 346.481 135.74 341.548 135.74C338.292 135.74 335.48 134.951 333.112 133.372C332.076 132.681 331.188 131.867 330.448 130.93H330.078L329.338 135H321.198ZM364.126 123.53H373.006C373.006 124.665 373.648 125.75 374.93 126.786C376.262 127.822 378.088 128.34 380.406 128.34C385.093 128.34 387.436 126.983 387.436 124.27C387.436 123.086 387.066 122.173 386.326 121.532C385.586 120.841 384.23 120.348 382.256 120.052L376.336 119.09C368.196 117.758 364.126 114.181 364.126 108.36C364.126 105.055 365.532 102.267 368.344 99.998C371.156 97.6793 375.054 96.52 380.036 96.52C385.019 96.52 388.916 97.8767 391.728 100.59C394.54 103.303 395.946 106.017 395.946 108.73H387.066C387.066 107.497 386.425 106.387 385.142 105.4C383.86 104.413 382.158 103.92 380.036 103.92C377.915 103.92 376.262 104.364 375.078 105.252C373.944 106.091 373.376 107.127 373.376 108.36C373.376 110.185 375.103 111.345 378.556 111.838L384.846 112.8C392.74 113.984 396.686 117.807 396.686 124.27C396.686 127.575 395.28 130.313 392.468 132.484C389.706 134.655 385.685 135.74 380.406 135.74C377.742 135.74 375.374 135.395 373.302 134.704C371.28 134.013 369.701 133.199 368.566 132.262C367.481 131.275 366.568 130.165 365.828 128.932C365.138 127.699 364.669 126.663 364.422 125.824C364.225 124.936 364.126 124.171 364.126 123.53Z" fill="white"/>
</svg>
