<svg width="485" height="77" viewBox="0 0 485 77" fill="none" xmlns="http://www.w3.org/2000/svg">
<path style="mix-blend-mode:screen" d="M242.345 43.1873C376.188 43.1873 484.69 41.0888 484.69 38.5002C484.69 35.9116 376.188 33.8131 242.345 33.8131C108.502 33.8131 0 35.9116 0 38.5002C0 41.0888 108.502 43.1873 242.345 43.1873Z" fill="url(#paint0_radial_10_170)"/>
<path style="mix-blend-mode:screen" d="M242.345 43.1873C376.188 43.1873 484.69 41.0888 484.69 38.5002C484.69 35.9116 376.188 33.8131 242.345 33.8131C108.502 33.8131 0 35.9116 0 38.5002C0 41.0888 108.502 43.1873 242.345 43.1873Z" fill="url(#paint1_radial_10_170)"/>
<path style="mix-blend-mode:screen" d="M242.347 64.2701C367.776 64.2701 469.456 52.7324 469.456 38.4999C469.456 24.2674 367.776 12.7296 242.347 12.7296C116.918 12.7296 15.2384 24.2674 15.2384 38.4999C15.2384 52.7324 116.918 64.2701 242.347 64.2701Z" fill="url(#paint2_radial_10_170)"/>
<path style="mix-blend-mode:screen" d="M242.346 77C341.467 77 421.82 59.763 421.82 38.5C421.82 17.237 341.467 0 242.346 0C143.225 0 62.8714 17.237 62.8714 38.5C62.8714 59.763 143.225 77 242.346 77Z" fill="url(#paint3_radial_10_170)"/>
<defs>
<radialGradient id="paint0_radial_10_170" cx="0" cy="0" r="1" gradientUnits="userSpaceOnUse" gradientTransform="translate(242.713 41.2936) scale(242.289 4.435)">
<stop stop-color="white"/>
<stop offset="0.21" stop-color="#3296B8"/>
<stop offset="0.29" stop-color="#005977"/>
<stop offset="0.38" stop-color="#003A4E"/>
<stop offset="0.47" stop-color="#002531"/>
<stop offset="0.57" stop-color="#001B24"/>
<stop offset="0.68" stop-color="#001015"/>
<stop offset="0.81" stop-color="#000A0D"/>
<stop offset="1"/>
</radialGradient>
<radialGradient id="paint1_radial_10_170" cx="0" cy="0" r="1" gradientUnits="userSpaceOnUse" gradientTransform="translate(242.713 41.2936) scale(242.289 4.435)">
<stop stop-color="white"/>
<stop offset="0.44" stop-color="#006D92"/>
<stop offset="0.5" stop-color="#005B7A"/>
<stop offset="0.56" stop-color="#003F55"/>
<stop offset="0.63" stop-color="#002734"/>
<stop offset="0.7" stop-color="#001218"/>
<stop offset="0.77" stop-color="#000C10"/>
<stop offset="0.87" stop-color="#00090C"/>
<stop offset="1"/>
</radialGradient>
<radialGradient id="paint2_radial_10_170" cx="0" cy="0" r="1" gradientUnits="userSpaceOnUse" gradientTransform="translate(242.206 36.6227) scale(227.179 25.4972)">
<stop stop-color="#007198"/>
<stop offset="0.09" stop-color="#015B7A"/>
<stop offset="0.21" stop-color="#004157"/>
<stop offset="0.34" stop-color="#002836"/>
<stop offset="0.48" stop-color="#001921"/>
<stop offset="0.62" stop-color="#000D11"/>
<stop offset="0.79"/>
<stop offset="1"/>
</radialGradient>
<radialGradient id="paint3_radial_10_170" cx="0" cy="0" r="1" gradientUnits="userSpaceOnUse" gradientTransform="translate(-213101 32228.6) scale(109374 3317.44)">
<stop stop-color="#006D93"/>
<stop offset="0.09" stop-color="#005A78"/>
<stop offset="0.21" stop-color="#003B4F"/>
<stop offset="0.34" stop-color="#002734"/>
<stop offset="0.48" stop-color="#001A23"/>
<stop offset="0.62" stop-color="#000E12"/>
<stop offset="0.79"/>
<stop offset="1"/>
</radialGradient>
</defs>
</svg>
