<svg width="20" height="20" viewBox="0 0 20 20" fill="none" xmlns="http://www.w3.org/2000/svg">
<circle cx="10" cy="10" r="10" fill="#00C7F4"/>
<path d="M5.83337 10.5845C5.85816 10.5782 5.85273 10.5538 5.8586 10.5379C5.94406 10.3065 6.12542 10.1782 6.37355 10.1778C6.71257 10.1772 7.05137 10.1776 7.3904 10.1776C9.01983 10.1776 10.6495 10.1776 12.2789 10.1776C12.3083 10.1776 12.3376 10.1776 12.3809 10.1776C12.3548 10.1491 12.3368 10.1278 12.3174 10.1084C12.026 9.81682 11.7344 9.52586 11.4432 9.23424C11.2971 9.08789 11.2449 8.91283 11.2999 8.7132C11.3532 8.51988 11.4835 8.39549 11.6779 8.34917C11.8755 8.30198 12.0449 8.36135 12.1885 8.50531C12.7495 9.06788 13.3116 9.62915 13.8734 10.1909C13.9195 10.237 13.9662 10.282 14.0112 10.3292C14.2167 10.5453 14.2211 10.8548 14.0108 11.0666C13.3997 11.6824 12.786 12.2959 12.1704 12.9074C11.9571 13.1194 11.6311 13.1148 11.4271 12.9067C11.2264 12.7019 11.2286 12.3811 11.4376 12.1691C11.727 11.8757 12.0199 11.5856 12.3115 11.2945C12.3322 11.2738 12.3548 11.2551 12.3946 11.2192C12.3435 11.2192 12.3152 11.2192 12.2872 11.2192C10.3376 11.2192 8.38833 11.2192 6.43879 11.2192C6.10933 11.2192 5.97407 11.1281 5.8462 10.8204C5.84468 10.8167 5.83794 10.815 5.83359 10.8124C5.83337 10.7362 5.83337 10.6604 5.83337 10.5845Z" fill="black"/>
</svg>
