<svg width="32" height="32" viewBox="0 0 32 32" fill="none" xmlns="http://www.w3.org/2000/svg">
<circle cx="16" cy="16" r="16" fill="white"/>
<path d="M17.5646 16.6328L21.543 12.6543C21.802 12.3955 21.802 11.977 21.543 11.7183C21.2843 11.4595 20.8658 11.4595 20.607 11.7183L16.6285 15.6968L12.6501 11.7183C12.3912 11.4595 11.9729 11.4595 11.7141 11.7183C11.4552 11.977 11.4552 12.3955 11.7141 12.6543L15.6925 16.6328L11.7141 20.6114C11.4552 20.8701 11.4552 21.2886 11.7141 21.5474C11.843 21.6764 12.0126 21.7413 12.1821 21.7413C12.3515 21.7413 12.521 21.6764 12.6501 21.5474L16.6285 17.5688L20.607 21.5474C20.7361 21.6764 20.9056 21.7413 21.075 21.7413C21.2445 21.7413 21.414 21.6764 21.543 21.5474C21.802 21.2886 21.802 20.8701 21.543 20.6114L17.5646 16.6328Z" fill="black"/>
</svg>
