<svg width="12" height="12" viewBox="0 0 12 12" fill="none" xmlns="http://www.w3.org/2000/svg">
<g clip-path="url(#clip0_459_6962)">
<path d="M5.60889 12C5.43475 11.9248 5.30414 11.7863 5.17353 11.6596C4.1643 10.69 3.26192 9.6293 2.52182 8.44197C1.96773 7.55543 1.51654 6.61743 1.31469 5.58445C0.994114 3.96176 1.3701 2.52904 2.52973 1.33775C3.23422 0.613472 4.10493 0.186031 5.10625 0.0475088C6.4044 -0.126634 7.57195 0.201862 8.58514 1.02112C9.49543 1.75727 10.0337 2.72297 10.2078 3.8826C10.3503 4.82455 10.1643 5.72297 9.82393 6.59764C9.4044 7.67416 8.79491 8.63986 8.10229 9.56202C7.50467 10.3575 6.84768 11.0976 6.13923 11.7942C6.0482 11.8852 5.9453 11.9565 5.82657 12C5.74741 12 5.68013 12 5.60889 12ZM5.71971 6.68075C6.911 6.68471 7.88066 5.71901 7.88461 4.52772C7.88857 3.34038 6.91496 2.36677 5.72762 2.36677C4.54425 2.36677 3.57459 3.32851 3.57063 4.51585C3.56272 5.70714 4.52446 6.6768 5.71971 6.68075Z" fill="white"/>
</g>
<defs>
<clipPath id="clip0_459_6962">
<rect width="12" height="12" fill="white"/>
</clipPath>
</defs>
</svg>
