<svg width="20" height="20" viewBox="0 0 20 20" fill="none" xmlns="http://www.w3.org/2000/svg">
<path d="M0 14.8053C0.10131 14.6682 0.0748816 14.4989 0.109631 14.3457C0.314699 13.4325 0.75371 12.6523 1.41247 11.9926C2.79215 10.6109 4.16841 9.22587 5.55347 7.84962C7.14997 6.2634 9.46151 5.97464 11.3492 7.1287C11.7755 7.38956 12.1949 7.67636 12.4382 8.13691C12.7211 8.67185 12.5884 9.34725 12.1426 9.71578C11.6502 10.123 10.9513 10.1523 10.4658 9.77256C10.1589 9.53274 9.87263 9.27383 9.47717 9.17203C8.7773 8.99193 8.15182 9.1182 7.59975 9.58413C7.46075 9.7011 7.33644 9.83569 7.20723 9.96441C5.8995 11.2707 4.5898 12.575 3.28598 13.8852C2.43439 14.7412 2.4613 16.0396 3.33737 16.8325C4.11653 17.5377 5.32589 17.4932 6.10554 16.7214C6.87785 15.9569 7.65261 15.1939 8.40485 14.4098C8.64956 14.1544 8.86833 14.101 9.19331 14.2336C9.78893 14.4774 10.4213 14.5601 11.0629 14.5704C11.1216 14.5713 11.1804 14.5674 11.2386 14.5743C11.5269 14.6085 11.6522 14.8958 11.4696 15.1205C11.3634 15.2511 11.2357 15.3647 11.1158 15.4841C10.0043 16.5907 8.90553 17.7105 7.77594 18.798C7.06236 19.4851 6.18189 19.8547 5.19522 19.9628C5.16438 19.9662 5.12915 19.9574 5.11789 20C4.79242 20 4.46696 20 4.14149 20C4.07982 19.9261 3.98781 19.9481 3.91048 19.9325C1.9616 19.5434 0.714557 18.3928 0.150742 16.4899C0.0890749 16.2814 0.104247 16.0567 0.000978845 15.859C0 15.5086 0 15.1567 0 14.8053Z" fill="#00E0FF"/>
<path d="M10.9509 13.5749C9.68187 13.5205 8.57088 13.0654 7.70558 12.0988C7.26118 11.6025 7.31355 10.8375 7.77361 10.3574C8.21703 9.8949 9.00304 9.83176 9.52231 10.2297C9.83114 10.4665 10.1165 10.7289 10.5114 10.8312C11.226 11.0157 11.8706 10.8943 12.4158 10.3951C12.8621 9.98691 13.2801 9.54741 13.7088 9.11965C14.7087 8.12172 15.712 7.12722 16.7061 6.12341C17.6653 5.15387 17.4632 3.59897 16.3018 2.93776C15.529 2.49777 14.5418 2.63921 13.8787 3.29553C13.0922 4.07371 12.3061 4.85336 11.5324 5.64476C11.3312 5.8508 11.1462 5.90219 10.8756 5.79403C10.2227 5.53317 9.53602 5.42941 8.83419 5.43088C8.67023 5.43137 8.54102 5.38047 8.47104 5.22287C8.3986 5.06087 8.46369 4.93216 8.57724 4.81959C9.7959 3.60778 10.9901 2.37052 12.2401 1.1915C13.9335 -0.405482 16.7183 -0.386395 18.4298 1.18416C20.0336 2.65585 20.4472 4.84112 19.4845 6.79049C19.2731 7.21874 18.9912 7.60147 18.6535 7.93966C17.2136 9.38149 15.7791 10.8287 14.3284 12.2598C13.4994 13.0776 12.4867 13.5029 11.3195 13.5509C11.202 13.5553 11.0855 13.5661 10.9509 13.5749Z" fill="#00E0FF"/>
</svg>
