<svg width="16" height="16" viewBox="0 0 16 16" fill="none" xmlns="http://www.w3.org/2000/svg">
<g clip-path="url(#clip0_1241_6829)">
<path d="M0 11.8442C0.0810484 11.7345 0.0599053 11.5991 0.0877045 11.4765C0.251759 10.7459 0.602969 10.1218 1.12998 9.59399C2.23373 8.48868 3.33473 7.38063 4.44278 6.27962C5.71998 5.01065 7.56922 4.77964 9.07938 5.70288C9.42041 5.91157 9.75596 6.14102 9.95055 6.50945C10.1769 6.9374 10.0708 7.47773 9.71406 7.77255C9.32017 8.09831 8.76106 8.12181 8.37265 7.81797C8.12716 7.62612 7.89811 7.419 7.58174 7.33756C7.02184 7.19347 6.52146 7.29449 6.0798 7.66723C5.96861 7.76081 5.86916 7.86848 5.76579 7.97146C4.7196 9.01647 3.67184 10.0599 2.62879 11.1081C1.94751 11.7929 1.96905 12.8316 2.6699 13.4659C3.29323 14.0301 4.26072 13.9945 4.88444 13.377C5.50229 12.7654 6.12209 12.155 6.72388 11.5278C6.91965 11.3234 7.09467 11.2807 7.35465 11.3868C7.83115 11.5818 8.33702 11.648 8.85033 11.6562C8.89731 11.657 8.9443 11.6539 8.99089 11.6594C9.22151 11.6868 9.32174 11.9166 9.1757 12.0963C9.09073 12.2009 8.98854 12.2917 8.89261 12.3872C8.00343 13.2725 7.12443 14.1683 6.22076 15.0383C5.6499 15.588 4.94552 15.8837 4.15618 15.9702C4.13151 15.9729 4.10332 15.9659 4.09431 15.9999C3.83394 15.9999 3.57357 15.9999 3.3132 15.9999C3.26386 15.9408 3.19025 15.9584 3.12839 15.9459C1.56928 15.6346 0.571646 14.7141 0.120594 13.1918C0.0712599 13.025 0.0833976 12.8453 0.000783076 12.6871C0 12.4068 0 12.1253 0 11.8442Z" fill="white"/>
<path d="M8.76056 10.8599C7.7453 10.8164 6.85651 10.4523 6.16427 9.67902C5.80875 9.282 5.85065 8.67003 6.21869 8.28593C6.57343 7.91593 7.20224 7.86542 7.61766 8.18374C7.86472 8.37324 8.09299 8.58311 8.40896 8.66494C8.9806 8.81255 9.49626 8.71545 9.93243 8.31608C10.2895 7.98953 10.6239 7.63793 10.9669 7.29573C11.7668 6.49738 12.5694 5.70178 13.3647 4.89873C14.1321 4.1231 13.9704 2.87918 13.0412 2.35021C12.423 1.99822 11.6333 2.11137 11.1027 2.63643C10.4735 3.25897 9.84473 3.88269 9.22571 4.51581C9.06478 4.68065 8.91678 4.72176 8.70026 4.63523C8.17795 4.42654 7.62862 4.34353 7.06716 4.34471C6.93599 4.3451 6.83262 4.30438 6.77663 4.1783C6.71869 4.0487 6.77076 3.94573 6.8616 3.85567C7.83653 2.88623 8.79188 1.89642 9.79187 0.953203C11.1466 -0.324386 13.3744 -0.309116 14.7437 0.94733C16.0267 2.12469 16.3576 3.8729 15.5874 5.4324C15.4183 5.775 15.1927 6.08118 14.9226 6.35173C13.7707 7.5052 12.6231 8.66298 11.4626 9.80784C10.7993 10.4621 9.9892 10.8023 9.05539 10.8407C8.96142 10.8442 8.86823 10.8529 8.76056 10.8599Z" fill="white"/>
</g>
<defs>
<clipPath id="clip0_1241_6829">
<rect width="16" height="16" fill="white"/>
</clipPath>
</defs>
</svg>
