<svg width="12" height="12" viewBox="0 0 12 12" fill="none" xmlns="http://www.w3.org/2000/svg">
<path d="M0 2.66735C0.0557853 2.59277 0.0487387 2.49177 0.110103 2.41309C0.137702 2.43892 0.166475 2.46447 0.19378 2.49148C1.34912 3.63919 2.50388 4.78807 3.66157 5.93343C3.73086 6.00213 3.73086 6.03473 3.66157 6.10343C2.50388 7.24908 1.34912 8.39767 0.19378 9.54538C0.166475 9.57239 0.137702 9.59794 0.104524 9.62906C0.0675295 9.53716 0.0337648 9.45319 0 9.36951C0 7.13546 0 4.9014 0 2.66735Z" fill="white"/>
<path d="M0.608154 1.90604C0.763472 1.83176 0.917909 1.80005 1.08027 1.80005C4.36104 1.80034 7.6418 1.80034 10.9229 1.80005C11.0843 1.80005 11.2373 1.83293 11.3909 1.90516C11.3597 1.93804 11.3342 1.96682 11.3069 1.99412C9.80362 3.49005 8.30006 4.98568 6.7968 6.48161C6.46942 6.80722 6.09009 6.92378 5.64263 6.77522C5.47997 6.72119 5.34491 6.62254 5.22512 6.50334C3.70218 4.98891 2.17954 3.47361 0.656893 1.9586C0.643094 1.94509 0.630468 1.93041 0.608154 1.90604Z" fill="white"/>
<path d="M11.3872 10.1332C11.2328 10.2057 11.0781 10.2368 10.9157 10.2368C7.63994 10.2365 4.36446 10.2363 1.08869 10.2368C0.923095 10.2368 0.766016 10.2057 0.608643 10.1314C0.639471 10.0988 0.665015 10.0701 0.692321 10.0431C1.84708 8.89565 3.00271 7.74882 4.15541 6.59905C4.22235 6.53211 4.25612 6.52418 4.32629 6.59612C4.51978 6.7943 4.70328 7.00423 4.92378 7.17335C5.64459 7.72592 6.60233 7.65663 7.26588 7.00717C7.41092 6.86506 7.55479 6.72178 7.69602 6.57615C7.73888 6.53182 7.76443 6.52037 7.81522 6.57116C8.9964 7.74764 10.1793 8.92236 11.3617 10.0974C11.3696 10.1056 11.3749 10.1162 11.3872 10.1332Z" fill="white"/>
<path d="M11.8925 9.62938C11.8623 9.60061 11.8423 9.58211 11.8229 9.56303C10.66 8.40769 9.49728 7.25176 8.33254 6.09759C8.27587 6.04151 8.25738 6.01186 8.32549 5.94433C9.49669 4.78575 10.6647 3.62425 11.8332 2.46333C11.8497 2.44718 11.867 2.43191 11.8916 2.4093C11.9718 2.56609 11.9994 2.7261 11.9994 2.89317C11.9988 3.5529 11.9991 4.21263 11.9991 4.87207C11.9991 6.28902 11.9985 7.70597 11.9997 9.12291C12.0003 9.29673 11.9741 9.4632 11.8925 9.62938Z" fill="white"/>
</svg>
