<svg width="20" height="20" viewBox="0 0 20 20" fill="none" xmlns="http://www.w3.org/2000/svg">
<g clip-path="url(#clip0_1241_12310)">
<path d="M0 9.82561C0.0765404 9.66597 0.0688863 9.48938 0.103876 9.32099C0.635832 6.7629 2.15024 5.04293 4.63397 4.29065C6.90449 3.60288 8.96288 4.15506 10.7441 5.72086C10.9835 5.93135 10.995 6.19158 10.766 6.41519C10.4073 6.76509 10.041 7.10733 9.67088 7.44521C9.45383 7.64366 9.25428 7.63382 8.99513 7.4135C8.57799 7.05922 8.11164 6.79899 7.59226 6.62786C5.25012 5.85371 2.69805 7.54088 2.45257 9.99127C2.25083 12.0032 3.60888 13.8467 5.54754 14.2885C7.38724 14.7072 9.3915 13.6647 10.0771 11.9042C10.1318 11.7643 10.1115 11.7309 9.95954 11.732C9.02848 11.7375 8.09797 11.7353 7.16691 11.7347C6.74157 11.7347 6.59286 11.586 6.59231 11.1612C6.59177 10.7124 6.58958 10.263 6.59286 9.81413C6.59559 9.46697 6.74758 9.30951 7.09092 9.30896C8.93992 9.30678 10.7884 9.30787 12.6374 9.30732C12.7287 9.30732 12.803 9.30404 12.7986 9.43471C12.7702 10.2455 12.8216 11.0596 12.6275 11.8616C12.3197 13.1305 11.6986 14.213 10.7452 15.1003C9.88355 15.9024 8.87212 16.4305 7.71746 16.6661C6.13854 16.9881 4.63507 16.7651 3.23547 15.9641C1.79761 15.1413 0.826089 13.9276 0.306161 12.3536C0.175496 11.9573 0.0989558 11.5494 0.0431906 11.1366C0.0382702 11.1 0.0475644 11.0563 0.000546717 11.0371C0 10.6331 0 10.2296 0 9.82561Z" fill="white"/>
<path d="M16.0481 8.60981C16.0481 8.39495 16.0454 8.1801 16.0487 7.96524C16.053 7.69297 16.1799 7.54262 16.4461 7.53497C16.8622 7.52294 17.2793 7.52239 17.6959 7.53606C17.9496 7.54426 18.083 7.69898 18.0857 7.95594C18.0901 8.39824 18.0918 8.84108 18.0841 9.28337C18.0819 9.41458 18.1246 9.44684 18.2498 9.44465C18.6664 9.43754 19.083 9.44082 19.4995 9.44246C19.862 9.44356 19.9982 9.57805 19.9992 9.93451C20.0003 10.2926 20.0003 10.6502 19.9992 11.0083C19.9982 11.3511 19.8604 11.4899 19.5116 11.4927C19.1015 11.4959 18.6915 11.4992 18.2815 11.4905C18.1333 11.4872 18.0792 11.5211 18.0836 11.6813C18.0956 12.1039 18.0896 12.527 18.0868 12.9502C18.0846 13.2498 17.9485 13.3941 17.6467 13.4007C17.2629 13.4083 16.8786 13.4083 16.4948 13.4007C16.181 13.3947 16.0514 13.2547 16.0498 12.9382C16.0476 12.5216 16.0432 12.105 16.0525 11.6889C16.0558 11.5397 16.0208 11.4855 15.8606 11.4905C15.4571 11.5025 15.0536 11.4954 14.6502 11.4937C14.2653 11.4921 14.1379 11.3636 14.1374 10.9782C14.1368 10.6267 14.1363 10.2751 14.1374 9.92358C14.1384 9.57969 14.2757 9.4441 14.6256 9.44246C15.0422 9.44028 15.4588 9.437 15.8754 9.44465C16.0082 9.44684 16.0596 9.41404 16.0525 9.27298C16.0399 9.05266 16.0481 8.83123 16.0481 8.60981Z" fill="white"/>
</g>
<defs>
<clipPath id="clip0_1241_12310">
<rect width="20" height="20" fill="white"/>
</clipPath>
</defs>
</svg>
