<svg width="18" height="18" viewBox="0 0 18 18" fill="none" xmlns="http://www.w3.org/2000/svg">
<g clip-path="url(#clip0_889_3990)">
<path d="M8.28059 0C8.74846 0 9.21633 0 9.6842 0C9.69258 0.0396241 9.72458 0.0327661 9.75278 0.0342901C10.4249 0.0830582 11.0878 0.196596 11.7218 0.421387C15.1935 1.64897 17.2646 4.07214 17.907 7.70612C17.9428 7.90881 17.9306 8.11836 18.0007 8.31572C18.0007 8.77216 18.0007 9.22784 18.0007 9.68428C17.9458 9.70409 17.9687 9.75286 17.9649 9.78943C17.9313 10.1384 17.8833 10.4859 17.8079 10.828C17.3316 13.0005 16.2214 14.7836 14.4482 16.1232C12.2826 17.7592 9.84117 18.3078 7.18483 17.7699C5.01922 17.331 3.23462 16.2162 1.90797 14.4483C-0.0564686 11.8285 -0.53653 8.91542 0.619427 5.85827C1.85311 2.59385 4.29227 0.686563 7.74338 0.0929642C7.92245 0.0624841 8.1099 0.0777242 8.28059 0ZM8.10533 7.07137C8.10533 7.84862 8.10685 8.6251 8.10457 9.40234C8.10381 9.69114 8.18763 9.94564 8.40708 10.1392C8.69131 10.3899 9.02202 10.4516 9.36873 10.3053C9.72915 10.1529 9.9227 9.86106 9.92728 9.46863C9.93566 8.80874 9.93032 8.14884 9.93032 7.48819C9.93032 6.5654 9.92956 5.64262 9.93032 4.71908C9.93032 4.36627 9.80002 4.08128 9.49598 3.89307C9.1988 3.70942 8.88714 3.70028 8.58158 3.86868C8.2623 4.04394 8.10838 4.32741 8.10685 4.6886C8.10304 5.4826 8.10533 6.27661 8.10533 7.07137ZM9.01059 14.1443C9.51427 14.1473 9.92728 13.7404 9.9288 13.239C9.93032 12.7407 9.51122 12.3208 9.01516 12.3231C8.52367 12.3254 8.11219 12.733 8.10609 13.2253C8.09923 13.7259 8.50843 14.142 9.01059 14.1443Z" fill="#FF5656"/>
</g>
<defs>
<clipPath id="clip0_889_3990">
<rect width="18" height="18" fill="white"/>
</clipPath>
</defs>
</svg>
