<svg width="12" height="12" viewBox="0 0 12 12" fill="none" xmlns="http://www.w3.org/2000/svg">
<g clip-path="url(#clip0_356_3705)">
<path d="M8.96705 12C8.8918 11.957 8.80571 11.9587 8.72372 11.9444C7.9182 11.8018 7.18472 11.4721 6.48314 11.068C4.97195 10.1975 3.68301 9.0599 2.539 7.75221C1.80141 6.90921 1.15694 6.0015 0.658868 4.99512C0.349661 4.37026 0.105165 3.72198 0.0240571 3.0248C-0.0336264 2.5279 -0.00317418 2.04125 0.289635 1.60702C0.342341 1.52884 0.405002 1.45973 0.47147 1.39326C0.814058 1.05097 1.16279 0.714239 1.49806 0.364624C1.99496 -0.153649 2.76505 -0.0895236 3.22681 0.368431C3.7565 0.894024 4.28385 1.42196 4.80974 1.95107C5.25334 2.39731 5.30195 3.03563 4.93008 3.49857C4.81032 3.6479 4.65894 3.75477 4.47798 3.81949C4.1477 3.93749 3.89266 4.13982 3.75006 4.46835C3.6549 4.68737 3.64113 4.91108 3.70292 5.1424C3.88065 5.80942 4.26306 6.35522 4.72072 6.85446C5.17809 7.35282 5.69519 7.77768 6.30746 8.07489C6.5745 8.2046 6.84974 8.31997 7.15807 8.28512C7.63477 8.23125 7.98526 7.99026 8.13723 7.53231C8.37762 6.80849 9.36234 6.51041 9.9951 7.13731C10.5473 7.68457 11.0964 8.23476 11.6442 8.78671C11.8339 8.97791 11.9496 9.20806 11.9681 9.48125C11.9692 9.49765 11.9724 9.51141 11.9912 9.51522C11.9912 9.56997 11.9912 9.62473 11.9912 9.67919C11.9596 9.68856 11.9695 9.71579 11.9666 9.73687C11.9309 10.0209 11.8137 10.2674 11.6132 10.4704C11.2647 10.8232 10.9104 11.1705 10.5623 11.5239C10.3506 11.7388 10.097 11.8726 9.80683 11.9452C9.7225 11.9663 9.6326 11.9593 9.55267 12C9.35766 12 9.16235 12 8.96705 12Z" fill="white"/>
</g>
<defs>
<clipPath id="clip0_356_3705">
<rect width="12" height="12" fill="white"/>
</clipPath>
</defs>
</svg>
