<svg width="32" height="32" viewBox="0 0 32 32" fill="none" xmlns="http://www.w3.org/2000/svg">
<circle cx="16" cy="16" r="16" fill="#00C7F4"/>
<path d="M9.33333 16.9352C9.37299 16.9251 9.36429 16.8861 9.37369 16.8607C9.51043 16.4905 9.80061 16.2852 10.1976 16.2845C10.74 16.2835 11.2821 16.2842 11.8246 16.2842C14.4317 16.2842 17.0391 16.2842 19.6462 16.2842C19.6932 16.2842 19.7402 16.2842 19.8094 16.2842C19.7676 16.2386 19.7388 16.2045 19.7078 16.1735C19.2416 15.707 18.775 15.2414 18.3091 14.7748C18.0753 14.5407 17.9918 14.2606 18.0798 13.9412C18.165 13.6319 18.3735 13.4328 18.6845 13.3587C19.0008 13.2832 19.2718 13.3782 19.5015 13.6085C20.3991 14.5087 21.2986 15.4067 22.1973 16.3054C22.2711 16.3792 22.3459 16.4512 22.4179 16.5267C22.7467 16.8726 22.7536 17.3677 22.4172 17.7066C21.4395 18.6919 20.4576 19.6735 19.4726 20.6519C19.1313 20.9911 18.6097 20.9838 18.2833 20.6508C17.9622 20.3231 17.9657 19.8098 18.3 19.4706C18.7631 19.0012 19.2318 18.5371 19.6984 18.0712C19.7315 18.0381 19.7676 18.0082 19.8313 17.9508C19.7495 17.9508 19.7043 17.9508 19.6594 17.9508C16.5402 17.9508 13.4213 17.9508 10.302 17.9508C9.77486 17.9508 9.55844 17.805 9.35386 17.3127C9.35142 17.3068 9.34063 17.304 9.33368 17.2998C9.33333 17.178 9.33333 17.0566 9.33333 16.9352Z" fill="black"/>
</svg>
