<svg width="32" height="32" viewBox="0 0 32 32" fill="none" xmlns="http://www.w3.org/2000/svg">
<circle r="16" transform="matrix(-1 0 0 1 16 16)" fill="#00C7F4"/>
<path d="M22.6667 16.9352C22.6271 16.9251 22.6358 16.8861 22.6264 16.8607C22.4896 16.4905 22.1995 16.2852 21.8025 16.2846C21.26 16.2835 20.7179 16.2842 20.1755 16.2842C17.5684 16.2842 14.961 16.2842 12.3539 16.2842C12.3069 16.2842 12.2599 16.2842 12.1907 16.2842C12.2324 16.2386 12.2613 16.2045 12.2923 16.1736C12.7585 15.707 13.2251 15.2414 13.691 14.7748C13.9248 14.5407 14.0083 14.2606 13.9203 13.9412C13.835 13.6319 13.6266 13.4329 13.3156 13.3587C12.9993 13.2832 12.7282 13.3782 12.4986 13.6086C11.6009 14.5087 10.7015 15.4067 9.80278 16.3054C9.72902 16.3792 9.65421 16.4512 9.58219 16.5267C9.25339 16.8726 9.24643 17.3677 9.58289 17.7066C10.5606 18.6919 11.5425 19.6735 12.5275 20.6519C12.8688 20.9911 13.3904 20.9838 13.7167 20.6508C14.0379 20.3231 14.0344 19.8099 13.7 19.4706C13.2369 19.0013 12.7683 18.5371 12.3017 18.0712C12.2686 18.0382 12.2324 18.0082 12.1688 17.9508C12.2505 17.9508 12.2958 17.9508 12.3406 17.9508C15.4599 17.9508 18.5788 17.9508 21.6981 17.9508C22.2252 17.9508 22.4416 17.805 22.6462 17.3127C22.6487 17.3068 22.6594 17.304 22.6664 17.2998C22.6667 17.1781 22.6667 17.0566 22.6667 16.9352Z" fill="black"/>
</svg>
