<svg width="20" height="20" viewBox="0 0 20 20" fill="none" xmlns="http://www.w3.org/2000/svg">
<path d="M0 14.8053C0.10131 14.6682 0.0748816 14.4989 0.109631 14.3457C0.314699 13.4324 0.75371 12.6523 1.41247 11.9925C2.79215 10.6109 4.16841 9.22584 5.55347 7.84959C7.14997 6.26337 9.46151 5.97461 11.3492 7.12867C11.7755 7.38953 12.1949 7.67633 12.4382 8.13688C12.7211 8.67181 12.5884 9.34722 12.1426 9.71575C11.6502 10.123 10.9513 10.1523 10.4658 9.77253C10.1589 9.53271 9.87263 9.2738 9.47717 9.172C8.7773 8.9919 8.15182 9.11817 7.59975 9.5841C7.46075 9.70107 7.33644 9.83566 7.20723 9.96438C5.8995 11.2706 4.5898 12.575 3.28598 13.8851C2.43439 14.7411 2.4613 16.0396 3.33737 16.8324C4.11653 17.5377 5.32589 17.4932 6.10554 16.7213C6.87785 15.9569 7.65261 15.1939 8.40485 14.4098C8.64956 14.1543 8.86833 14.101 9.19331 14.2336C9.78893 14.4773 10.4213 14.5601 11.0629 14.5703C11.1216 14.5713 11.1804 14.5674 11.2386 14.5742C11.5269 14.6085 11.6522 14.8958 11.4696 15.1204C11.3634 15.2511 11.2357 15.3647 11.1158 15.4841C10.0043 16.5907 8.90553 17.7105 7.77594 18.798C7.06236 19.4851 6.18189 19.8546 5.19522 19.9628C5.16438 19.9662 5.12915 19.9574 5.11789 20C4.79242 20 4.46696 20 4.14149 20C4.07982 19.9261 3.98781 19.9481 3.91048 19.9324C1.9616 19.5434 0.714557 18.3927 0.150742 16.4898C0.0890749 16.2814 0.104247 16.0567 0.000978844 15.859C0 15.5086 0 15.1567 0 14.8053Z" fill="#9F9F9F"/>
<path d="M10.9508 13.5749C9.68174 13.5205 8.57076 13.0654 7.70546 12.0988C7.26106 11.6025 7.31343 10.8375 7.77349 10.3574C8.2169 9.8949 9.00292 9.83176 9.52219 10.2297C9.83102 10.4665 10.1164 10.7289 10.5113 10.8312C11.2259 11.0157 11.8704 10.8943 12.4157 10.3951C12.862 9.98691 13.28 9.54741 13.7087 9.11965C14.7086 8.12172 15.7119 7.12722 16.7059 6.12341C17.6652 5.15387 17.4631 3.59897 16.3017 2.93776C15.5289 2.49777 14.5417 2.63921 13.8785 3.29553C13.092 4.07371 12.306 4.85336 11.5323 5.64476C11.3311 5.8508 11.1461 5.90219 10.8754 5.79403C10.2226 5.53317 9.5359 5.42941 8.83407 5.43088C8.67011 5.43137 8.5409 5.38047 8.47091 5.22287C8.39848 5.06087 8.46357 4.93216 8.57712 4.81959C9.79578 3.60778 10.99 2.37052 12.24 1.1915C13.9334 -0.405482 16.7182 -0.386395 18.4297 1.18416C20.0335 2.65585 20.4471 4.84112 19.4844 6.79049C19.273 7.21874 18.991 7.60147 18.6533 7.93966C17.2135 9.38149 15.779 10.8287 14.3283 12.2598C13.4992 13.0776 12.4866 13.5029 11.3194 13.5509C11.2019 13.5553 11.0854 13.5661 10.9508 13.5749Z" fill="#9F9F9F"/>
</svg>
