<svg width="16" height="16" viewBox="0 0 16 16" fill="none" xmlns="http://www.w3.org/2000/svg">
<path d="M1.33301 8.93518C1.37267 8.92509 1.36397 8.88612 1.37337 8.86072C1.51011 8.49051 1.80029 8.28523 2.19729 8.28454C2.73972 8.28349 3.28181 8.28419 3.82424 8.28419C6.43134 8.28419 9.03879 8.28419 11.6459 8.28419C11.6929 8.28419 11.7398 8.28419 11.8091 8.28419C11.7673 8.23861 11.7384 8.20451 11.7075 8.17354C11.2412 7.70696 10.7747 7.24142 10.3088 6.77483C10.075 6.54067 9.99145 6.26058 10.0795 5.94117C10.1647 5.63186 10.3731 5.43284 10.6842 5.35872C11.0005 5.28322 11.2715 5.37821 11.5011 5.60854C12.3988 6.50866 13.2982 7.40669 14.197 8.30541C14.2707 8.37917 14.3455 8.4512 14.4176 8.5267C14.7464 8.87255 14.7533 9.36767 14.4169 9.70656C13.4392 10.6919 12.4573 11.6735 11.4723 12.6519C11.1309 12.9911 10.6094 12.9838 10.283 12.6508C9.96187 12.3231 9.96535 11.8098 10.2997 11.4706C10.7628 11.0012 11.2315 10.5371 11.6981 10.0712C11.7311 10.0381 11.7673 10.0082 11.831 9.95081C11.7492 9.95081 11.704 9.95081 11.6591 9.95081C8.53985 9.95081 5.42093 9.95081 2.30167 9.95081C1.77454 9.95081 1.55812 9.80502 1.35354 9.31269C1.3511 9.30678 1.34031 9.30399 1.33336 9.29982C1.33301 9.17804 1.33301 9.05661 1.33301 8.93518Z" fill="black"/>
</svg>
