<svg width="380" height="289" viewBox="0 0 380 289" fill="none" xmlns="http://www.w3.org/2000/svg">
<path d="M190 200C245.228 200 290 155.228 290 100C290 44.7715 245.228 0 190 0C134.772 0 90 44.7715 90 100C90 155.228 134.772 200 190 200Z" fill="white"/>
<path fill-rule="evenodd" clip-rule="evenodd" d="M185.62 112.874H220.368C223.239 112.874 225.619 115.124 225.619 118.124V152.872C225.619 155.743 223.368 158.123 220.368 158.123H185.62C182.749 158.123 180.369 155.872 180.369 152.872V117.874C180.369 115.124 182.499 112.874 185.62 112.874Z" fill="#00C7F4"/>
<path fill-rule="evenodd" clip-rule="evenodd" d="M202.744 90.1197L223.739 62.2443C225.611 59.9939 228.74 59.3728 230.991 61.2441L258.866 82.2394C261.116 84.1107 261.738 87.2402 259.866 89.4906L238.871 117.116C237 119.366 233.87 119.987 231.62 118.116L203.744 97.1209C201.494 95.4996 201.123 92.3701 202.744 90.1197Z" fill="#00C7F4"/>
<path fill-rule="evenodd" clip-rule="evenodd" d="M144.122 105.622L175.248 121.375C177.869 122.625 178.87 125.875 177.498 128.247L161.746 159.373C160.496 161.994 157.245 162.994 154.874 161.623L123.748 145.871C121.126 144.62 120.126 141.37 121.497 138.998L137.25 107.872C138.5 105.243 141.501 104.243 144.122 105.622Z" fill="#00C7F4"/>
<path d="M0 237.982H11.2439V287.931H0V237.982Z" fill="white"/>
<path d="M20.2827 268.975C20.2827 266.236 20.7151 263.665 21.58 261.263C22.493 258.812 23.7904 256.698 25.4722 254.92C27.1539 253.094 29.1961 251.653 31.5986 250.596C34.0012 249.539 36.7401 249.01 39.8153 249.01C41.8334 249.01 43.6834 249.202 45.3652 249.587C47.0469 249.923 48.6807 250.427 50.2663 251.1L48.032 259.677C47.0229 259.293 45.9177 258.956 44.7165 258.668C43.5152 258.38 42.1698 258.236 40.6802 258.236C37.5089 258.236 35.1304 259.221 33.5447 261.191C32.0071 263.161 31.2382 265.756 31.2382 268.975C31.2382 272.387 31.959 275.029 33.4005 276.903C34.8901 278.777 37.4608 279.714 41.1127 279.714C42.41 279.714 43.8035 279.594 45.2931 279.354C46.7827 279.114 48.1521 278.729 49.4014 278.201L50.915 286.994C49.6657 287.523 48.1041 287.979 46.2301 288.364C44.3561 288.748 42.2899 288.94 40.0315 288.94C36.5719 288.94 33.5927 288.436 31.0941 287.427C28.5955 286.369 26.5293 284.952 24.8955 283.174C23.3099 281.396 22.1326 279.306 21.3638 276.903C20.6431 274.453 20.2827 271.81 20.2827 268.975Z" fill="white"/>
<path d="M54.4907 269.263C54.4907 265.9 54.9952 262.969 56.0043 260.47C57.0614 257.923 58.4308 255.809 60.1126 254.127C61.7944 252.446 63.7164 251.172 65.8787 250.307C68.089 249.442 70.3474 249.01 72.6539 249.01C78.0355 249.01 82.288 250.668 85.4113 253.983C88.5346 257.251 90.0963 262.08 90.0963 268.471C90.0963 269.095 90.0723 269.792 90.0242 270.561C89.9762 271.281 89.9281 271.93 89.8801 272.507H65.5183C65.7586 274.717 66.7917 276.471 68.6176 277.768C70.4435 279.066 72.8941 279.714 75.9694 279.714C77.9395 279.714 79.8615 279.546 81.7355 279.21C83.6575 278.825 85.2191 278.369 86.4204 277.84L87.8619 286.562C87.2853 286.85 86.5165 287.138 85.5555 287.427C84.5945 287.715 83.5133 287.955 82.3121 288.147C81.1588 288.388 79.9095 288.58 78.5641 288.724C77.2187 288.868 75.8733 288.94 74.5278 288.94C71.1162 288.94 68.1371 288.436 65.5904 287.427C63.0918 286.417 61.0016 285.048 59.3198 283.318C57.6861 281.54 56.4608 279.45 55.6439 277.048C54.8751 274.645 54.4907 272.05 54.4907 269.263ZM79.7173 265.155C79.6693 264.242 79.5011 263.353 79.2128 262.488C78.9725 261.623 78.5641 260.854 77.9875 260.182C77.4589 259.509 76.7622 258.956 75.8973 258.524C75.0804 258.092 74.0473 257.875 72.798 257.875C71.5967 257.875 70.5637 258.092 69.6987 258.524C68.8338 258.908 68.1131 259.437 67.5365 260.11C66.9598 260.782 66.5034 261.575 66.167 262.488C65.8787 263.353 65.6625 264.242 65.5183 265.155H79.7173Z" fill="white"/>
<path d="M98.0235 240.577L108.763 238.847V250.019H121.665V258.956H108.763V272.291C108.763 274.549 109.147 276.351 109.916 277.696C110.733 279.042 112.343 279.714 114.745 279.714C115.898 279.714 117.076 279.618 118.277 279.426C119.526 279.186 120.655 278.874 121.665 278.489L123.178 286.85C121.881 287.378 120.439 287.835 118.854 288.219C117.268 288.604 115.322 288.796 113.015 288.796C110.084 288.796 107.658 288.412 105.736 287.643C103.814 286.826 102.276 285.721 101.123 284.327C99.9696 282.886 99.1527 281.156 98.6722 279.138C98.2398 277.12 98.0235 274.885 98.0235 272.435V240.577Z" fill="white"/>
<path d="M127.2 269.263C127.2 265.9 127.705 262.969 128.714 260.47C129.771 257.923 131.14 255.809 132.822 254.127C134.504 252.446 136.426 251.172 138.588 250.307C140.799 249.442 143.057 249.01 145.363 249.01C150.745 249.01 154.998 250.668 158.121 253.983C161.244 257.251 162.806 262.08 162.806 268.471C162.806 269.095 162.782 269.792 162.734 270.561C162.686 271.281 162.638 271.93 162.59 272.507H138.228C138.468 274.717 139.501 276.471 141.327 277.768C143.153 279.066 145.604 279.714 148.679 279.714C150.649 279.714 152.571 279.546 154.445 279.21C156.367 278.825 157.929 278.369 159.13 277.84L160.572 286.562C159.995 286.85 159.226 287.138 158.265 287.427C157.304 287.715 156.223 287.955 155.022 288.147C153.868 288.388 152.619 288.58 151.274 288.724C149.928 288.868 148.583 288.94 147.237 288.94C143.826 288.94 140.847 288.436 138.3 287.427C135.801 286.417 133.711 285.048 132.029 283.318C130.396 281.54 129.17 279.45 128.354 277.048C127.585 274.645 127.2 272.05 127.2 269.263ZM152.427 265.155C152.379 264.242 152.211 263.353 151.922 262.488C151.682 261.623 151.274 260.854 150.697 260.182C150.169 259.509 149.472 258.956 148.607 258.524C147.79 258.092 146.757 257.875 145.508 257.875C144.306 257.875 143.273 258.092 142.408 258.524C141.543 258.908 140.823 259.437 140.246 260.11C139.669 260.782 139.213 261.575 138.877 262.488C138.588 263.353 138.372 264.242 138.228 265.155H152.427Z" fill="white"/>
<path d="M185.581 280.435C186.638 280.435 187.647 280.411 188.608 280.363C189.569 280.315 190.338 280.243 190.914 280.147V272.002C190.482 271.906 189.833 271.81 188.968 271.714C188.103 271.618 187.311 271.57 186.59 271.57C185.581 271.57 184.62 271.642 183.707 271.786C182.842 271.882 182.073 272.098 181.4 272.435C180.728 272.771 180.199 273.228 179.815 273.804C179.43 274.381 179.238 275.102 179.238 275.966C179.238 277.648 179.791 278.825 180.896 279.498C182.049 280.123 183.611 280.435 185.581 280.435ZM184.716 249.01C187.887 249.01 190.53 249.37 192.644 250.091C194.759 250.812 196.44 251.845 197.69 253.19C198.987 254.536 199.9 256.17 200.429 258.092C200.957 260.014 201.221 262.152 201.221 264.506V286.85C199.684 287.186 197.545 287.571 194.807 288.003C192.068 288.484 188.752 288.724 184.86 288.724C182.409 288.724 180.175 288.508 178.157 288.075C176.187 287.643 174.481 286.946 173.04 285.985C171.598 284.976 170.493 283.679 169.724 282.093C168.955 280.507 168.571 278.561 168.571 276.255C168.571 274.044 169.003 272.17 169.868 270.633C170.781 269.095 171.982 267.87 173.472 266.957C174.962 266.044 176.667 265.395 178.589 265.011C180.511 264.578 182.506 264.362 184.572 264.362C185.965 264.362 187.191 264.434 188.248 264.578C189.353 264.675 190.242 264.819 190.914 265.011V264.002C190.914 262.176 190.362 260.71 189.257 259.605C188.152 258.5 186.23 257.947 183.491 257.947C181.665 257.947 179.863 258.092 178.085 258.38C176.307 258.62 174.769 258.98 173.472 259.461L172.103 250.812C172.727 250.62 173.496 250.427 174.409 250.235C175.37 249.995 176.403 249.803 177.508 249.659C178.613 249.466 179.767 249.322 180.968 249.226C182.217 249.082 183.467 249.01 184.716 249.01Z" fill="white"/>
<path d="M262.34 278.273V287.931H228.968V237.982H240.212V278.273H262.34Z" fill="white"/>
<path d="M284.193 280.435C285.25 280.435 286.259 280.411 287.22 280.363C288.181 280.315 288.95 280.243 289.526 280.147V272.002C289.094 271.906 288.445 271.81 287.58 271.714C286.715 271.618 285.923 271.57 285.202 271.57C284.193 271.57 283.232 271.642 282.319 271.786C281.454 271.882 280.685 272.098 280.012 272.435C279.34 272.771 278.811 273.228 278.427 273.804C278.042 274.381 277.85 275.102 277.85 275.966C277.85 277.648 278.403 278.825 279.508 279.498C280.661 280.123 282.223 280.435 284.193 280.435ZM283.328 249.01C286.499 249.01 289.142 249.37 291.256 250.091C293.37 250.812 295.052 251.845 296.302 253.19C297.599 254.536 298.512 256.17 299.04 258.092C299.569 260.014 299.833 262.152 299.833 264.506V286.85C298.296 287.186 296.157 287.571 293.419 288.003C290.68 288.484 287.364 288.724 283.472 288.724C281.021 288.724 278.787 288.508 276.769 288.075C274.799 287.643 273.093 286.946 271.652 285.985C270.21 284.976 269.105 283.679 268.336 282.093C267.567 280.507 267.183 278.561 267.183 276.255C267.183 274.044 267.615 272.17 268.48 270.633C269.393 269.095 270.594 267.87 272.084 266.957C273.574 266.044 275.279 265.395 277.201 265.011C279.123 264.578 281.118 264.362 283.184 264.362C284.577 264.362 285.802 264.434 286.86 264.578C287.965 264.675 288.854 264.819 289.526 265.011V264.002C289.526 262.176 288.974 260.71 287.869 259.605C286.763 258.5 284.841 257.947 282.103 257.947C280.277 257.947 278.475 258.092 276.697 258.38C274.919 258.62 273.381 258.98 272.084 259.461L270.715 250.812C271.339 250.62 272.108 250.427 273.021 250.235C273.982 249.995 275.015 249.803 276.12 249.659C277.225 249.466 278.379 249.322 279.58 249.226C280.829 249.082 282.079 249.01 283.328 249.01Z" fill="white"/>
<path d="M333.834 268.687C333.834 261.767 331.287 258.308 326.194 258.308C325.089 258.308 323.984 258.452 322.879 258.74C321.821 259.029 320.957 259.389 320.284 259.821V279.354C320.812 279.45 321.485 279.546 322.302 279.642C323.119 279.69 324.008 279.714 324.969 279.714C327.9 279.714 330.11 278.705 331.6 276.687C333.089 274.669 333.834 272.002 333.834 268.687ZM344.79 268.975C344.79 272.002 344.333 274.741 343.42 277.192C342.555 279.642 341.282 281.733 339.6 283.462C337.918 285.192 335.852 286.538 333.402 287.499C330.951 288.412 328.164 288.868 325.041 288.868C323.743 288.868 322.374 288.796 320.932 288.652C319.539 288.556 318.146 288.412 316.752 288.219C315.407 288.027 314.109 287.811 312.86 287.571C311.611 287.282 310.505 286.994 309.544 286.706V233.73L320.284 232V250.884C321.485 250.355 322.734 249.947 324.032 249.659C325.329 249.37 326.723 249.226 328.212 249.226C330.903 249.226 333.282 249.707 335.348 250.668C337.414 251.581 339.144 252.902 340.537 254.632C341.931 256.362 342.988 258.452 343.709 260.903C344.429 263.305 344.79 265.996 344.79 268.975Z" fill="white"/>
<path d="M363.927 280.219C365.897 280.219 367.291 280.027 368.107 279.642C368.924 279.258 369.333 278.513 369.333 277.408C369.333 276.543 368.804 275.798 367.747 275.174C366.69 274.501 365.08 273.756 362.918 272.939C361.236 272.315 359.699 271.666 358.305 270.993C356.96 270.32 355.806 269.528 354.845 268.615C353.884 267.654 353.14 266.524 352.611 265.227C352.083 263.93 351.818 262.368 351.818 260.542C351.818 256.986 353.14 254.175 355.782 252.109C358.425 250.043 362.053 249.01 366.666 249.01C368.972 249.01 371.183 249.226 373.297 249.659C375.411 250.043 377.093 250.476 378.342 250.956L376.468 259.317C375.219 258.884 373.849 258.5 372.36 258.164C370.918 257.827 369.285 257.659 367.459 257.659C364.095 257.659 362.413 258.596 362.413 260.47C362.413 260.903 362.486 261.287 362.63 261.623C362.774 261.96 363.062 262.296 363.495 262.632C363.927 262.921 364.504 263.257 365.224 263.641C365.993 263.978 366.954 264.362 368.107 264.795C370.462 265.66 372.408 266.524 373.946 267.389C375.483 268.206 376.685 269.119 377.549 270.128C378.462 271.089 379.087 272.17 379.423 273.372C379.808 274.573 380 275.966 380 277.552C380 281.3 378.582 284.135 375.747 286.057C372.961 287.979 368.996 288.94 363.855 288.94C360.491 288.94 357.68 288.652 355.422 288.075C353.212 287.499 351.674 287.018 350.809 286.634L352.611 277.912C354.437 278.633 356.311 279.21 358.233 279.642C360.155 280.027 362.053 280.219 363.927 280.219Z" fill="white"/>
</svg>
