<svg width="600" height="108" viewBox="0 0 600 108" fill="none" xmlns="http://www.w3.org/2000/svg">
<path d="M138.35 26.8817H152.009V87.563H138.35V26.8817Z" fill="white"/>
<path d="M162.99 64.5339C162.99 61.2065 163.516 58.0834 164.567 55.1646C165.676 52.1875 167.252 49.619 169.295 47.4591C171.338 45.2408 173.819 43.4895 176.738 42.2053C179.657 40.921 182.984 40.2789 186.72 40.2789C189.172 40.2789 191.419 40.5124 193.462 40.9794C195.505 41.388 197.49 42.001 199.417 42.8182L196.702 53.2382C195.476 52.7712 194.134 52.3626 192.674 52.0124C191.215 51.6621 189.58 51.487 187.771 51.487C183.918 51.487 181.028 52.6837 179.102 55.0771C177.234 57.4705 176.3 60.6227 176.3 64.5339C176.3 68.6785 177.176 71.8892 178.927 74.1658C180.737 76.4425 183.86 77.5808 188.296 77.5808C189.872 77.5808 191.565 77.4348 193.375 77.143C195.184 76.8511 196.848 76.3841 198.366 75.7419L200.205 86.4246C198.687 87.0668 196.79 87.6213 194.513 88.0883C192.236 88.5553 189.726 88.7889 186.983 88.7889C182.78 88.7889 179.16 88.1759 176.125 86.95C173.089 85.6658 170.579 83.9437 168.594 81.7838C166.668 79.6239 165.238 77.0846 164.304 74.1658C163.428 71.1887 162.99 67.978 162.99 64.5339Z" fill="white"/>
<path d="M204.549 64.8841C204.549 60.7978 205.162 57.237 206.387 54.2014C207.672 51.1075 209.335 48.539 211.379 46.4959C213.422 44.4527 215.757 42.9058 218.384 41.855C221.069 40.8043 223.813 40.2789 226.615 40.2789C233.153 40.2789 238.319 42.2929 242.113 46.3208C245.908 50.2903 247.805 56.157 247.805 63.9209C247.805 64.6798 247.776 65.5263 247.717 66.4603C247.659 67.3359 247.601 68.124 247.542 68.8245H217.946C218.238 71.5097 219.493 73.6404 221.711 75.2166C223.929 76.7927 226.906 77.5808 230.642 77.5808C233.036 77.5808 235.371 77.3765 237.648 76.9678C239.983 76.5008 241.88 75.9463 243.339 75.3041L245.09 85.8993C244.39 86.2495 243.456 86.5998 242.288 86.95C241.121 87.3003 239.807 87.5922 238.348 87.8257C236.947 88.1175 235.429 88.351 233.795 88.5262C232.16 88.7013 230.526 88.7889 228.891 88.7889C224.747 88.7889 221.127 88.1759 218.033 86.95C214.998 85.7241 212.459 84.0604 210.415 81.9589C208.431 79.799 206.942 77.2597 205.95 74.3409C205.016 71.4222 204.549 68.2699 204.549 64.8841ZM235.196 59.893C235.137 58.7839 234.933 57.704 234.583 56.6532C234.291 55.6024 233.795 54.6684 233.094 53.8512C232.452 53.0339 231.606 52.3626 230.555 51.8372C229.563 51.3118 228.307 51.0492 226.79 51.0492C225.33 51.0492 224.075 51.3118 223.024 51.8372C221.974 52.3042 221.098 52.9464 220.398 53.7636C219.697 54.5809 219.143 55.5441 218.734 56.6532C218.384 57.704 218.121 58.7839 217.946 59.893H235.196Z" fill="white"/>
<path d="M257.435 30.034L270.482 27.9325V41.5048H286.156V52.3626H270.482V68.5618C270.482 71.3054 270.949 73.4945 271.883 75.129C272.876 76.7635 274.831 77.5808 277.75 77.5808C279.151 77.5808 280.581 77.464 282.041 77.2305C283.558 76.9386 284.93 76.5592 286.156 76.0922L287.995 86.2495C286.419 86.8916 284.668 87.4462 282.741 87.9132C280.815 88.3802 278.451 88.6137 275.649 88.6137C272.088 88.6137 269.14 88.1467 266.805 87.2127C264.47 86.2203 262.602 84.8777 261.201 83.1848C259.8 81.4335 258.807 79.332 258.223 76.8803C257.698 74.4285 257.435 71.714 257.435 68.7369V30.034Z" fill="white"/>
<path d="M292.881 64.8841C292.881 60.7978 293.494 57.237 294.72 54.2014C296.004 51.1075 297.668 48.539 299.711 46.4959C301.754 44.4527 304.089 42.9058 306.716 41.855C309.402 40.8043 312.145 40.2789 314.947 40.2789C321.485 40.2789 326.651 42.2929 330.446 46.3208C334.24 50.2903 336.137 56.157 336.137 63.9209C336.137 64.6798 336.108 65.5263 336.05 66.4603C335.992 67.3359 335.933 68.124 335.875 68.8245H306.278C306.57 71.5097 307.825 73.6404 310.044 75.2166C312.262 76.7927 315.239 77.5808 318.975 77.5808C321.369 77.5808 323.704 77.3765 325.98 76.9678C328.315 76.5008 330.212 75.9463 331.672 75.3041L333.423 85.8993C332.723 86.2495 331.789 86.5998 330.621 86.95C329.454 87.3003 328.14 87.5922 326.681 87.8257C325.28 88.1175 323.762 88.351 322.127 88.5262C320.493 88.7013 318.858 88.7889 317.224 88.7889C313.079 88.7889 309.46 88.1759 306.366 86.95C303.331 85.7241 300.791 84.0604 298.748 81.9589C296.763 79.799 295.275 77.2597 294.282 74.3409C293.348 71.4222 292.881 68.2699 292.881 64.8841ZM323.528 59.893C323.47 58.7839 323.266 57.704 322.915 56.6532C322.624 55.6024 322.127 54.6684 321.427 53.8512C320.785 53.0339 319.938 52.3626 318.888 51.8372C317.895 51.3118 316.64 51.0492 315.122 51.0492C313.663 51.0492 312.408 51.3118 311.357 51.8372C310.306 52.3042 309.431 52.9464 308.73 53.7636C308.03 54.5809 307.475 55.5441 307.067 56.6532C306.716 57.704 306.454 58.7839 306.278 59.893H323.528Z" fill="white"/>
<path d="M363.806 78.4564C365.09 78.4564 366.316 78.4272 367.484 78.3688C368.651 78.3105 369.585 78.2229 370.286 78.1062V68.2115C369.76 68.0948 368.972 67.978 367.922 67.8613C366.871 67.7445 365.908 67.6861 365.032 67.6861C363.806 67.6861 362.639 67.7737 361.529 67.9488C360.479 68.0656 359.545 68.3283 358.727 68.7369C357.91 69.1455 357.268 69.7001 356.801 70.4006C356.334 71.1011 356.1 71.9767 356.1 73.0275C356.1 75.0706 356.772 76.5008 358.114 77.3181C359.515 78.077 361.413 78.4564 363.806 78.4564ZM362.755 40.2789C366.608 40.2789 369.819 40.7167 372.387 41.5923C374.956 42.468 376.999 43.723 378.517 45.3576C380.093 46.9921 381.202 48.9768 381.844 51.3118C382.486 53.6469 382.807 56.2446 382.807 59.105V86.2495C380.939 86.6581 378.342 87.1251 375.014 87.6505C371.687 88.2343 367.659 88.5262 362.93 88.5262C359.953 88.5262 357.239 88.2635 354.787 87.7381C352.394 87.2127 350.321 86.3663 348.57 85.1988C346.819 83.9729 345.476 82.3967 344.542 80.4704C343.608 78.544 343.141 76.1798 343.141 73.3777C343.141 70.6925 343.667 68.4158 344.717 66.5478C345.826 64.6798 347.286 63.1912 349.095 62.0821C350.905 60.973 352.977 60.1849 355.312 59.7179C357.647 59.1925 360.07 58.9298 362.58 58.9298C364.273 58.9298 365.762 59.0174 367.046 59.1925C368.389 59.3093 369.468 59.4844 370.286 59.7179V58.492C370.286 56.2738 369.614 54.4933 368.272 53.1507C366.929 51.808 364.594 51.1367 361.267 51.1367C359.048 51.1367 356.859 51.3118 354.7 51.6621C352.54 51.954 350.672 52.3918 349.095 52.9755L347.432 42.468C348.191 42.2345 349.125 42.001 350.234 41.7675C351.401 41.4756 352.656 41.2421 353.999 41.067C355.342 40.8335 356.743 40.6583 358.202 40.5416C359.72 40.3665 361.238 40.2789 362.755 40.2789Z" fill="white"/>
<path d="M457.058 75.8295V87.563H416.516V26.8817H430.176V75.8295H457.058Z" fill="white"/>
<path d="M483.607 78.4564C484.891 78.4564 486.117 78.4272 487.284 78.3688C488.452 78.3105 489.386 78.2229 490.086 78.1062V68.2115C489.561 68.0948 488.773 67.978 487.722 67.8613C486.671 67.7445 485.708 67.6861 484.833 67.6861C483.607 67.6861 482.439 67.7737 481.33 67.9488C480.279 68.0656 479.345 68.3283 478.528 68.7369C477.711 69.1455 477.069 69.7001 476.602 70.4006C476.135 71.1011 475.901 71.9767 475.901 73.0275C475.901 75.0706 476.572 76.5008 477.915 77.3181C479.316 78.077 481.213 78.4564 483.607 78.4564ZM482.556 40.2789C486.409 40.2789 489.619 40.7167 492.188 41.5923C494.756 42.468 496.8 43.723 498.317 45.3576C499.893 46.9921 501.003 48.9768 501.645 51.3118C502.287 53.6469 502.608 56.2446 502.608 59.105V86.2495C500.74 86.6581 498.142 87.1251 494.815 87.6505C491.487 88.2343 487.459 88.5262 482.731 88.5262C479.754 88.5262 477.039 88.2635 474.588 87.7381C472.194 87.2127 470.122 86.3663 468.371 85.1988C466.619 83.9729 465.277 82.3967 464.343 80.4704C463.409 78.544 462.942 76.1798 462.942 73.3777C462.942 70.6925 463.467 68.4158 464.518 66.5478C465.627 64.6798 467.086 63.1912 468.896 62.0821C470.706 60.973 472.778 60.1849 475.113 59.7179C477.448 59.1925 479.871 58.9298 482.381 58.9298C484.074 58.9298 485.562 59.0174 486.847 59.1925C488.189 59.3093 489.269 59.4844 490.086 59.7179V58.492C490.086 56.2738 489.415 54.4933 488.072 53.1507C486.73 51.808 484.395 51.1367 481.067 51.1367C478.849 51.1367 476.66 51.3118 474.5 51.6621C472.34 51.954 470.472 52.3918 468.896 52.9755L467.232 42.468C467.991 42.2345 468.925 42.001 470.034 41.7675C471.202 41.4756 472.457 41.2421 473.8 41.067C475.142 40.8335 476.543 40.6583 478.003 40.5416C479.52 40.3665 481.038 40.2789 482.556 40.2789Z" fill="white"/>
<path d="M543.914 64.1836C543.914 55.7776 540.821 51.5745 534.633 51.5745C533.29 51.5745 531.947 51.7497 530.605 52.0999C529.321 52.4502 528.27 52.888 527.453 53.4134V77.143C528.095 77.2597 528.912 77.3765 529.904 77.4932C530.897 77.5516 531.977 77.5808 533.144 77.5808C536.705 77.5808 539.39 76.3549 541.2 73.9031C543.01 71.4514 543.914 68.2115 543.914 64.1836ZM557.224 64.5339C557.224 68.2115 556.669 71.5389 555.56 74.5161C554.51 77.4932 552.963 80.0325 550.919 82.1341C548.876 84.2356 546.366 85.8701 543.389 87.0376C540.412 88.1467 537.026 88.7013 533.232 88.7013C531.656 88.7013 529.992 88.6137 528.241 88.4386C526.548 88.3218 524.855 88.1467 523.162 87.9132C521.527 87.6797 519.951 87.417 518.434 87.1251C516.916 86.7749 515.573 86.4246 514.406 86.0744V21.7155L527.453 19.614V42.5555C528.912 41.9134 530.43 41.4172 532.006 41.067C533.582 40.7167 535.275 40.5416 537.084 40.5416C540.353 40.5416 543.243 41.1253 545.753 42.2929C548.263 43.402 550.365 45.0073 552.058 47.1088C553.751 49.2103 555.035 51.7497 555.911 54.7268C556.786 57.6456 557.224 60.9146 557.224 64.5339Z" fill="white"/>
<path d="M580.473 78.1937C582.867 78.1937 584.56 77.9602 585.552 77.4932C586.544 77.0262 587.041 76.1214 587.041 74.7788C587.041 73.728 586.398 72.8232 585.114 72.0643C583.83 71.247 581.874 70.3422 579.247 69.3498C577.204 68.591 575.336 67.8029 573.643 66.9856C572.009 66.1684 570.608 65.2052 569.44 64.0961C568.273 62.9286 567.368 61.5567 566.726 59.9806C566.084 58.4045 565.763 56.5073 565.763 54.289C565.763 49.9692 567.368 46.5543 570.579 44.0441C573.789 41.534 578.197 40.2789 583.801 40.2789C586.603 40.2789 589.288 40.5416 591.857 41.067C594.425 41.534 596.468 42.0594 597.986 42.6431L595.709 52.8004C594.192 52.275 592.528 51.808 590.718 51.3994C588.967 50.9908 586.982 50.7865 584.764 50.7865C580.678 50.7865 578.635 51.9248 578.635 54.2014C578.635 54.7268 578.722 55.1938 578.897 55.6024C579.072 56.0111 579.423 56.4197 579.948 56.8283C580.473 57.1786 581.174 57.5872 582.049 58.0542C582.984 58.4628 584.151 58.9298 585.552 59.4552C588.412 60.506 590.777 61.5567 592.645 62.6075C594.513 63.5999 595.972 64.709 597.023 65.9349C598.132 67.1024 598.891 68.4158 599.299 69.8752C599.766 71.3346 600 73.0275 600 74.9539C600 79.5072 598.278 82.9513 594.834 85.2863C591.448 87.6213 586.632 88.7889 580.386 88.7889C576.3 88.7889 572.885 88.4386 570.141 87.7381C567.456 87.0376 565.588 86.4538 564.537 85.9868L566.726 75.3917C568.944 76.2673 571.221 76.9678 573.556 77.4932C575.891 77.9602 578.197 78.1937 580.473 78.1937Z" fill="white"/>
<path d="M53.9699 107.94C83.7766 107.94 107.94 83.7766 107.94 53.9699C107.94 24.1631 83.7766 0 53.9699 0C24.1631 0 0 24.1631 0 53.9699C0 83.7766 24.1631 107.94 53.9699 107.94Z" fill="white"/>
<path fill-rule="evenodd" clip-rule="evenodd" d="M51.6061 60.9177H70.3593C71.909 60.9177 73.1932 62.1322 73.1932 63.7516V82.5048C73.1932 84.0545 71.9787 85.3387 70.3593 85.3387H51.6061C50.0564 85.3387 48.7722 84.1242 48.7722 82.5048V63.6167C48.7722 62.1322 49.9214 60.9177 51.6061 60.9177Z" fill="#00C7F4"/>
<path fill-rule="evenodd" clip-rule="evenodd" d="M60.8479 48.6375L72.179 33.5932C73.189 32.3787 74.878 32.0435 76.0925 33.0534L91.1369 44.3845C92.3514 45.3945 92.6866 47.0835 91.6766 48.298L80.3455 63.2074C79.3356 64.4219 77.6466 64.7571 76.432 63.7472L61.3877 52.416C60.1732 51.5411 59.9729 49.852 60.8479 48.6375Z" fill="#00C7F4"/>
<path fill-rule="evenodd" clip-rule="evenodd" d="M29.2095 57.0041L46.0082 65.5058C47.423 66.1805 47.9628 67.9348 47.2227 69.2146L38.7211 86.0133C38.0464 87.428 36.2921 87.9678 35.0122 87.2278L18.2136 78.7262C16.7988 78.0514 16.259 76.2971 16.9991 75.0173L25.5007 58.2187C26.1754 56.7995 27.7948 56.2598 29.2095 57.0041Z" fill="#00C7F4"/>
</svg>
