<svg width="120" height="660" viewBox="0 0 120 660" fill="none" xmlns="http://www.w3.org/2000/svg">
<rect x="66" y="30" width="600" height="12" transform="rotate(90 66 30)" fill="url(#paint0_linear_1255_5207)"/>
<circle cx="60" cy="60" r="60" fill="black"/>
<circle cx="60" cy="240" r="60" fill="black"/>
<circle cx="60" cy="420" r="60" fill="black"/>
<circle cx="60" cy="600" r="60" fill="black"/>
<path d="M16.9219 92L20.9219 80.8H23.9619L27.9619 92H25.6419L24.7939 89.6H20.0899L19.2419 92H16.9219ZM20.7619 87.68H24.1219L22.6019 83.2H22.2819L20.7619 87.68ZM34.5928 89.696C34.9768 89.2693 35.1688 88.6773 35.1688 87.92C35.1688 87.1627 34.9768 86.576 34.5928 86.16C34.2088 85.7333 33.7074 85.52 33.0888 85.52C32.4701 85.52 31.9688 85.7333 31.5848 86.16C31.2008 86.576 31.0088 87.1627 31.0088 87.92C31.0088 88.6773 31.2008 89.2693 31.5848 89.696C31.9688 90.112 32.4701 90.32 33.0888 90.32C33.7074 90.32 34.2088 90.112 34.5928 89.696ZM29.0088 95.2V83.84H30.8488L31.0088 84.72H31.0888C31.2381 84.528 31.4248 84.3573 31.6488 84.208C32.1821 83.856 32.7688 83.68 33.4088 83.68C34.4754 83.68 35.3661 84.0747 36.0808 84.864C36.8061 85.6427 37.1688 86.6613 37.1688 87.92C37.1688 89.1787 36.8061 90.2027 36.0808 90.992C35.3661 91.7707 34.4754 92.16 33.4088 92.16C32.7048 92.16 32.1074 92 31.6168 91.68C31.4034 91.5307 31.2274 91.3707 31.0888 91.2H31.0088V95.2H29.0088ZM44.4365 89.696C44.8205 89.2693 45.0125 88.6773 45.0125 87.92C45.0125 87.1627 44.8205 86.576 44.4365 86.16C44.0525 85.7333 43.5512 85.52 42.9325 85.52C42.3138 85.52 41.8125 85.7333 41.4285 86.16C41.0445 86.576 40.8525 87.1627 40.8525 87.92C40.8525 88.6773 41.0445 89.2693 41.4285 89.696C41.8125 90.112 42.3138 90.32 42.9325 90.32C43.5512 90.32 44.0525 90.112 44.4365 89.696ZM38.8525 95.2V83.84H40.6925L40.8525 84.72H40.9325C41.0818 84.528 41.2685 84.3573 41.4925 84.208C42.0258 83.856 42.6125 83.68 43.2525 83.68C44.3192 83.68 45.2098 84.0747 45.9245 84.864C46.6498 85.6427 47.0125 86.6613 47.0125 87.92C47.0125 89.1787 46.6498 90.2027 45.9245 90.992C45.2098 91.7707 44.3192 92.16 43.2525 92.16C42.5485 92.16 41.9512 92 41.4605 91.68C41.2472 91.5307 41.0712 91.3707 40.9325 91.2H40.8525V95.2H38.8525ZM48.7763 92V80.8H50.7763V92H48.7763ZM52.9306 92V83.84H54.9306V92H52.9306ZM52.8506 82.56V80.64H55.0106V82.56H52.8506ZM62.6088 88.96H64.6088C64.5341 89.3227 64.4114 89.6747 64.2408 90.016C64.0808 90.3573 63.8568 90.6987 63.5688 91.04C63.2808 91.3707 62.8914 91.6427 62.4008 91.856C61.9208 92.0587 61.3768 92.16 60.7688 92.16C59.5634 92.16 58.5661 91.7653 57.7768 90.976C56.9981 90.176 56.6088 89.1573 56.6088 87.92C56.6088 86.6827 56.9981 85.6693 57.7768 84.88C58.5661 84.08 59.5634 83.68 60.7688 83.68C61.3768 83.68 61.9208 83.7867 62.4008 84C62.8914 84.2027 63.2808 84.4693 63.5688 84.8C63.8568 85.1307 64.0808 85.4613 64.2408 85.792C64.4114 86.1227 64.5341 86.4587 64.6088 86.8H62.6088C62.2888 85.9467 61.6754 85.52 60.7688 85.52C60.1608 85.52 59.6488 85.744 59.2328 86.192C58.8168 86.64 58.6088 87.216 58.6088 87.92C58.6088 88.624 58.8168 89.2 59.2328 89.648C59.6488 90.096 60.1608 90.32 60.7688 90.32C61.7074 90.32 62.3208 89.8667 62.6088 88.96ZM71.3319 92L71.1719 91.2H71.0919C70.9532 91.3707 70.7665 91.5307 70.5319 91.68C70.0199 92 69.4332 92.16 68.7719 92.16C67.8759 92.16 67.1559 91.92 66.6119 91.44C66.0785 90.96 65.8119 90.3733 65.8119 89.68C65.8119 88.848 66.0999 88.1867 66.6759 87.696C67.2519 87.2053 68.0839 86.96 69.1719 86.96H71.0119V86.8C71.0119 86.3413 70.8785 85.9733 70.6119 85.696C70.3559 85.4187 70.0092 85.28 69.5719 85.28C69.1559 85.28 68.8199 85.3867 68.5639 85.6C68.3185 85.8133 68.1745 86.0533 68.1319 86.32H66.1319C66.2279 85.584 66.5692 84.96 67.1559 84.448C67.7425 83.936 68.5479 83.68 69.5719 83.68C70.5959 83.68 71.4225 83.9787 72.0519 84.576C72.6919 85.1733 73.0119 85.9147 73.0119 86.8V92H71.3319ZM71.0119 88.72V88.48H69.3319C68.3185 88.48 67.8119 88.8267 67.8119 89.52C67.8119 89.84 67.9239 90.096 68.1479 90.288C68.3719 90.4693 68.6865 90.56 69.0919 90.56C69.6999 90.56 70.1692 90.4 70.4999 90.08C70.8412 89.7493 71.0119 89.296 71.0119 88.72ZM75.3363 90.08V85.76H74.0563V83.84H75.3363V81.52H77.3363V83.84H79.1763V85.76H77.3363V89.68C77.3363 90.0533 77.5229 90.24 77.8963 90.24H79.1763V92H77.4163C76.7443 92 76.2269 91.8347 75.8643 91.504C75.5123 91.1627 75.3363 90.688 75.3363 90.08ZM80.9306 92V83.84H82.9306V92H80.9306ZM80.8506 82.56V80.64H83.0106V82.56H80.8506ZM87.2328 89.648C87.6488 90.096 88.1608 90.32 88.7688 90.32C89.3768 90.32 89.8888 90.096 90.3048 89.648C90.7208 89.2 90.9288 88.624 90.9288 87.92C90.9288 87.216 90.7208 86.64 90.3048 86.192C89.8888 85.744 89.3768 85.52 88.7688 85.52C88.1608 85.52 87.6488 85.744 87.2328 86.192C86.8168 86.64 86.6088 87.216 86.6088 87.92C86.6088 88.624 86.8168 89.2 87.2328 89.648ZM85.7768 84.88C86.5661 84.08 87.5634 83.68 88.7688 83.68C89.9741 83.68 90.9661 84.08 91.7448 84.88C92.5341 85.6693 92.9288 86.6827 92.9288 87.92C92.9288 89.1573 92.5341 90.176 91.7448 90.976C90.9661 91.7653 89.9741 92.16 88.7688 92.16C87.5634 92.16 86.5661 91.7653 85.7768 90.976C84.9981 90.176 84.6088 89.1573 84.6088 87.92C84.6088 86.6827 84.9981 85.6693 85.7768 84.88ZM94.6025 92V83.84H96.4425L96.6025 84.64H96.6825C96.8105 84.48 96.9918 84.32 97.2265 84.16C97.7172 83.84 98.2825 83.68 98.9225 83.68C99.8505 83.68 100.613 84 101.211 84.64C101.819 85.2693 102.123 86.096 102.123 87.12V92H100.123V87.28C100.123 86.7573 99.9572 86.336 99.6265 86.016C99.3065 85.6853 98.8852 85.52 98.3625 85.52C97.8398 85.52 97.4132 85.6853 97.0825 86.016C96.7625 86.336 96.6025 86.7573 96.6025 87.28V92H94.6025Z" fill="white"/>
<path d="M50.7786 32.68C54.9706 32.68 58.2826 34.088 60.7146 36.904C63.1466 39.688 64.3626 44.12 64.3626 50.2C64.3626 56.28 63.1466 60.712 60.7146 63.496C58.2826 66.28 54.9706 67.672 50.7786 67.672C46.5866 67.672 43.2746 66.28 40.8426 63.496C38.4426 60.712 37.2426 56.28 37.2426 50.2C37.2426 44.12 38.4426 39.688 40.8426 36.904C43.2746 34.088 46.5866 32.68 50.7786 32.68ZM50.7786 62.44C52.7626 62.44 54.3466 61.592 55.5306 59.896C56.7146 58.168 57.3066 54.936 57.3066 50.2C57.3066 45.432 56.6986 42.2 55.4826 40.504C54.2986 38.776 52.7306 37.912 50.7786 37.912C48.8266 37.912 47.2586 38.776 46.0746 40.504C44.8906 42.2 44.2986 45.432 44.2986 50.2C44.2986 54.968 44.8906 58.2 46.0746 59.896C47.2586 61.592 48.8266 62.44 50.7786 62.44ZM81.4704 67H74.7024V43.24H67.9344V38.632H68.9424C70.9264 38.632 72.4784 38.136 73.5984 37.144C74.7184 36.152 75.4384 34.904 75.7584 33.4H81.4704V67Z" fill="white"/>
<path d="M22.1225 268.48H24.2025C24.2025 268.981 24.4265 269.403 24.8745 269.744C25.3332 270.075 25.9358 270.24 26.6825 270.24C27.4398 270.24 27.9998 270.112 28.3625 269.856C28.7358 269.589 28.9225 269.237 28.9225 268.8C28.9225 268.053 28.3092 267.573 27.0825 267.36L25.1625 267.04C23.2958 266.731 22.3625 265.717 22.3625 264C22.3625 263.04 22.7358 262.24 23.4825 261.6C24.2292 260.96 25.2425 260.64 26.5225 260.64C27.9092 260.64 28.9758 260.981 29.7225 261.664C30.4692 262.347 30.8425 263.232 30.8425 264.32H28.7625C28.7625 263.819 28.5652 263.403 28.1705 263.072C27.7758 262.731 27.2265 262.56 26.5225 262.56C25.8292 262.56 25.3065 262.693 24.9545 262.96C24.6132 263.216 24.4425 263.563 24.4425 264C24.4425 264.341 24.5545 264.619 24.7785 264.832C25.0025 265.035 25.3972 265.184 25.9625 265.28L27.7225 265.6C28.8638 265.803 29.6958 266.16 30.2185 266.672C30.7412 267.173 31.0025 267.883 31.0025 268.8C31.0025 269.803 30.6292 270.613 29.8825 271.232C29.1358 271.851 28.0692 272.16 26.6825 272.16C25.2745 272.16 24.1598 271.819 23.3385 271.136C22.5278 270.443 22.1225 269.557 22.1225 268.48ZM38.3588 268.96H40.3588C40.2841 269.323 40.1614 269.675 39.9908 270.016C39.8308 270.357 39.6068 270.699 39.3188 271.04C39.0308 271.371 38.6414 271.643 38.1508 271.856C37.6708 272.059 37.1268 272.16 36.5188 272.16C35.3134 272.16 34.3161 271.765 33.5268 270.976C32.7481 270.176 32.3588 269.157 32.3588 267.92C32.3588 266.683 32.7481 265.669 33.5268 264.88C34.3161 264.08 35.3134 263.68 36.5188 263.68C37.1268 263.68 37.6708 263.787 38.1508 264C38.6414 264.203 39.0308 264.469 39.3188 264.8C39.6068 265.131 39.8308 265.461 39.9908 265.792C40.1614 266.123 40.2841 266.459 40.3588 266.8H38.3588C38.0388 265.947 37.4254 265.52 36.5188 265.52C35.9108 265.52 35.3988 265.744 34.9828 266.192C34.5668 266.64 34.3588 267.216 34.3588 267.92C34.3588 268.624 34.5668 269.2 34.9828 269.648C35.3988 270.096 35.9108 270.32 36.5188 270.32C37.4574 270.32 38.0708 269.867 38.3588 268.96ZM41.9619 272V263.84H43.6419L43.8019 264.56H43.8819C43.9779 264.432 44.0952 264.315 44.2339 264.208C44.5645 263.963 44.9272 263.84 45.3219 263.84H46.9219V265.76H45.4819C44.4685 265.76 43.9619 266.267 43.9619 267.28V272H41.9619ZM49.4056 267.2H53.5656C53.4696 266.656 53.2456 266.213 52.8936 265.872C52.5523 265.531 52.1096 265.36 51.5656 265.36C50.9896 265.36 50.515 265.531 50.1416 265.872C49.779 266.203 49.5336 266.645 49.4056 267.2ZM53.2456 269.6H55.3256C55.2723 269.803 55.1656 270.032 55.0056 270.288C54.8563 270.533 54.6376 270.811 54.3496 271.12C54.0723 271.419 53.6883 271.669 53.1976 271.872C52.707 272.064 52.163 272.16 51.5656 272.16C50.3603 272.16 49.363 271.765 48.5736 270.976C47.795 270.176 47.4056 269.157 47.4056 267.92C47.4056 266.683 47.795 265.669 48.5736 264.88C49.363 264.08 50.3603 263.68 51.5656 263.68C52.6856 263.68 53.6296 264.075 54.3976 264.864C55.1763 265.643 55.5656 266.608 55.5656 267.76C55.5656 267.856 55.5496 268.048 55.5176 268.336L55.4856 268.56H49.4056C49.491 269.136 49.731 269.6 50.1256 269.952C50.5203 270.304 51.0003 270.48 51.5656 270.48C51.9923 270.48 52.355 270.389 52.6536 270.208C52.9523 270.016 53.1496 269.813 53.2456 269.6ZM58.8431 267.2H63.0031C62.9071 266.656 62.6831 266.213 62.3311 265.872C61.9898 265.531 61.5471 265.36 61.0031 265.36C60.4271 265.36 59.9525 265.531 59.5791 265.872C59.2165 266.203 58.9711 266.645 58.8431 267.2ZM62.6831 269.6H64.7631C64.7098 269.803 64.6031 270.032 64.4431 270.288C64.2938 270.533 64.0751 270.811 63.7871 271.12C63.5098 271.419 63.1258 271.669 62.6351 271.872C62.1445 272.064 61.6005 272.16 61.0031 272.16C59.7978 272.16 58.8005 271.765 58.0111 270.976C57.2325 270.176 56.8431 269.157 56.8431 267.92C56.8431 266.683 57.2325 265.669 58.0111 264.88C58.8005 264.08 59.7978 263.68 61.0031 263.68C62.1231 263.68 63.0671 264.075 63.8351 264.864C64.6138 265.643 65.0031 266.608 65.0031 267.76C65.0031 267.856 64.9871 268.048 64.9551 268.336L64.9231 268.56H58.8431C58.9285 269.136 59.1685 269.6 59.5631 269.952C59.9578 270.304 60.4378 270.48 61.0031 270.48C61.4298 270.48 61.7925 270.389 62.0911 270.208C62.3898 270.016 62.5871 269.813 62.6831 269.6ZM66.6806 272V263.84H68.5206L68.6806 264.64H68.7606C68.8886 264.48 69.07 264.32 69.3046 264.16C69.7953 263.84 70.3606 263.68 71.0006 263.68C71.9286 263.68 72.6913 264 73.2886 264.64C73.8966 265.269 74.2006 266.096 74.2006 267.12V272H72.2006V267.28C72.2006 266.757 72.0353 266.336 71.7046 266.016C71.3846 265.685 70.9633 265.52 70.4406 265.52C69.918 265.52 69.4913 265.685 69.1606 266.016C68.8406 266.336 68.6806 266.757 68.6806 267.28V272H66.6806ZM76.1963 272V263.84H78.1963V272H76.1963ZM76.1163 262.56V260.64H78.2763V262.56H76.1163ZM80.2744 272V263.84H82.1144L82.2744 264.64H82.3544C82.4824 264.48 82.6637 264.32 82.8984 264.16C83.389 263.84 83.9544 263.68 84.5944 263.68C85.5224 263.68 86.285 264 86.8824 264.64C87.4904 265.269 87.7944 266.096 87.7944 267.12V272H85.7944V267.28C85.7944 266.757 85.629 266.336 85.2984 266.016C84.9784 265.685 84.557 265.52 84.0344 265.52C83.5117 265.52 83.085 265.685 82.7544 266.016C82.4344 266.336 82.2744 266.757 82.2744 267.28V272H80.2744ZM89.63 272.4H91.71C91.7527 272.571 91.822 272.736 91.918 272.896C92.014 273.056 92.1953 273.211 92.462 273.36C92.7393 273.52 93.0753 273.6 93.47 273.6C94.046 273.6 94.51 273.435 94.862 273.104C95.214 272.773 95.39 272.325 95.39 271.76V270.64H95.31C95.182 270.789 95.0007 270.939 94.766 271.088C94.3287 271.376 93.7633 271.52 93.07 271.52C92.014 271.52 91.134 271.157 90.43 270.432C89.7367 269.696 89.39 268.752 89.39 267.6C89.39 266.448 89.7367 265.509 90.43 264.784C91.134 264.048 92.014 263.68 93.07 263.68C93.7313 263.68 94.318 263.84 94.83 264.16C95.0647 264.309 95.2513 264.469 95.39 264.64H95.47L95.63 263.84H97.39V271.776C97.39 272.853 97.0327 273.717 96.318 274.368C95.614 275.029 94.6647 275.36 93.47 275.36C92.8727 275.36 92.334 275.275 91.854 275.104C91.374 274.933 91.0007 274.725 90.734 274.48C90.4673 274.235 90.2433 273.968 90.062 273.68C89.8913 273.392 89.774 273.141 89.71 272.928C89.6567 272.715 89.63 272.539 89.63 272.4ZM94.814 266.048C94.43 265.643 93.9553 265.44 93.39 265.44C92.8247 265.44 92.35 265.643 91.966 266.048C91.582 266.453 91.39 266.971 91.39 267.6C91.39 268.229 91.582 268.747 91.966 269.152C92.35 269.557 92.8247 269.76 93.39 269.76C93.9553 269.76 94.43 269.557 94.814 269.152C95.198 268.747 95.39 268.229 95.39 267.6C95.39 266.971 95.198 266.453 94.814 266.048Z" fill="white"/>
<path d="M45.9036 212.68C50.0956 212.68 53.4076 214.088 55.8396 216.904C58.2716 219.688 59.4876 224.12 59.4876 230.2C59.4876 236.28 58.2716 240.712 55.8396 243.496C53.4076 246.28 50.0956 247.672 45.9036 247.672C41.7116 247.672 38.3996 246.28 35.9676 243.496C33.5676 240.712 32.3676 236.28 32.3676 230.2C32.3676 224.12 33.5676 219.688 35.9676 216.904C38.3996 214.088 41.7116 212.68 45.9036 212.68ZM45.9036 242.44C47.8876 242.44 49.4716 241.592 50.6556 239.896C51.8396 238.168 52.4316 234.936 52.4316 230.2C52.4316 225.432 51.8236 222.2 50.6076 220.504C49.4236 218.776 47.8556 217.912 45.9036 217.912C43.9516 217.912 42.3836 218.776 41.1996 220.504C40.0156 222.2 39.4236 225.432 39.4236 230.2C39.4236 234.968 40.0156 238.2 41.1996 239.896C42.3836 241.592 43.9516 242.44 45.9036 242.44ZM87.4914 247H63.1074V245.704C63.1074 243.176 63.5394 241.032 64.4034 239.272C65.2674 237.48 66.3394 236.024 67.6194 234.904C68.9314 233.784 70.5154 232.648 72.3714 231.496L76.2114 229.048C77.5554 228.216 78.6274 227.32 79.4274 226.36C80.2594 225.4 80.6754 224.28 80.6754 223C80.6754 221.4 80.2434 220.184 79.3794 219.352C78.5474 218.52 77.3154 218.104 75.6834 218.104C74.0194 218.104 72.6914 218.664 71.6994 219.784C70.7074 220.872 70.1314 222.472 69.9714 224.584L63.2034 224.248C63.3954 221.784 64.0514 219.688 65.1714 217.96C66.3234 216.232 67.8114 214.936 69.6354 214.072C71.4594 213.176 73.4754 212.728 75.6834 212.728C79.1394 212.728 81.9874 213.576 84.2274 215.272C86.4674 216.968 87.5874 219.432 87.5874 222.664C87.5874 224.776 87.1874 226.536 86.3874 227.944C85.5874 229.32 84.6914 230.376 83.6994 231.112C82.7074 231.848 81.1874 232.84 79.1394 234.088L75.8274 236.2C74.3234 237.128 73.1554 238.056 72.3234 238.984C71.5234 239.912 71.0914 240.68 71.0274 241.288H87.4914V247Z" fill="white"/>
<path d="M26.4422 452V440.8H28.5222V452H26.4422ZM30.7666 452V443.84H32.6066L32.7666 444.64H32.8466C32.9746 444.48 33.1559 444.32 33.3906 444.16C33.8812 443.84 34.4466 443.68 35.0866 443.68C36.0146 443.68 36.7772 444 37.3746 444.64C37.9826 445.269 38.2866 446.096 38.2866 447.12V452H36.2866V447.28C36.2866 446.757 36.1212 446.336 35.7906 446.016C35.4706 445.685 35.0492 445.52 34.5266 445.52C34.0039 445.52 33.5772 445.685 33.2466 446.016C32.9266 446.336 32.7666 446.757 32.7666 447.28V452H30.7666ZM40.6097 450.08V445.76H39.3297V443.84H40.6097V441.52H42.6097V443.84H44.4497V445.76H42.6097V449.68C42.6097 450.053 42.7964 450.24 43.1697 450.24H44.4497V452H42.6897C42.0177 452 41.5004 451.835 41.1377 451.504C40.7857 451.163 40.6097 450.688 40.6097 450.08ZM47.4916 447.2H51.6516C51.5556 446.656 51.3316 446.213 50.9796 445.872C50.6382 445.531 50.1956 445.36 49.6516 445.36C49.0756 445.36 48.6009 445.531 48.2276 445.872C47.8649 446.203 47.6196 446.645 47.4916 447.2ZM51.3316 449.6H53.4116C53.3582 449.803 53.2516 450.032 53.0916 450.288C52.9422 450.533 52.7236 450.811 52.4356 451.12C52.1582 451.419 51.7742 451.669 51.2836 451.872C50.7929 452.064 50.2489 452.16 49.6516 452.16C48.4462 452.16 47.4489 451.765 46.6596 450.976C45.8809 450.176 45.4916 449.157 45.4916 447.92C45.4916 446.683 45.8809 445.669 46.6596 444.88C47.4489 444.08 48.4462 443.68 49.6516 443.68C50.7716 443.68 51.7156 444.075 52.4836 444.864C53.2622 445.643 53.6516 446.608 53.6516 447.76C53.6516 447.856 53.6356 448.048 53.6036 448.336L53.5716 448.56H47.4916C47.5769 449.136 47.8169 449.6 48.2116 449.952C48.6062 450.304 49.0862 450.48 49.6516 450.48C50.0782 450.48 50.4409 450.389 50.7396 450.208C51.0382 450.016 51.2356 449.813 51.3316 449.6ZM55.3291 452V443.84H57.0091L57.1691 444.56H57.2491C57.3451 444.432 57.4624 444.315 57.6011 444.208C57.9317 443.963 58.2944 443.84 58.6891 443.84H60.2891V445.76H58.8491C57.8357 445.76 57.3291 446.267 57.3291 447.28V452H55.3291ZM63.2453 452L60.4453 443.84H62.5253L64.4453 449.52H64.7653L66.6853 443.84H68.7653L65.9653 452H63.2453ZM69.7978 452V443.84H71.7978V452H69.7978ZM69.7178 442.56V440.64H71.8778V442.56H69.7178ZM75.4759 447.2H79.6359C79.5399 446.656 79.3159 446.213 78.9639 445.872C78.6226 445.531 78.1799 445.36 77.6359 445.36C77.0599 445.36 76.5853 445.531 76.2119 445.872C75.8493 446.203 75.6039 446.645 75.4759 447.2ZM79.3159 449.6H81.3959C81.3426 449.803 81.2359 450.032 81.0759 450.288C80.9266 450.533 80.7079 450.811 80.4199 451.12C80.1426 451.419 79.7586 451.669 79.2679 451.872C78.7773 452.064 78.2333 452.16 77.6359 452.16C76.4306 452.16 75.4333 451.765 74.6439 450.976C73.8653 450.176 73.4759 449.157 73.4759 447.92C73.4759 446.683 73.8653 445.669 74.6439 444.88C75.4333 444.08 76.4306 443.68 77.6359 443.68C78.7559 443.68 79.6999 444.075 80.4679 444.864C81.2466 445.643 81.6359 446.608 81.6359 447.76C81.6359 447.856 81.6199 448.048 81.5879 448.336L81.5559 448.56H75.4759C75.5613 449.136 75.8013 449.6 76.1959 449.952C76.5906 450.304 77.0706 450.48 77.6359 450.48C78.0626 450.48 78.4253 450.389 78.7239 450.208C79.0226 450.016 79.2199 449.813 79.3159 449.6ZM84.2772 452L82.1972 443.84H84.2772L85.6372 449.2H85.9572L87.3172 443.84H89.5572L90.9172 449.2H91.2372L92.5972 443.84H94.6772L92.5972 452H89.9572L88.5972 446.72H88.2772L86.9172 452H84.2772Z" fill="white"/>
<path d="M45.3879 392.68C49.5799 392.68 52.8919 394.088 55.3239 396.904C57.7559 399.688 58.9719 404.12 58.9719 410.2C58.9719 416.28 57.7559 420.712 55.3239 423.496C52.8919 426.28 49.5799 427.672 45.3879 427.672C41.1959 427.672 37.8839 426.28 35.4519 423.496C33.0519 420.712 31.8519 416.28 31.8519 410.2C31.8519 404.12 33.0519 399.688 35.4519 396.904C37.8839 394.088 41.1959 392.68 45.3879 392.68ZM45.3879 422.44C47.3719 422.44 48.9559 421.592 50.1399 419.896C51.3239 418.168 51.9159 414.936 51.9159 410.2C51.9159 405.432 51.3079 402.2 50.0919 400.504C48.9079 398.776 47.3399 397.912 45.3879 397.912C43.4359 397.912 41.8679 398.776 40.6839 400.504C39.4999 402.2 38.9079 405.432 38.9079 410.2C38.9079 414.968 39.4999 418.2 40.6839 419.896C41.8679 421.592 43.4359 422.44 45.3879 422.44ZM75.0238 407.32C76.6878 407.32 78.0158 406.904 79.0078 406.072C80.0318 405.24 80.5438 404.104 80.5438 402.664C80.5438 401.224 80.0638 400.088 79.1038 399.256C78.1758 398.424 76.9758 398.008 75.5038 398.008C74.0638 398.008 72.8478 398.44 71.8558 399.304C70.8958 400.168 70.3358 401.432 70.1758 403.096L63.5038 402.616C63.7598 399.448 64.9438 397.016 67.0558 395.32C69.1998 393.592 72.0158 392.728 75.5038 392.728C79.0558 392.728 81.9038 393.576 84.0478 395.272C86.2238 396.968 87.3118 399.336 87.3118 402.376C87.3118 404.04 86.8478 405.464 85.9198 406.648C85.0238 407.832 83.8078 408.728 82.2718 409.336V409.528C84.0318 410.04 85.4558 410.968 86.5438 412.312C87.6318 413.624 88.1758 415.304 88.1758 417.352C88.1758 420.808 87.0078 423.4 84.6718 425.128C82.3678 426.824 79.3118 427.672 75.5038 427.672C71.7598 427.672 68.7358 426.792 66.4318 425.032C64.1278 423.24 62.7838 420.552 62.3998 416.968L69.2638 416.488C69.4878 418.536 70.1438 420.04 71.2318 421C72.3518 421.928 73.7758 422.392 75.5038 422.392C77.1678 422.392 78.5278 421.928 79.5838 421C80.6718 420.072 81.2158 418.824 81.2158 417.256C81.2158 415.56 80.6718 414.296 79.5838 413.464C78.4958 412.6 76.9758 412.168 75.0238 412.168H71.9998V407.32H75.0238Z" fill="white"/>
<path d="M25.4022 632V630H27.8822C28.3622 630 28.6022 629.733 28.6022 629.2V620.8H30.6822V629.76C30.6822 631.253 29.9355 632 28.4422 632H25.4022ZM35.0687 629.648C35.4847 630.096 35.9967 630.32 36.6047 630.32C37.2127 630.32 37.7247 630.096 38.1407 629.648C38.5567 629.2 38.7647 628.624 38.7647 627.92C38.7647 627.216 38.5567 626.64 38.1407 626.192C37.7247 625.744 37.2127 625.52 36.6047 625.52C35.9967 625.52 35.4847 625.744 35.0687 626.192C34.6527 626.64 34.4447 627.216 34.4447 627.92C34.4447 628.624 34.6527 629.2 35.0687 629.648ZM33.6127 624.88C34.402 624.08 35.3994 623.68 36.6047 623.68C37.81 623.68 38.802 624.08 39.5807 624.88C40.37 625.669 40.7647 626.683 40.7647 627.92C40.7647 629.157 40.37 630.176 39.5807 630.976C38.802 631.765 37.81 632.16 36.6047 632.16C35.3994 632.16 34.402 631.765 33.6127 630.976C32.834 630.176 32.4447 629.157 32.4447 627.92C32.4447 626.683 32.834 625.669 33.6127 624.88ZM45.0944 629.696C45.4784 630.112 45.9798 630.32 46.5984 630.32C47.2171 630.32 47.7184 630.112 48.1024 629.696C48.4864 629.269 48.6784 628.677 48.6784 627.92C48.6784 627.163 48.4864 626.576 48.1024 626.16C47.7184 625.733 47.2171 625.52 46.5984 625.52C45.9798 625.52 45.4784 625.733 45.0944 626.16C44.7104 626.576 44.5184 627.163 44.5184 627.92C44.5184 628.677 44.7104 629.269 45.0944 629.696ZM42.5184 632V620.8H44.5184V624.72H44.5984C44.7478 624.528 44.9344 624.357 45.1584 624.208C45.6811 623.856 46.2678 623.68 46.9184 623.68C47.9851 623.68 48.8758 624.075 49.5904 624.864C50.3158 625.643 50.6784 626.661 50.6784 627.92C50.6784 629.179 50.3158 630.203 49.5904 630.992C48.8758 631.771 47.9851 632.16 46.9184 632.16C46.2144 632.16 45.6064 631.989 45.0944 631.648C44.8704 631.499 44.6784 631.323 44.5184 631.12H44.4384L44.2784 632H42.5184ZM59.0643 629.136C59.6936 629.819 60.499 630.16 61.4803 630.16C62.4616 630.16 63.267 629.819 63.8963 629.136C64.5256 628.443 64.8403 627.531 64.8403 626.4C64.8403 625.269 64.5256 624.363 63.8963 623.68C63.267 622.987 62.4616 622.64 61.4803 622.64C60.499 622.64 59.6936 622.987 59.0643 623.68C58.435 624.363 58.1203 625.269 58.1203 626.4C58.1203 627.531 58.435 628.443 59.0643 629.136ZM57.6083 622.272C58.6536 621.184 59.9443 620.64 61.4803 620.64C63.0163 620.64 64.307 621.184 65.3523 622.272C66.3976 623.36 66.9203 624.736 66.9203 626.4C66.9203 628.064 66.3976 629.44 65.3523 630.528C64.307 631.616 63.0163 632.16 61.4803 632.16C59.9443 632.16 58.6536 631.616 57.6083 630.528C56.563 629.44 56.0403 628.064 56.0403 626.4C56.0403 624.736 56.563 623.36 57.6083 622.272ZM69.3928 632V625.76H68.0328V623.84H69.3928V622.64C69.3928 622.032 69.5741 621.547 69.9368 621.184C70.2995 620.821 70.7848 620.64 71.3928 620.64H73.1528V622.4H71.9528C71.7928 622.4 71.6595 622.453 71.5528 622.56C71.4461 622.667 71.3928 622.8 71.3928 622.96V623.84H73.1528V625.76H71.3928V632H69.3928ZM75.3147 632V625.76H73.9547V623.84H75.3147V622.64C75.3147 622.032 75.496 621.547 75.8587 621.184C76.2214 620.821 76.7067 620.64 77.3147 620.64H79.0747V622.4H77.8747C77.7147 622.4 77.5814 622.453 77.4747 622.56C77.368 622.667 77.3147 622.8 77.3147 622.96V623.84H79.0747V625.76H77.3147V632H75.3147ZM81.8041 627.2H85.9641C85.8681 626.656 85.6441 626.213 85.2921 625.872C84.9507 625.531 84.5081 625.36 83.9641 625.36C83.3881 625.36 82.9134 625.531 82.5401 625.872C82.1774 626.203 81.9321 626.645 81.8041 627.2ZM85.6441 629.6H87.7241C87.6707 629.803 87.5641 630.032 87.4041 630.288C87.2547 630.533 87.0361 630.811 86.7481 631.12C86.4707 631.419 86.0867 631.669 85.5961 631.872C85.1054 632.064 84.5614 632.16 83.9641 632.16C82.7587 632.16 81.7614 631.765 80.9721 630.976C80.1934 630.176 79.8041 629.157 79.8041 627.92C79.8041 626.683 80.1934 625.669 80.9721 624.88C81.7614 624.08 82.7587 623.68 83.9641 623.68C85.0841 623.68 86.0281 624.075 86.7961 624.864C87.5747 625.643 87.9641 626.608 87.9641 627.76C87.9641 627.856 87.9481 628.048 87.9161 628.336L87.8841 628.56H81.8041C81.8894 629.136 82.1294 629.6 82.5241 629.952C82.9187 630.304 83.3987 630.48 83.9641 630.48C84.3907 630.48 84.7534 630.389 85.0521 630.208C85.3507 630.016 85.5481 629.813 85.6441 629.6ZM89.6416 632V623.84H91.3216L91.4816 624.56H91.5616C91.6576 624.432 91.7749 624.315 91.9136 624.208C92.2442 623.963 92.6069 623.84 93.0016 623.84H94.6016V625.76H93.1616C92.1482 625.76 91.6416 626.267 91.6416 627.28V632H89.6416Z" fill="white"/>
<path d="M45.2942 572.68C49.4862 572.68 52.7982 574.088 55.2302 576.904C57.6622 579.688 58.8782 584.12 58.8782 590.2C58.8782 596.28 57.6622 600.712 55.2302 603.496C52.7982 606.28 49.4862 607.672 45.2942 607.672C41.1022 607.672 37.7902 606.28 35.3582 603.496C32.9582 600.712 31.7582 596.28 31.7582 590.2C31.7582 584.12 32.9582 579.688 35.3582 576.904C37.7902 574.088 41.1022 572.68 45.2942 572.68ZM45.2942 602.44C47.2782 602.44 48.8622 601.592 50.0462 599.896C51.2302 598.168 51.8222 594.936 51.8222 590.2C51.8222 585.432 51.2142 582.2 49.9982 580.504C48.8142 578.776 47.2462 577.912 45.2942 577.912C43.3422 577.912 41.7742 578.776 40.5902 580.504C39.4062 582.2 38.8142 585.432 38.8142 590.2C38.8142 594.968 39.4062 598.2 40.5902 599.896C41.7742 601.592 43.3422 602.44 45.2942 602.44ZM88.7061 593.896V599.032H84.6261V607H77.8581V599.032H62.4501V593.368L74.8341 573.4H84.6261V593.896H88.7061ZM68.1141 593.896H77.8581V578.392H77.6661L68.1141 593.704V593.896Z" fill="white"/>
<defs>
<linearGradient id="paint0_linear_1255_5207" x1="41.7" y1="35.8381" x2="693.308" y2="35.8381" gradientUnits="userSpaceOnUse">
<stop stop-color="#00C7F4"/>
<stop offset="0.447917" stop-color="#00C7F4" stop-opacity="0.552083"/>
<stop offset="1" stop-color="#00C7F4" stop-opacity="0"/>
</linearGradient>
</defs>
</svg>
