<svg width="255" height="434" viewBox="0 0 255 434" fill="none" xmlns="http://www.w3.org/2000/svg">
<circle cx="46.4449" cy="46.8374" r="33" transform="rotate(-60 46.4449 46.8374)" stroke="url(#paint0_linear_47_457)" stroke-width="2"/>
<path d="M40.5481 55.6183C38.8868 55.6183 37.4308 55.1703 36.1801 54.2743C34.9294 53.3596 33.9494 52.0996 33.2401 50.4943C32.5494 48.8703 32.2041 46.985 32.2041 44.8383C32.2041 42.673 32.5494 40.7876 33.2401 39.1823C33.9494 37.577 34.9201 36.3263 36.1521 35.4303C37.4028 34.5343 38.8588 34.0863 40.5201 34.0863C42.1814 34.0863 43.6281 34.5343 44.8601 35.4303C46.1108 36.3263 47.0814 37.5863 47.7721 39.2103C48.4814 40.8156 48.8361 42.6916 48.8361 44.8383C48.8361 46.985 48.4908 48.8703 47.8001 50.4943C47.1094 52.0996 46.1388 53.3596 44.8881 54.2743C43.6561 55.1703 42.2094 55.6183 40.5481 55.6183ZM40.5481 52.5943C41.5748 52.5943 42.4614 52.277 43.2081 51.6423C43.9548 51.0076 44.5334 50.1116 44.9441 48.9543C45.3548 47.797 45.5601 46.425 45.5601 44.8383C45.5601 43.2516 45.3548 41.8796 44.9441 40.7223C44.5334 39.565 43.9548 38.669 43.2081 38.0343C42.4614 37.3996 41.5654 37.0823 40.5201 37.0823C39.4934 37.0823 38.6068 37.3996 37.8601 38.0343C37.1134 38.669 36.5348 39.565 36.1241 40.7223C35.7134 41.8796 35.5081 43.2516 35.5081 44.8383C35.5081 46.4063 35.7134 47.7783 36.1241 48.9543C36.5348 50.1116 37.1134 51.0076 37.8601 51.6423C38.6254 52.277 39.5214 52.5943 40.5481 52.5943ZM55.4671 55.2823V37.2223H51.4631V34.4223H58.7431V55.2823H55.4671Z" fill="#00C7F4"/>
<path d="M101.198 54.0001L105.914 40.5901H108.542L113.258 54.0001H110.99L109.964 50.9941H104.51L103.466 54.0001H101.198ZM105.122 49.1041H109.316L106.94 42.0841H107.534L105.122 49.1041ZM114.651 57.6001V44.2621H116.595V46.2781L116.361 45.8101C116.721 45.2581 117.201 44.8261 117.801 44.5141C118.401 44.2021 119.085 44.0461 119.853 44.0461C120.777 44.0461 121.605 44.2681 122.337 44.7121C123.081 45.1561 123.663 45.7621 124.083 46.5301C124.515 47.2981 124.731 48.1621 124.731 49.1221C124.731 50.0821 124.515 50.9461 124.083 51.7141C123.663 52.4821 123.087 53.0941 122.355 53.5501C121.623 53.9941 120.789 54.2161 119.853 54.2161C119.097 54.2161 118.407 54.0601 117.783 53.7481C117.171 53.4361 116.697 52.9861 116.361 52.3981L116.685 52.0201V57.6001H114.651ZM119.655 52.3261C120.231 52.3261 120.741 52.1881 121.185 51.9121C121.629 51.6361 121.977 51.2581 122.229 50.7781C122.493 50.2861 122.625 49.7341 122.625 49.1221C122.625 48.5101 122.493 47.9641 122.229 47.4841C121.977 47.0041 121.629 46.6261 121.185 46.3501C120.741 46.0741 120.231 45.9361 119.655 45.9361C119.091 45.9361 118.581 46.0741 118.125 46.3501C117.681 46.6261 117.327 47.0041 117.063 47.4841C116.811 47.9641 116.685 48.5101 116.685 49.1221C116.685 49.7341 116.811 50.2861 117.063 50.7781C117.327 51.2581 117.681 51.6361 118.125 51.9121C118.581 52.1881 119.091 52.3261 119.655 52.3261ZM126.709 57.6001V44.2621H128.653V46.2781L128.419 45.8101C128.779 45.2581 129.259 44.8261 129.859 44.5141C130.459 44.2021 131.143 44.0461 131.911 44.0461C132.835 44.0461 133.663 44.2681 134.395 44.7121C135.139 45.1561 135.721 45.7621 136.141 46.5301C136.573 47.2981 136.789 48.1621 136.789 49.1221C136.789 50.0821 136.573 50.9461 136.141 51.7141C135.721 52.4821 135.145 53.0941 134.413 53.5501C133.681 53.9941 132.847 54.2161 131.911 54.2161C131.155 54.2161 130.465 54.0601 129.841 53.7481C129.229 53.4361 128.755 52.9861 128.419 52.3981L128.743 52.0201V57.6001H126.709ZM131.713 52.3261C132.289 52.3261 132.799 52.1881 133.243 51.9121C133.687 51.6361 134.035 51.2581 134.287 50.7781C134.551 50.2861 134.683 49.7341 134.683 49.1221C134.683 48.5101 134.551 47.9641 134.287 47.4841C134.035 47.0041 133.687 46.6261 133.243 46.3501C132.799 46.0741 132.289 45.9361 131.713 45.9361C131.149 45.9361 130.639 46.0741 130.183 46.3501C129.739 46.6261 129.385 47.0041 129.121 47.4841C128.869 47.9641 128.743 48.5101 128.743 49.1221C128.743 49.7341 128.869 50.2861 129.121 50.7781C129.385 51.2581 129.739 51.6361 130.183 51.9121C130.639 52.1881 131.149 52.3261 131.713 52.3261ZM138.768 54.0001V40.3741H140.802V54.0001H138.768ZM143.18 54.0001V44.2621H145.214V54.0001H143.18ZM143.18 42.9301V40.5901H145.214V42.9301H143.18ZM152.218 54.2161C151.246 54.2161 150.382 53.9941 149.626 53.5501C148.882 53.0941 148.288 52.4821 147.844 51.7141C147.412 50.9461 147.196 50.0761 147.196 49.1041C147.196 48.1441 147.412 47.2801 147.844 46.5121C148.276 45.7441 148.87 45.1441 149.626 44.7121C150.382 44.2681 151.246 44.0461 152.218 44.0461C152.878 44.0461 153.496 44.1661 154.072 44.4061C154.648 44.6341 155.146 44.9521 155.566 45.3601C155.998 45.7681 156.316 46.2421 156.52 46.7821L154.738 47.6101C154.534 47.1061 154.204 46.7041 153.748 46.4041C153.304 46.0921 152.794 45.9361 152.218 45.9361C151.666 45.9361 151.168 46.0741 150.724 46.3501C150.292 46.6141 149.95 46.9921 149.698 47.4841C149.446 47.9641 149.32 48.5101 149.32 49.1221C149.32 49.7341 149.446 50.2861 149.698 50.7781C149.95 51.2581 150.292 51.6361 150.724 51.9121C151.168 52.1881 151.666 52.3261 152.218 52.3261C152.806 52.3261 153.316 52.1761 153.748 51.8761C154.192 51.5641 154.522 51.1501 154.738 50.6341L156.52 51.4801C156.328 51.9961 156.016 52.4641 155.584 52.8841C155.164 53.2921 154.666 53.6161 154.09 53.8561C153.514 54.0961 152.89 54.2161 152.218 54.2161ZM161.336 54.2161C160.676 54.2161 160.094 54.1021 159.59 53.8741C159.098 53.6341 158.714 53.3101 158.438 52.9021C158.162 52.4821 158.024 51.9901 158.024 51.4261C158.024 50.8981 158.138 50.4241 158.366 50.0041C158.606 49.5841 158.972 49.2301 159.464 48.9421C159.956 48.6541 160.574 48.4501 161.318 48.3301L164.702 47.7721V49.3741L161.714 49.8961C161.174 49.9921 160.778 50.1661 160.526 50.4181C160.274 50.6581 160.148 50.9701 160.148 51.3541C160.148 51.7261 160.286 52.0321 160.562 52.2721C160.85 52.5001 161.216 52.6141 161.66 52.6141C162.212 52.6141 162.692 52.4941 163.1 52.2541C163.52 52.0141 163.844 51.6961 164.072 51.3001C164.3 50.8921 164.414 50.4421 164.414 49.9501V47.4481C164.414 46.9681 164.234 46.5781 163.874 46.2781C163.526 45.9661 163.058 45.8101 162.47 45.8101C161.93 45.8101 161.456 45.9541 161.048 46.2421C160.652 46.5181 160.358 46.8781 160.166 47.3221L158.474 46.4761C158.654 45.9961 158.948 45.5761 159.356 45.2161C159.764 44.8441 160.238 44.5561 160.778 44.3521C161.33 44.1481 161.912 44.0461 162.524 44.0461C163.292 44.0461 163.97 44.1901 164.558 44.4781C165.158 44.7661 165.62 45.1681 165.944 45.6841C166.28 46.1881 166.448 46.7761 166.448 47.4481V54.0001H164.504V52.2361L164.918 52.2901C164.69 52.6861 164.396 53.0281 164.036 53.3161C163.688 53.6041 163.286 53.8261 162.83 53.9821C162.386 54.1381 161.888 54.2161 161.336 54.2161ZM172.863 54.1081C171.843 54.1081 171.051 53.8201 170.487 53.2441C169.923 52.6681 169.641 51.8581 169.641 50.8141V46.0981H167.931V44.2621H168.201C168.657 44.2621 169.011 44.1301 169.263 43.8661C169.515 43.6021 169.641 43.2421 169.641 42.7861V42.0301H171.675V44.2621H173.889V46.0981H171.675V50.7241C171.675 51.0601 171.729 51.3481 171.837 51.5881C171.945 51.8161 172.119 51.9961 172.359 52.1281C172.599 52.2481 172.911 52.3081 173.295 52.3081C173.391 52.3081 173.499 52.3021 173.619 52.2901C173.739 52.2781 173.853 52.2661 173.961 52.2541V54.0001C173.793 54.0241 173.607 54.0481 173.403 54.0721C173.199 54.0961 173.019 54.1081 172.863 54.1081ZM175.946 54.0001V44.2621H177.98V54.0001H175.946ZM175.946 42.9301V40.5901H177.98V42.9301H175.946ZM185.056 54.2161C184.12 54.2161 183.262 53.9941 182.482 53.5501C181.714 53.1061 181.102 52.5001 180.646 51.7321C180.19 50.9641 179.962 50.0941 179.962 49.1221C179.962 48.1381 180.19 47.2681 180.646 46.5121C181.102 45.7441 181.714 45.1441 182.482 44.7121C183.25 44.2681 184.108 44.0461 185.056 44.0461C186.016 44.0461 186.874 44.2681 187.63 44.7121C188.398 45.1441 189.004 45.7441 189.448 46.5121C189.904 47.2681 190.132 48.1381 190.132 49.1221C190.132 50.1061 189.904 50.9821 189.448 51.7501C188.992 52.5181 188.38 53.1241 187.612 53.5681C186.844 54.0001 185.992 54.2161 185.056 54.2161ZM185.056 52.3261C185.632 52.3261 186.142 52.1881 186.586 51.9121C187.03 51.6361 187.378 51.2581 187.63 50.7781C187.894 50.2861 188.026 49.7341 188.026 49.1221C188.026 48.5101 187.894 47.9641 187.63 47.4841C187.378 47.0041 187.03 46.6261 186.586 46.3501C186.142 46.0741 185.632 45.9361 185.056 45.9361C184.492 45.9361 183.982 46.0741 183.526 46.3501C183.082 46.6261 182.728 47.0041 182.464 47.4841C182.212 47.9641 182.086 48.5101 182.086 49.1221C182.086 49.7341 182.212 50.2861 182.464 50.7781C182.728 51.2581 183.082 51.6361 183.526 51.9121C183.982 52.1881 184.492 52.3261 185.056 52.3261ZM192.118 54.0001V44.2621H194.062V46.1701L193.828 45.9181C194.068 45.3061 194.452 44.8441 194.98 44.5321C195.508 44.2081 196.12 44.0461 196.816 44.0461C197.536 44.0461 198.172 44.2021 198.724 44.5141C199.276 44.8261 199.708 45.2581 200.02 45.8101C200.332 46.3621 200.488 46.9981 200.488 47.7181V54.0001H198.472V48.2581C198.472 47.7661 198.382 47.3521 198.202 47.0161C198.022 46.6681 197.764 46.4041 197.428 46.2241C197.104 46.0321 196.732 45.9361 196.312 45.9361C195.892 45.9361 195.514 46.0321 195.178 46.2241C194.854 46.4041 194.602 46.6681 194.422 47.0161C194.242 47.3641 194.152 47.7781 194.152 48.2581V54.0001H192.118Z" fill="white"/>
<circle cx="46.4449" cy="159.837" r="33" transform="rotate(-60 46.4449 159.837)" stroke="url(#paint1_linear_47_457)" stroke-width="2"/>
<path d="M37.6633 168.618C36.002 168.618 34.546 168.17 33.2953 167.274C32.0447 166.36 31.0647 165.1 30.3553 163.494C29.6647 161.87 29.3193 159.985 29.3193 157.838C29.3193 155.673 29.6647 153.788 30.3553 152.182C31.0647 150.577 32.0353 149.326 33.2673 148.43C34.518 147.534 35.974 147.086 37.6353 147.086C39.2967 147.086 40.7433 147.534 41.9753 148.43C43.226 149.326 44.1967 150.586 44.8873 152.21C45.5967 153.816 45.9513 155.692 45.9513 157.838C45.9513 159.985 45.606 161.87 44.9153 163.494C44.2247 165.1 43.254 166.36 42.0033 167.274C40.7713 168.17 39.3247 168.618 37.6633 168.618ZM37.6633 165.594C38.69 165.594 39.5767 165.277 40.3233 164.642C41.07 164.008 41.6487 163.112 42.0593 161.954C42.47 160.797 42.6753 159.425 42.6753 157.838C42.6753 156.252 42.47 154.88 42.0593 153.722C41.6487 152.565 41.07 151.669 40.3233 151.034C39.5767 150.4 38.6807 150.082 37.6353 150.082C36.6087 150.082 35.722 150.4 34.9753 151.034C34.2287 151.669 33.65 152.565 33.2393 153.722C32.8287 154.88 32.6233 156.252 32.6233 157.838C32.6233 159.406 32.8287 160.778 33.2393 161.954C33.65 163.112 34.2287 164.008 34.9753 164.642C35.7407 165.277 36.6367 165.594 37.6633 165.594ZM49.0543 168.282V165.902L54.7663 159.798C55.8863 158.604 56.7636 157.642 57.3983 156.914C58.0516 156.168 58.5183 155.514 58.7983 154.954C59.097 154.394 59.2463 153.806 59.2463 153.19C59.2463 152.182 58.9383 151.408 58.3223 150.866C57.7063 150.306 56.913 150.026 55.9423 150.026C54.9343 150.026 54.0663 150.316 53.3383 150.894C52.6103 151.454 52.1063 152.276 51.8263 153.358L48.9143 152.518C49.1383 151.417 49.5863 150.465 50.2583 149.662C50.9303 148.841 51.7516 148.206 52.7223 147.758C53.7116 147.31 54.7756 147.086 55.9143 147.086C57.2396 147.086 58.397 147.338 59.3863 147.842C60.3756 148.328 61.141 149.009 61.6823 149.886C62.2423 150.764 62.5223 151.781 62.5223 152.938C62.5223 153.704 62.373 154.45 62.0743 155.178C61.7943 155.888 61.3556 156.644 60.7583 157.446C60.161 158.23 59.3956 159.117 58.4623 160.106L53.4223 165.482H62.9143V168.282H49.0543Z" fill="#00C7F4"/>
<path d="M107.084 167.216C106.244 167.216 105.464 167.06 104.744 166.748C104.024 166.424 103.412 165.986 102.908 165.434C102.404 164.882 102.032 164.246 101.792 163.526L103.592 162.77C103.916 163.598 104.39 164.234 105.014 164.678C105.638 165.122 106.358 165.344 107.174 165.344C107.654 165.344 108.074 165.272 108.434 165.128C108.794 164.972 109.07 164.756 109.262 164.48C109.466 164.204 109.568 163.886 109.568 163.526C109.568 163.034 109.43 162.644 109.154 162.356C108.878 162.068 108.47 161.84 107.93 161.672L105.41 160.88C104.402 160.568 103.634 160.094 103.106 159.458C102.578 158.81 102.314 158.054 102.314 157.19C102.314 156.434 102.5 155.774 102.872 155.21C103.244 154.634 103.754 154.184 104.402 153.86C105.062 153.536 105.812 153.374 106.652 153.374C107.456 153.374 108.188 153.518 108.848 153.806C109.508 154.082 110.072 154.466 110.54 154.958C111.02 155.45 111.368 156.02 111.584 156.668L109.82 157.442C109.556 156.734 109.142 156.188 108.578 155.804C108.026 155.42 107.384 155.228 106.652 155.228C106.208 155.228 105.818 155.306 105.482 155.462C105.146 155.606 104.882 155.822 104.69 156.11C104.51 156.386 104.42 156.71 104.42 157.082C104.42 157.514 104.558 157.898 104.834 158.234C105.11 158.57 105.53 158.822 106.094 158.99L108.434 159.728C109.502 160.052 110.306 160.52 110.846 161.132C111.386 161.732 111.656 162.482 111.656 163.382C111.656 164.126 111.458 164.786 111.062 165.362C110.678 165.938 110.144 166.394 109.46 166.73C108.776 167.054 107.984 167.216 107.084 167.216ZM118.468 167.216C117.496 167.216 116.632 166.994 115.876 166.55C115.132 166.094 114.538 165.482 114.094 164.714C113.662 163.946 113.446 163.076 113.446 162.104C113.446 161.144 113.662 160.28 114.094 159.512C114.526 158.744 115.12 158.144 115.876 157.712C116.632 157.268 117.496 157.046 118.468 157.046C119.128 157.046 119.746 157.166 120.322 157.406C120.898 157.634 121.396 157.952 121.816 158.36C122.248 158.768 122.566 159.242 122.77 159.782L120.988 160.61C120.784 160.106 120.454 159.704 119.998 159.404C119.554 159.092 119.044 158.936 118.468 158.936C117.916 158.936 117.418 159.074 116.974 159.35C116.542 159.614 116.2 159.992 115.948 160.484C115.696 160.964 115.57 161.51 115.57 162.122C115.57 162.734 115.696 163.286 115.948 163.778C116.2 164.258 116.542 164.636 116.974 164.912C117.418 165.188 117.916 165.326 118.468 165.326C119.056 165.326 119.566 165.176 119.998 164.876C120.442 164.564 120.772 164.15 120.988 163.634L122.77 164.48C122.578 164.996 122.266 165.464 121.834 165.884C121.414 166.292 120.916 166.616 120.34 166.856C119.764 167.096 119.14 167.216 118.468 167.216ZM124.758 167V157.262H126.702V159.224L126.522 158.936C126.738 158.3 127.086 157.844 127.566 157.568C128.046 157.28 128.622 157.136 129.294 157.136H129.888V158.99H129.042C128.37 158.99 127.824 159.2 127.404 159.62C126.996 160.028 126.792 160.616 126.792 161.384V167H124.758ZM135.852 167.216C134.88 167.216 134.016 166.994 133.26 166.55C132.516 166.094 131.934 165.482 131.514 164.714C131.094 163.934 130.884 163.064 130.884 162.104C130.884 161.12 131.094 160.25 131.514 159.494C131.946 158.738 132.522 158.144 133.242 157.712C133.962 157.268 134.778 157.046 135.69 157.046C136.422 157.046 137.076 157.172 137.652 157.424C138.228 157.676 138.714 158.024 139.11 158.468C139.506 158.9 139.806 159.398 140.01 159.962C140.226 160.526 140.334 161.126 140.334 161.762C140.334 161.918 140.328 162.08 140.316 162.248C140.304 162.416 140.28 162.572 140.244 162.716H132.486V161.096H139.092L138.12 161.834C138.24 161.246 138.198 160.724 137.994 160.268C137.802 159.8 137.502 159.434 137.094 159.17C136.698 158.894 136.23 158.756 135.69 158.756C135.15 158.756 134.67 158.894 134.25 159.17C133.83 159.434 133.506 159.818 133.278 160.322C133.05 160.814 132.96 161.414 133.008 162.122C132.948 162.782 133.038 163.358 133.278 163.85C133.53 164.342 133.878 164.726 134.322 165.002C134.778 165.278 135.294 165.416 135.87 165.416C136.458 165.416 136.956 165.284 137.364 165.02C137.784 164.756 138.114 164.414 138.354 163.994L140.01 164.804C139.818 165.26 139.518 165.674 139.11 166.046C138.714 166.406 138.234 166.694 137.67 166.91C137.118 167.114 136.512 167.216 135.852 167.216ZM146.891 167.216C145.919 167.216 145.055 166.994 144.299 166.55C143.555 166.094 142.973 165.482 142.553 164.714C142.133 163.934 141.923 163.064 141.923 162.104C141.923 161.12 142.133 160.25 142.553 159.494C142.985 158.738 143.561 158.144 144.281 157.712C145.001 157.268 145.817 157.046 146.729 157.046C147.461 157.046 148.115 157.172 148.691 157.424C149.267 157.676 149.753 158.024 150.149 158.468C150.545 158.9 150.845 159.398 151.049 159.962C151.265 160.526 151.373 161.126 151.373 161.762C151.373 161.918 151.367 162.08 151.355 162.248C151.343 162.416 151.319 162.572 151.283 162.716H143.525V161.096H150.131L149.159 161.834C149.279 161.246 149.237 160.724 149.033 160.268C148.841 159.8 148.541 159.434 148.133 159.17C147.737 158.894 147.269 158.756 146.729 158.756C146.189 158.756 145.709 158.894 145.289 159.17C144.869 159.434 144.545 159.818 144.317 160.322C144.089 160.814 143.999 161.414 144.047 162.122C143.987 162.782 144.077 163.358 144.317 163.85C144.569 164.342 144.917 164.726 145.361 165.002C145.817 165.278 146.333 165.416 146.909 165.416C147.497 165.416 147.995 165.284 148.403 165.02C148.823 164.756 149.153 164.414 149.393 163.994L151.049 164.804C150.857 165.26 150.557 165.674 150.149 166.046C149.753 166.406 149.273 166.694 148.709 166.91C148.157 167.114 147.551 167.216 146.891 167.216ZM153.358 167V157.262H155.302V159.17L155.068 158.918C155.308 158.306 155.692 157.844 156.22 157.532C156.748 157.208 157.36 157.046 158.056 157.046C158.776 157.046 159.412 157.202 159.964 157.514C160.516 157.826 160.948 158.258 161.26 158.81C161.572 159.362 161.728 159.998 161.728 160.718V167H159.712V161.258C159.712 160.766 159.622 160.352 159.442 160.016C159.262 159.668 159.004 159.404 158.668 159.224C158.344 159.032 157.972 158.936 157.552 158.936C157.132 158.936 156.754 159.032 156.418 159.224C156.094 159.404 155.842 159.668 155.662 160.016C155.482 160.364 155.392 160.778 155.392 161.258V167H153.358ZM163.905 167V157.262H165.939V167H163.905ZM163.905 155.93V153.59H165.939V155.93H163.905ZM168.317 167V157.262H170.261V159.17L170.027 158.918C170.267 158.306 170.651 157.844 171.179 157.532C171.707 157.208 172.319 157.046 173.015 157.046C173.735 157.046 174.371 157.202 174.923 157.514C175.475 157.826 175.907 158.258 176.219 158.81C176.531 159.362 176.687 159.998 176.687 160.718V167H174.671V161.258C174.671 160.766 174.581 160.352 174.401 160.016C174.221 159.668 173.963 159.404 173.627 159.224C173.303 159.032 172.931 158.936 172.511 158.936C172.091 158.936 171.713 159.032 171.377 159.224C171.053 159.404 170.801 159.668 170.621 160.016C170.441 160.364 170.351 160.778 170.351 161.258V167H168.317ZM183.562 170.96C182.854 170.96 182.2 170.846 181.6 170.618C181 170.39 180.484 170.072 180.052 169.664C179.62 169.268 179.296 168.8 179.08 168.26L180.952 167.486C181.12 167.942 181.426 168.32 181.87 168.62C182.326 168.92 182.884 169.07 183.544 169.07C184.06 169.07 184.522 168.968 184.93 168.764C185.338 168.572 185.662 168.284 185.902 167.9C186.142 167.528 186.262 167.078 186.262 166.55V164.354L186.622 164.768C186.286 165.392 185.818 165.866 185.218 166.19C184.63 166.514 183.964 166.676 183.22 166.676C182.32 166.676 181.51 166.466 180.79 166.046C180.07 165.626 179.5 165.05 179.08 164.318C178.672 163.586 178.468 162.764 178.468 161.852C178.468 160.928 178.672 160.106 179.08 159.386C179.5 158.666 180.064 158.096 180.772 157.676C181.48 157.256 182.29 157.046 183.202 157.046C183.946 157.046 184.606 157.208 185.182 157.532C185.77 157.844 186.25 158.3 186.622 158.9L186.352 159.404V157.262H188.278V166.55C188.278 167.39 188.074 168.14 187.666 168.8C187.27 169.472 186.718 170 186.01 170.384C185.302 170.768 184.486 170.96 183.562 170.96ZM183.454 164.786C183.994 164.786 184.474 164.66 184.894 164.408C185.314 164.144 185.644 163.796 185.884 163.364C186.136 162.92 186.262 162.422 186.262 161.87C186.262 161.318 186.136 160.82 185.884 160.376C185.632 159.932 185.296 159.584 184.876 159.332C184.456 159.068 183.982 158.936 183.454 158.936C182.902 158.936 182.41 159.068 181.978 159.332C181.546 159.584 181.204 159.932 180.952 160.376C180.712 160.808 180.592 161.306 180.592 161.87C180.592 162.41 180.712 162.902 180.952 163.346C181.204 163.79 181.546 164.144 181.978 164.408C182.41 164.66 182.902 164.786 183.454 164.786Z" fill="white"/>
<circle cx="46.4449" cy="273.555" r="33" transform="rotate(-60 46.4449 273.555)" stroke="url(#paint2_linear_47_457)" stroke-width="2"/>
<path d="M37.4719 282.618C35.8106 282.618 34.3546 282.17 33.1039 281.274C31.8533 280.36 30.8733 279.1 30.1639 277.494C29.4733 275.87 29.1279 273.985 29.1279 271.838C29.1279 269.673 29.4733 267.788 30.1639 266.182C30.8733 264.577 31.8439 263.326 33.0759 262.43C34.3266 261.534 35.7826 261.086 37.4439 261.086C39.1053 261.086 40.5519 261.534 41.7839 262.43C43.0346 263.326 44.0053 264.586 44.6959 266.21C45.4053 267.816 45.7599 269.692 45.7599 271.838C45.7599 273.985 45.4146 275.87 44.7239 277.494C44.0333 279.1 43.0626 280.36 41.8119 281.274C40.5799 282.17 39.1333 282.618 37.4719 282.618ZM37.4719 279.594C38.4986 279.594 39.3853 279.277 40.1319 278.642C40.8786 278.008 41.4573 277.112 41.8679 275.954C42.2786 274.797 42.4839 273.425 42.4839 271.838C42.4839 270.252 42.2786 268.88 41.8679 267.722C41.4573 266.565 40.8786 265.669 40.1319 265.034C39.3853 264.4 38.4893 264.082 37.4439 264.082C36.4173 264.082 35.5306 264.4 34.7839 265.034C34.0373 265.669 33.4586 266.565 33.0479 267.722C32.6373 268.88 32.4319 270.252 32.4319 271.838C32.4319 273.406 32.6373 274.778 33.0479 275.954C33.4586 277.112 34.0373 278.008 34.7839 278.642C35.5493 279.277 36.4453 279.594 37.4719 279.594ZM55.6669 282.618C54.5469 282.618 53.4922 282.413 52.5029 282.002C51.5322 281.592 50.6922 281.013 49.9829 280.266C49.2922 279.52 48.7976 278.642 48.4989 277.634L51.2989 276.57C51.6722 277.56 52.2416 278.325 53.0069 278.866C53.7722 279.408 54.6589 279.678 55.6669 279.678C56.4882 279.678 57.1976 279.52 57.7949 279.202C58.4109 278.885 58.8869 278.437 59.2229 277.858C59.5776 277.28 59.7549 276.58 59.7549 275.758C59.7549 274.956 59.5776 274.265 59.2229 273.686C58.8869 273.108 58.4109 272.669 57.7949 272.37C57.1976 272.072 56.4882 271.922 55.6669 271.922C55.3309 271.922 54.9856 271.95 54.6309 272.006C54.2949 272.062 53.9962 272.137 53.7349 272.23L53.0069 270.69L58.4949 264.222H49.6189V261.422H62.1909V264.082L56.8149 270.522L56.7309 269.458C57.9816 269.477 59.0829 269.757 60.0349 270.298C60.9869 270.821 61.7242 271.549 62.2469 272.482C62.7882 273.397 63.0589 274.461 63.0589 275.674C63.0589 276.981 62.7416 278.166 62.1069 279.23C61.4722 280.276 60.5949 281.106 59.4749 281.722C58.3736 282.32 57.1042 282.618 55.6669 282.618Z" fill="#00C7F4"/>
<path d="M102.386 281V267.59H104.51V281H102.386ZM107.092 281V271.262H109.036V273.17L108.802 272.918C109.042 272.306 109.426 271.844 109.954 271.532C110.482 271.208 111.094 271.046 111.79 271.046C112.51 271.046 113.146 271.202 113.698 271.514C114.25 271.826 114.682 272.258 114.994 272.81C115.306 273.362 115.462 273.998 115.462 274.718V281H113.446V275.258C113.446 274.766 113.356 274.352 113.176 274.016C112.996 273.668 112.738 273.404 112.402 273.224C112.078 273.032 111.706 272.936 111.286 272.936C110.866 272.936 110.488 273.032 110.152 273.224C109.828 273.404 109.576 273.668 109.396 274.016C109.216 274.364 109.126 274.778 109.126 275.258V281H107.092ZM121.851 281.108C120.831 281.108 120.039 280.82 119.475 280.244C118.911 279.668 118.629 278.858 118.629 277.814V273.098H116.919V271.262H117.189C117.645 271.262 117.999 271.13 118.251 270.866C118.503 270.602 118.629 270.242 118.629 269.786V269.03H120.663V271.262H122.877V273.098H120.663V277.724C120.663 278.06 120.717 278.348 120.825 278.588C120.933 278.816 121.107 278.996 121.347 279.128C121.587 279.248 121.899 279.308 122.283 279.308C122.379 279.308 122.487 279.302 122.607 279.29C122.727 279.278 122.841 279.266 122.949 279.254V281C122.781 281.024 122.595 281.048 122.391 281.072C122.187 281.096 122.007 281.108 121.851 281.108ZM129.33 281.216C128.358 281.216 127.494 280.994 126.738 280.55C125.994 280.094 125.412 279.482 124.992 278.714C124.572 277.934 124.362 277.064 124.362 276.104C124.362 275.12 124.572 274.25 124.992 273.494C125.424 272.738 126 272.144 126.72 271.712C127.44 271.268 128.256 271.046 129.168 271.046C129.9 271.046 130.554 271.172 131.13 271.424C131.706 271.676 132.192 272.024 132.588 272.468C132.984 272.9 133.284 273.398 133.488 273.962C133.704 274.526 133.812 275.126 133.812 275.762C133.812 275.918 133.806 276.08 133.794 276.248C133.782 276.416 133.758 276.572 133.722 276.716H125.964V275.096H132.57L131.598 275.834C131.718 275.246 131.676 274.724 131.472 274.268C131.28 273.8 130.98 273.434 130.572 273.17C130.176 272.894 129.708 272.756 129.168 272.756C128.628 272.756 128.148 272.894 127.728 273.17C127.308 273.434 126.984 273.818 126.756 274.322C126.528 274.814 126.438 275.414 126.486 276.122C126.426 276.782 126.516 277.358 126.756 277.85C127.008 278.342 127.356 278.726 127.8 279.002C128.256 279.278 128.772 279.416 129.348 279.416C129.936 279.416 130.434 279.284 130.842 279.02C131.262 278.756 131.592 278.414 131.832 277.994L133.488 278.804C133.296 279.26 132.996 279.674 132.588 280.046C132.192 280.406 131.712 280.694 131.148 280.91C130.596 281.114 129.99 281.216 129.33 281.216ZM135.797 281V271.262H137.741V273.224L137.561 272.936C137.777 272.3 138.125 271.844 138.605 271.568C139.085 271.28 139.661 271.136 140.333 271.136H140.927V272.99H140.081C139.409 272.99 138.863 273.2 138.443 273.62C138.035 274.028 137.831 274.616 137.831 275.384V281H135.797ZM145.145 281L141.329 271.262H143.543L146.477 279.2H145.667L148.601 271.262H150.833L146.999 281H145.145ZM152.215 281V271.262H154.249V281H152.215ZM152.215 269.93V267.59H154.249V269.93H152.215ZM161.199 281.216C160.227 281.216 159.363 280.994 158.607 280.55C157.863 280.094 157.281 279.482 156.861 278.714C156.441 277.934 156.231 277.064 156.231 276.104C156.231 275.12 156.441 274.25 156.861 273.494C157.293 272.738 157.869 272.144 158.589 271.712C159.309 271.268 160.125 271.046 161.037 271.046C161.769 271.046 162.423 271.172 162.999 271.424C163.575 271.676 164.061 272.024 164.457 272.468C164.853 272.9 165.153 273.398 165.357 273.962C165.573 274.526 165.681 275.126 165.681 275.762C165.681 275.918 165.675 276.08 165.663 276.248C165.651 276.416 165.627 276.572 165.591 276.716H157.833V275.096H164.439L163.467 275.834C163.587 275.246 163.545 274.724 163.341 274.268C163.149 273.8 162.849 273.434 162.441 273.17C162.045 272.894 161.577 272.756 161.037 272.756C160.497 272.756 160.017 272.894 159.597 273.17C159.177 273.434 158.853 273.818 158.625 274.322C158.397 274.814 158.307 275.414 158.355 276.122C158.295 276.782 158.385 277.358 158.625 277.85C158.877 278.342 159.225 278.726 159.669 279.002C160.125 279.278 160.641 279.416 161.217 279.416C161.805 279.416 162.303 279.284 162.711 279.02C163.131 278.756 163.461 278.414 163.701 277.994L165.357 278.804C165.165 279.26 164.865 279.674 164.457 280.046C164.061 280.406 163.581 280.694 163.017 280.91C162.465 281.114 161.859 281.216 161.199 281.216ZM170.025 281L166.677 271.262H168.837L171.393 279.02H170.637L173.247 271.262H175.101L177.693 279.02H176.937L179.511 271.262H181.671L178.305 281H176.469L173.841 273.062H174.507L171.879 281H170.025Z" fill="white"/>
<circle cx="46.4449" cy="386.837" r="33" transform="rotate(-60 46.4449 386.837)" stroke="url(#paint3_linear_47_457)" stroke-width="2"/>
<path d="M36.9797 395.618C35.3184 395.618 33.8624 395.17 32.6117 394.274C31.3611 393.36 30.3811 392.1 29.6717 390.494C28.9811 388.87 28.6357 386.985 28.6357 384.838C28.6357 382.673 28.9811 380.788 29.6717 379.182C30.3811 377.577 31.3517 376.326 32.5837 375.43C33.8344 374.534 35.2904 374.086 36.9517 374.086C38.6131 374.086 40.0597 374.534 41.2917 375.43C42.5424 376.326 43.5131 377.586 44.2037 379.21C44.9131 380.816 45.2677 382.692 45.2677 384.838C45.2677 386.985 44.9224 388.87 44.2317 390.494C43.5411 392.1 42.5704 393.36 41.3197 394.274C40.0877 395.17 38.6411 395.618 36.9797 395.618ZM36.9797 392.594C38.0064 392.594 38.8931 392.277 39.6397 391.642C40.3864 391.008 40.9651 390.112 41.3757 388.954C41.7864 387.797 41.9917 386.425 41.9917 384.838C41.9917 383.252 41.7864 381.88 41.3757 380.722C40.9651 379.565 40.3864 378.669 39.6397 378.034C38.8931 377.4 37.9971 377.082 36.9517 377.082C35.9251 377.082 35.0384 377.4 34.2917 378.034C33.5451 378.669 32.9664 379.565 32.5557 380.722C32.1451 381.88 31.9397 383.252 31.9397 384.838C31.9397 386.406 32.1451 387.778 32.5557 388.954C32.9664 390.112 33.5451 391.008 34.2917 391.642C35.0571 392.277 35.9531 392.594 36.9797 392.594ZM58.0027 395.282V390.578H48.0627V387.834L57.8627 374.422H61.1387V387.834H64.0227V390.578H61.1387V395.282H58.0027ZM50.4987 389.038L49.9667 387.834H58.0027V377.054L58.8987 377.334L50.4987 389.038Z" fill="#00C7F4"/>
<path d="M101.792 394V392.02H102.566C103.166 392.02 103.646 391.846 104.006 391.498C104.366 391.138 104.546 390.658 104.546 390.058V380.59H106.652V389.986C106.652 390.802 106.484 391.51 106.148 392.11C105.824 392.71 105.35 393.178 104.726 393.514C104.114 393.838 103.394 394 102.566 394H101.792ZM113.9 394.216C112.964 394.216 112.106 393.994 111.326 393.55C110.558 393.106 109.946 392.5 109.49 391.732C109.034 390.964 108.806 390.094 108.806 389.122C108.806 388.138 109.034 387.268 109.49 386.512C109.946 385.744 110.558 385.144 111.326 384.712C112.094 384.268 112.952 384.046 113.9 384.046C114.86 384.046 115.718 384.268 116.474 384.712C117.242 385.144 117.848 385.744 118.292 386.512C118.748 387.268 118.976 388.138 118.976 389.122C118.976 390.106 118.748 390.982 118.292 391.75C117.836 392.518 117.224 393.124 116.456 393.568C115.688 394 114.836 394.216 113.9 394.216ZM113.9 392.326C114.476 392.326 114.986 392.188 115.43 391.912C115.874 391.636 116.222 391.258 116.474 390.778C116.738 390.286 116.87 389.734 116.87 389.122C116.87 388.51 116.738 387.964 116.474 387.484C116.222 387.004 115.874 386.626 115.43 386.35C114.986 386.074 114.476 385.936 113.9 385.936C113.336 385.936 112.826 386.074 112.37 386.35C111.926 386.626 111.572 387.004 111.308 387.484C111.056 387.964 110.93 388.51 110.93 389.122C110.93 389.734 111.056 390.286 111.308 390.778C111.572 391.258 111.926 391.636 112.37 391.912C112.826 392.188 113.336 392.326 113.9 392.326ZM126.163 394.216C125.407 394.216 124.717 394.06 124.093 393.748C123.481 393.436 123.007 392.986 122.671 392.398L122.905 392.02V394H120.961V380.374H122.995V386.278L122.671 385.81C123.031 385.258 123.511 384.826 124.111 384.514C124.711 384.202 125.395 384.046 126.163 384.046C127.087 384.046 127.915 384.268 128.647 384.712C129.391 385.156 129.973 385.762 130.393 386.53C130.825 387.298 131.041 388.162 131.041 389.122C131.041 390.082 130.825 390.946 130.393 391.714C129.973 392.482 129.397 393.094 128.665 393.55C127.933 393.994 127.099 394.216 126.163 394.216ZM125.965 392.326C126.541 392.326 127.051 392.188 127.495 391.912C127.939 391.636 128.287 391.258 128.539 390.778C128.803 390.286 128.935 389.734 128.935 389.122C128.935 388.51 128.803 387.964 128.539 387.484C128.287 387.004 127.939 386.626 127.495 386.35C127.051 386.074 126.541 385.936 125.965 385.936C125.401 385.936 124.891 386.074 124.435 386.35C123.991 386.626 123.637 387.004 123.373 387.484C123.121 387.964 122.995 388.51 122.995 389.122C122.995 389.734 123.121 390.286 123.373 390.778C123.637 391.258 123.991 391.636 124.435 391.912C124.891 392.188 125.401 392.326 125.965 392.326ZM142.881 394.216C141.909 394.216 141.003 394.042 140.163 393.694C139.335 393.346 138.603 392.86 137.967 392.236C137.343 391.612 136.851 390.88 136.491 390.04C136.143 389.2 135.969 388.282 135.969 387.286C135.969 386.29 136.143 385.372 136.491 384.532C136.851 383.68 137.343 382.948 137.967 382.336C138.591 381.712 139.323 381.232 140.163 380.896C141.003 380.548 141.909 380.374 142.881 380.374C143.865 380.374 144.771 380.548 145.599 380.896C146.439 381.232 147.171 381.712 147.795 382.336C148.431 382.96 148.923 383.692 149.271 384.532C149.619 385.372 149.793 386.29 149.793 387.286C149.793 388.282 149.613 389.2 149.253 390.04C148.905 390.88 148.419 391.612 147.795 392.236C147.171 392.86 146.439 393.346 145.599 393.694C144.759 394.042 143.853 394.216 142.881 394.216ZM142.881 392.272C143.577 392.272 144.213 392.146 144.789 391.894C145.377 391.642 145.887 391.294 146.319 390.85C146.751 390.394 147.087 389.866 147.327 389.266C147.567 388.654 147.687 387.994 147.687 387.286C147.687 386.578 147.567 385.924 147.327 385.324C147.087 384.724 146.751 384.196 146.319 383.74C145.887 383.284 145.377 382.93 144.789 382.678C144.213 382.426 143.577 382.3 142.881 382.3C142.185 382.3 141.543 382.426 140.955 382.678C140.379 382.93 139.875 383.284 139.443 383.74C139.011 384.196 138.675 384.724 138.435 385.324C138.207 385.924 138.093 386.578 138.093 387.286C138.093 387.994 138.207 388.654 138.435 389.266C138.675 389.866 139.011 390.394 139.443 390.85C139.875 391.294 140.385 391.642 140.973 391.894C141.561 392.146 142.197 392.272 142.881 392.272ZM153.067 394V386.098H151.267V384.262H153.067V383.758C153.067 383.026 153.217 382.414 153.517 381.922C153.817 381.418 154.231 381.034 154.759 380.77C155.299 380.506 155.917 380.374 156.613 380.374C156.745 380.374 156.895 380.386 157.063 380.41C157.231 380.422 157.369 380.44 157.477 380.464V382.228C157.381 382.204 157.273 382.192 157.153 382.192C157.033 382.18 156.937 382.174 156.865 382.174C156.325 382.174 155.893 382.3 155.569 382.552C155.245 382.792 155.083 383.194 155.083 383.758V384.262H157.315V386.098H155.083V394H153.067ZM160.134 394V386.098H158.334V384.262H160.134V383.758C160.134 383.026 160.284 382.414 160.584 381.922C160.884 381.418 161.298 381.034 161.826 380.77C162.366 380.506 162.984 380.374 163.68 380.374C163.812 380.374 163.962 380.386 164.13 380.41C164.298 380.422 164.436 380.44 164.544 380.464V382.228C164.448 382.204 164.34 382.192 164.22 382.192C164.1 382.18 164.004 382.174 163.932 382.174C163.392 382.174 162.96 382.3 162.636 382.552C162.312 382.792 162.15 383.194 162.15 383.758V384.262H164.382V386.098H162.15V394H160.134ZM170.498 394.216C169.526 394.216 168.662 393.994 167.906 393.55C167.162 393.094 166.58 392.482 166.16 391.714C165.74 390.934 165.53 390.064 165.53 389.104C165.53 388.12 165.74 387.25 166.16 386.494C166.592 385.738 167.168 385.144 167.888 384.712C168.608 384.268 169.424 384.046 170.336 384.046C171.068 384.046 171.722 384.172 172.298 384.424C172.874 384.676 173.36 385.024 173.756 385.468C174.152 385.9 174.452 386.398 174.656 386.962C174.872 387.526 174.98 388.126 174.98 388.762C174.98 388.918 174.974 389.08 174.962 389.248C174.95 389.416 174.926 389.572 174.89 389.716H167.132V388.096H173.738L172.766 388.834C172.886 388.246 172.844 387.724 172.64 387.268C172.448 386.8 172.148 386.434 171.74 386.17C171.344 385.894 170.876 385.756 170.336 385.756C169.796 385.756 169.316 385.894 168.896 386.17C168.476 386.434 168.152 386.818 167.924 387.322C167.696 387.814 167.606 388.414 167.654 389.122C167.594 389.782 167.684 390.358 167.924 390.85C168.176 391.342 168.524 391.726 168.968 392.002C169.424 392.278 169.94 392.416 170.516 392.416C171.104 392.416 171.602 392.284 172.01 392.02C172.43 391.756 172.76 391.414 173 390.994L174.656 391.804C174.464 392.26 174.164 392.674 173.756 393.046C173.36 393.406 172.88 393.694 172.316 393.91C171.764 394.114 171.158 394.216 170.498 394.216ZM176.965 394V384.262H178.909V386.224L178.729 385.936C178.945 385.3 179.293 384.844 179.773 384.568C180.253 384.28 180.829 384.136 181.501 384.136H182.095V385.99H181.249C180.577 385.99 180.031 386.2 179.611 386.62C179.203 387.028 178.999 387.616 178.999 388.384V394H176.965Z" fill="white"/>
<line x1="45.25" y1="126" x2="45.25" y2="81.0001" stroke="#448497" stroke-width="1.5"/>
<line x1="45.25" y1="239" x2="45.25" y2="194" stroke="#448497" stroke-width="1.5"/>
<line x1="45.25" y1="353" x2="45.25" y2="308" stroke="#448497" stroke-width="1.5"/>
<defs>
<linearGradient id="paint0_linear_47_457" x1="46.4449" y1="12.8374" x2="46.4449" y2="80.8374" gradientUnits="userSpaceOnUse">
<stop stop-color="#00C7F4" stop-opacity="0.3"/>
<stop offset="0.557292" stop-color="#D7F6FD" stop-opacity="0.63"/>
<stop offset="1" stop-color="#00C7F4" stop-opacity="0.51"/>
</linearGradient>
<linearGradient id="paint1_linear_47_457" x1="46.4449" y1="125.837" x2="46.4449" y2="193.837" gradientUnits="userSpaceOnUse">
<stop stop-color="#00C7F4" stop-opacity="0.3"/>
<stop offset="0.557292" stop-color="#D7F6FD" stop-opacity="0.63"/>
<stop offset="1" stop-color="#00C7F4" stop-opacity="0.51"/>
</linearGradient>
<linearGradient id="paint2_linear_47_457" x1="46.4449" y1="239.555" x2="46.4449" y2="307.555" gradientUnits="userSpaceOnUse">
<stop stop-color="#00C7F4" stop-opacity="0.3"/>
<stop offset="0.557292" stop-color="#D7F6FD" stop-opacity="0.63"/>
<stop offset="1" stop-color="#00C7F4" stop-opacity="0.51"/>
</linearGradient>
<linearGradient id="paint3_linear_47_457" x1="46.4449" y1="352.837" x2="46.4449" y2="420.837" gradientUnits="userSpaceOnUse">
<stop stop-color="#00C7F4" stop-opacity="0.3"/>
<stop offset="0.557292" stop-color="#D7F6FD" stop-opacity="0.63"/>
<stop offset="1" stop-color="#00C7F4" stop-opacity="0.51"/>
</linearGradient>
</defs>
</svg>
