<svg width="1041" height="215" viewBox="0 0 1041 215" fill="none" xmlns="http://www.w3.org/2000/svg">
<line x1="166" y1="100.25" x2="308.5" y2="100.25" stroke="#0B4C5E" stroke-width="1.5"/>
<line x1="449" y1="100.25" x2="591.5" y2="100.25" stroke="#0B4C5E" stroke-width="1.5"/>
<line x1="732" y1="100.25" x2="874.5" y2="100.25" stroke="#0B4C5E" stroke-width="1.5"/>
<path d="M40.3997 209L45.6397 194.1H48.5597L53.7997 209H51.2797L50.1397 205.66H44.0797L42.9197 209H40.3997ZM44.7597 203.56H49.4197L46.7797 195.76H47.4397L44.7597 203.56ZM55.3473 213V198.18H57.5073V200.42L57.2473 199.9C57.6473 199.287 58.1807 198.807 58.8473 198.46C59.514 198.113 60.274 197.94 61.1273 197.94C62.154 197.94 63.074 198.187 63.8873 198.68C64.714 199.173 65.3607 199.847 65.8273 200.7C66.3073 201.553 66.5473 202.513 66.5473 203.58C66.5473 204.647 66.3073 205.607 65.8273 206.46C65.3607 207.313 64.7207 207.993 63.9073 208.5C63.094 208.993 62.1673 209.24 61.1273 209.24C60.2873 209.24 59.5207 209.067 58.8273 208.72C58.1473 208.373 57.6207 207.873 57.2473 207.22L57.6073 206.8V213H55.3473ZM60.9073 207.14C61.5473 207.14 62.114 206.987 62.6073 206.68C63.1007 206.373 63.4873 205.953 63.7673 205.42C64.0607 204.873 64.2073 204.26 64.2073 203.58C64.2073 202.9 64.0607 202.293 63.7673 201.76C63.4873 201.227 63.1007 200.807 62.6073 200.5C62.114 200.193 61.5473 200.04 60.9073 200.04C60.2807 200.04 59.714 200.193 59.2073 200.5C58.714 200.807 58.3207 201.227 58.0273 201.76C57.7473 202.293 57.6073 202.9 57.6073 203.58C57.6073 204.26 57.7473 204.873 58.0273 205.42C58.3207 205.953 58.714 206.373 59.2073 206.68C59.714 206.987 60.2807 207.14 60.9073 207.14ZM68.7458 213V198.18H70.9058V200.42L70.6458 199.9C71.0458 199.287 71.5791 198.807 72.2458 198.46C72.9124 198.113 73.6724 197.94 74.5258 197.94C75.5524 197.94 76.4724 198.187 77.2858 198.68C78.1124 199.173 78.7591 199.847 79.2258 200.7C79.7058 201.553 79.9458 202.513 79.9458 203.58C79.9458 204.647 79.7058 205.607 79.2258 206.46C78.7591 207.313 78.1191 207.993 77.3058 208.5C76.4924 208.993 75.5658 209.24 74.5258 209.24C73.6858 209.24 72.9191 209.067 72.2258 208.72C71.5458 208.373 71.0191 207.873 70.6458 207.22L71.0058 206.8V213H68.7458ZM74.3058 207.14C74.9458 207.14 75.5124 206.987 76.0058 206.68C76.4991 206.373 76.8858 205.953 77.1658 205.42C77.4591 204.873 77.6058 204.26 77.6058 203.58C77.6058 202.9 77.4591 202.293 77.1658 201.76C76.8858 201.227 76.4991 200.807 76.0058 200.5C75.5124 200.193 74.9458 200.04 74.3058 200.04C73.6791 200.04 73.1124 200.193 72.6058 200.5C72.1124 200.807 71.7191 201.227 71.4258 201.76C71.1458 202.293 71.0058 202.9 71.0058 203.58C71.0058 204.26 71.1458 204.873 71.4258 205.42C71.7191 205.953 72.1124 206.373 72.6058 206.68C73.1124 206.987 73.6791 207.14 74.3058 207.14ZM82.1442 209V193.86H84.4042V209H82.1442ZM87.0466 209V198.18H89.3066V209H87.0466ZM87.0466 196.7V194.1H89.3066V196.7H87.0466ZM97.0889 209.24C96.0089 209.24 95.0489 208.993 94.2089 208.5C93.3822 207.993 92.7222 207.313 92.2289 206.46C91.7489 205.607 91.5089 204.64 91.5089 203.56C91.5089 202.493 91.7489 201.533 92.2289 200.68C92.7089 199.827 93.3689 199.16 94.2089 198.68C95.0489 198.187 96.0089 197.94 97.0889 197.94C97.8222 197.94 98.5089 198.073 99.1489 198.34C99.7889 198.593 100.342 198.947 100.809 199.4C101.289 199.853 101.642 200.38 101.869 200.98L99.8889 201.9C99.6622 201.34 99.2956 200.893 98.7889 200.56C98.2956 200.213 97.7289 200.04 97.0889 200.04C96.4756 200.04 95.9222 200.193 95.4289 200.5C94.9489 200.793 94.5689 201.213 94.2889 201.76C94.0089 202.293 93.8689 202.9 93.8689 203.58C93.8689 204.26 94.0089 204.873 94.2889 205.42C94.5689 205.953 94.9489 206.373 95.4289 206.68C95.9222 206.987 96.4756 207.14 97.0889 207.14C97.7422 207.14 98.3089 206.973 98.7889 206.64C99.2822 206.293 99.6489 205.833 99.8889 205.26L101.869 206.2C101.656 206.773 101.309 207.293 100.829 207.76C100.362 208.213 99.8089 208.573 99.1689 208.84C98.5289 209.107 97.8356 209.24 97.0889 209.24ZM107.22 209.24C106.487 209.24 105.84 209.113 105.28 208.86C104.733 208.593 104.307 208.233 104 207.78C103.693 207.313 103.54 206.767 103.54 206.14C103.54 205.553 103.667 205.027 103.92 204.56C104.187 204.093 104.593 203.7 105.14 203.38C105.687 203.06 106.373 202.833 107.2 202.7L110.96 202.08V203.86L107.64 204.44C107.04 204.547 106.6 204.74 106.32 205.02C106.04 205.287 105.9 205.633 105.9 206.06C105.9 206.473 106.053 206.813 106.36 207.08C106.68 207.333 107.087 207.46 107.58 207.46C108.193 207.46 108.727 207.327 109.18 207.06C109.647 206.793 110.007 206.44 110.26 206C110.513 205.547 110.64 205.047 110.64 204.5V201.72C110.64 201.187 110.44 200.753 110.04 200.42C109.653 200.073 109.133 199.9 108.48 199.9C107.88 199.9 107.353 200.06 106.9 200.38C106.46 200.687 106.133 201.087 105.92 201.58L104.04 200.64C104.24 200.107 104.567 199.64 105.02 199.24C105.473 198.827 106 198.507 106.6 198.28C107.213 198.053 107.86 197.94 108.54 197.94C109.393 197.94 110.147 198.1 110.8 198.42C111.467 198.74 111.98 199.187 112.34 199.76C112.713 200.32 112.9 200.973 112.9 201.72V209H110.74V207.04L111.2 207.1C110.947 207.54 110.62 207.92 110.22 208.24C109.833 208.56 109.387 208.807 108.88 208.98C108.387 209.153 107.833 209.24 107.22 209.24ZM120.027 209.12C118.894 209.12 118.014 208.8 117.387 208.16C116.761 207.52 116.447 206.62 116.447 205.46V200.22H114.547V198.18H114.847C115.354 198.18 115.747 198.033 116.027 197.74C116.307 197.447 116.447 197.047 116.447 196.54V195.7H118.707V198.18H121.167V200.22H118.707V205.36C118.707 205.733 118.767 206.053 118.887 206.32C119.007 206.573 119.201 206.773 119.467 206.92C119.734 207.053 120.081 207.12 120.507 207.12C120.614 207.12 120.734 207.113 120.867 207.1C121.001 207.087 121.127 207.073 121.247 207.06V209C121.061 209.027 120.854 209.053 120.627 209.08C120.401 209.107 120.201 209.12 120.027 209.12ZM123.453 209V198.18H125.713V209H123.453ZM123.453 196.7V194.1H125.713V196.7H123.453ZM133.575 209.24C132.535 209.24 131.582 208.993 130.715 208.5C129.862 208.007 129.182 207.333 128.675 206.48C128.168 205.627 127.915 204.66 127.915 203.58C127.915 202.487 128.168 201.52 128.675 200.68C129.182 199.827 129.862 199.16 130.715 198.68C131.568 198.187 132.522 197.94 133.575 197.94C134.642 197.94 135.595 198.187 136.435 198.68C137.288 199.16 137.962 199.827 138.455 200.68C138.962 201.52 139.215 202.487 139.215 203.58C139.215 204.673 138.962 205.647 138.455 206.5C137.948 207.353 137.268 208.027 136.415 208.52C135.562 209 134.615 209.24 133.575 209.24ZM133.575 207.14C134.215 207.14 134.782 206.987 135.275 206.68C135.768 206.373 136.155 205.953 136.435 205.42C136.728 204.873 136.875 204.26 136.875 203.58C136.875 202.9 136.728 202.293 136.435 201.76C136.155 201.227 135.768 200.807 135.275 200.5C134.782 200.193 134.215 200.04 133.575 200.04C132.948 200.04 132.382 200.193 131.875 200.5C131.382 200.807 130.988 201.227 130.695 201.76C130.415 202.293 130.275 202.9 130.275 203.58C130.275 204.26 130.415 204.873 130.695 205.42C130.988 205.953 131.382 206.373 131.875 206.68C132.382 206.987 132.948 207.14 133.575 207.14ZM141.422 209V198.18H143.582V200.3L143.322 200.02C143.588 199.34 144.015 198.827 144.602 198.48C145.188 198.12 145.868 197.94 146.642 197.94C147.442 197.94 148.148 198.113 148.762 198.46C149.375 198.807 149.855 199.287 150.202 199.9C150.548 200.513 150.722 201.22 150.722 202.02V209H148.482V202.62C148.482 202.073 148.382 201.613 148.182 201.24C147.982 200.853 147.695 200.56 147.322 200.36C146.962 200.147 146.548 200.04 146.082 200.04C145.615 200.04 145.195 200.147 144.822 200.36C144.462 200.56 144.182 200.853 143.982 201.24C143.782 201.627 143.682 202.087 143.682 202.62V209H141.422Z" fill="white"/>
<circle cx="95.6218" cy="96.3781" r="69" transform="rotate(-60 95.6218 96.3781)" stroke="url(#paint0_linear_24_79)" stroke-width="2"/>
<path d="M86.3201 117.576C83.4721 117.576 80.9761 116.808 78.8321 115.272C76.6881 113.736 75.0081 111.576 73.7921 108.792C72.6081 106.008 72.0161 102.776 72.0161 99.0959C72.0161 95.3839 72.6081 92.1519 73.7921 89.3999C74.9761 86.6479 76.6401 84.5039 78.7841 82.9679C80.9281 81.4319 83.4241 80.6639 86.2721 80.6639C89.1841 80.6639 91.6961 81.4319 93.8081 82.9679C95.9521 84.5039 97.6321 86.6639 98.8481 89.4479C100.064 92.1999 100.672 95.4159 100.672 99.0959C100.672 102.776 100.064 106.008 98.8481 108.792C97.6641 111.544 96.0001 113.704 93.8561 115.272C91.7121 116.808 89.2001 117.576 86.3201 117.576ZM86.3681 111.624C88.0001 111.624 89.3921 111.128 90.5441 110.136C91.6961 109.112 92.5761 107.672 93.1841 105.816C93.8241 103.928 94.1441 101.688 94.1441 99.0959C94.1441 96.5039 93.8241 94.2799 93.1841 92.4239C92.5761 90.5359 91.6801 89.0959 90.4961 88.1039C89.3441 87.1119 87.9361 86.6159 86.2721 86.6159C84.6721 86.6159 83.2961 87.1119 82.1441 88.1039C80.9921 89.0959 80.0961 90.5359 79.4561 92.4239C78.8481 94.2799 78.5441 96.5039 78.5441 99.0959C78.5441 101.656 78.8481 103.88 79.4561 105.768C80.0961 107.624 80.9921 109.064 82.1441 110.088C83.3281 111.112 84.7361 111.624 86.3681 111.624ZM111.617 117V86.8079H104.705V81.2399H118.145V117H111.617Z" fill="#00C7F4"/>
<path d="M335.61 209.24C334.676 209.24 333.81 209.067 333.01 208.72C332.21 208.36 331.53 207.873 330.97 207.26C330.41 206.647 329.996 205.94 329.73 205.14L331.73 204.3C332.09 205.22 332.616 205.927 333.31 206.42C334.003 206.913 334.803 207.16 335.71 207.16C336.243 207.16 336.71 207.08 337.11 206.92C337.51 206.747 337.816 206.507 338.03 206.2C338.256 205.893 338.37 205.54 338.37 205.14C338.37 204.593 338.216 204.16 337.91 203.84C337.603 203.52 337.15 203.267 336.55 203.08L333.75 202.2C332.63 201.853 331.776 201.327 331.19 200.62C330.603 199.9 330.31 199.06 330.31 198.1C330.31 197.26 330.516 196.527 330.93 195.9C331.343 195.26 331.91 194.76 332.63 194.4C333.363 194.04 334.196 193.86 335.13 193.86C336.023 193.86 336.836 194.02 337.57 194.34C338.303 194.647 338.93 195.073 339.45 195.62C339.983 196.167 340.37 196.8 340.61 197.52L338.65 198.38C338.356 197.593 337.896 196.987 337.27 196.56C336.656 196.133 335.943 195.92 335.13 195.92C334.636 195.92 334.203 196.007 333.83 196.18C333.456 196.34 333.163 196.58 332.95 196.9C332.75 197.207 332.65 197.567 332.65 197.98C332.65 198.46 332.803 198.887 333.11 199.26C333.416 199.633 333.883 199.913 334.51 200.1L337.11 200.92C338.296 201.28 339.19 201.8 339.79 202.48C340.39 203.147 340.69 203.98 340.69 204.98C340.69 205.807 340.47 206.54 340.03 207.18C339.603 207.82 339.01 208.327 338.25 208.7C337.49 209.06 336.61 209.24 335.61 209.24ZM348.259 209.24C347.179 209.24 346.219 208.993 345.379 208.5C344.552 207.993 343.892 207.313 343.399 206.46C342.919 205.607 342.679 204.64 342.679 203.56C342.679 202.493 342.919 201.533 343.399 200.68C343.879 199.827 344.539 199.16 345.379 198.68C346.219 198.187 347.179 197.94 348.259 197.94C348.992 197.94 349.679 198.073 350.319 198.34C350.959 198.593 351.512 198.947 351.979 199.4C352.459 199.853 352.812 200.38 353.039 200.98L351.059 201.9C350.832 201.34 350.465 200.893 349.959 200.56C349.465 200.213 348.899 200.04 348.259 200.04C347.645 200.04 347.092 200.193 346.599 200.5C346.119 200.793 345.739 201.213 345.459 201.76C345.179 202.293 345.039 202.9 345.039 203.58C345.039 204.26 345.179 204.873 345.459 205.42C345.739 205.953 346.119 206.373 346.599 206.68C347.092 206.987 347.645 207.14 348.259 207.14C348.912 207.14 349.479 206.973 349.959 206.64C350.452 206.293 350.819 205.833 351.059 205.26L353.039 206.2C352.825 206.773 352.479 207.293 351.999 207.76C351.532 208.213 350.979 208.573 350.339 208.84C349.699 209.107 349.005 209.24 348.259 209.24ZM355.248 209V198.18H357.408V200.36L357.208 200.04C357.448 199.333 357.834 198.827 358.368 198.52C358.901 198.2 359.541 198.04 360.288 198.04H360.948V200.1H360.008C359.261 200.1 358.654 200.333 358.188 200.8C357.734 201.253 357.508 201.907 357.508 202.76V209H355.248ZM367.574 209.24C366.494 209.24 365.534 208.993 364.694 208.5C363.867 207.993 363.22 207.313 362.754 206.46C362.287 205.593 362.054 204.627 362.054 203.56C362.054 202.467 362.287 201.5 362.754 200.66C363.234 199.82 363.874 199.16 364.674 198.68C365.474 198.187 366.38 197.94 367.394 197.94C368.207 197.94 368.934 198.08 369.574 198.36C370.214 198.64 370.754 199.027 371.194 199.52C371.634 200 371.967 200.553 372.194 201.18C372.434 201.807 372.554 202.473 372.554 203.18C372.554 203.353 372.547 203.533 372.534 203.72C372.52 203.907 372.494 204.08 372.454 204.24H363.834V202.44H371.174L370.094 203.26C370.227 202.607 370.18 202.027 369.954 201.52C369.74 201 369.407 200.593 368.954 200.3C368.514 199.993 367.994 199.84 367.394 199.84C366.794 199.84 366.26 199.993 365.794 200.3C365.327 200.593 364.967 201.02 364.714 201.58C364.46 202.127 364.36 202.793 364.414 203.58C364.347 204.313 364.447 204.953 364.714 205.5C364.994 206.047 365.38 206.473 365.874 206.78C366.38 207.087 366.954 207.24 367.594 207.24C368.247 207.24 368.8 207.093 369.254 206.8C369.72 206.507 370.087 206.127 370.354 205.66L372.194 206.56C371.98 207.067 371.647 207.527 371.194 207.94C370.754 208.34 370.22 208.66 369.594 208.9C368.98 209.127 368.307 209.24 367.574 209.24ZM379.839 209.24C378.759 209.24 377.799 208.993 376.959 208.5C376.133 207.993 375.486 207.313 375.019 206.46C374.553 205.593 374.319 204.627 374.319 203.56C374.319 202.467 374.553 201.5 375.019 200.66C375.499 199.82 376.139 199.16 376.939 198.68C377.739 198.187 378.646 197.94 379.659 197.94C380.473 197.94 381.199 198.08 381.839 198.36C382.479 198.64 383.019 199.027 383.459 199.52C383.899 200 384.233 200.553 384.459 201.18C384.699 201.807 384.819 202.473 384.819 203.18C384.819 203.353 384.813 203.533 384.799 203.72C384.786 203.907 384.759 204.08 384.719 204.24H376.099V202.44H383.439L382.359 203.26C382.493 202.607 382.446 202.027 382.219 201.52C382.006 201 381.673 200.593 381.219 200.3C380.779 199.993 380.259 199.84 379.659 199.84C379.059 199.84 378.526 199.993 378.059 200.3C377.593 200.593 377.233 201.02 376.979 201.58C376.726 202.127 376.626 202.793 376.679 203.58C376.613 204.313 376.713 204.953 376.979 205.5C377.259 206.047 377.646 206.473 378.139 206.78C378.646 207.087 379.219 207.24 379.859 207.24C380.513 207.24 381.066 207.093 381.519 206.8C381.986 206.507 382.353 206.127 382.619 205.66L384.459 206.56C384.246 207.067 383.913 207.527 383.459 207.94C383.019 208.34 382.486 208.66 381.859 208.9C381.246 209.127 380.573 209.24 379.839 209.24ZM387.025 209V198.18H389.185V200.3L388.925 200.02C389.192 199.34 389.618 198.827 390.205 198.48C390.792 198.12 391.472 197.94 392.245 197.94C393.045 197.94 393.752 198.113 394.365 198.46C394.978 198.807 395.458 199.287 395.805 199.9C396.152 200.513 396.325 201.22 396.325 202.02V209H394.085V202.62C394.085 202.073 393.985 201.613 393.785 201.24C393.585 200.853 393.298 200.56 392.925 200.36C392.565 200.147 392.152 200.04 391.685 200.04C391.218 200.04 390.798 200.147 390.425 200.36C390.065 200.56 389.785 200.853 389.585 201.24C389.385 201.627 389.285 202.087 389.285 202.62V209H387.025ZM398.744 209V198.18H401.004V209H398.744ZM398.744 196.7V194.1H401.004V196.7H398.744ZM403.646 209V198.18H405.806V200.3L405.546 200.02C405.813 199.34 406.24 198.827 406.826 198.48C407.413 198.12 408.093 197.94 408.866 197.94C409.666 197.94 410.373 198.113 410.986 198.46C411.6 198.807 412.08 199.287 412.426 199.9C412.773 200.513 412.946 201.22 412.946 202.02V209H410.706V202.62C410.706 202.073 410.606 201.613 410.406 201.24C410.206 200.853 409.92 200.56 409.546 200.36C409.186 200.147 408.773 200.04 408.306 200.04C407.84 200.04 407.42 200.147 407.046 200.36C406.686 200.56 406.406 200.853 406.206 201.24C406.006 201.627 405.906 202.087 405.906 202.62V209H403.646ZM420.585 213.4C419.798 213.4 419.072 213.273 418.405 213.02C417.738 212.767 417.165 212.413 416.685 211.96C416.205 211.52 415.845 211 415.605 210.4L417.685 209.54C417.872 210.047 418.212 210.467 418.705 210.8C419.212 211.133 419.832 211.3 420.565 211.3C421.138 211.3 421.652 211.187 422.105 210.96C422.558 210.747 422.918 210.427 423.185 210C423.452 209.587 423.585 209.087 423.585 208.5V206.06L423.985 206.52C423.612 207.213 423.092 207.74 422.425 208.1C421.772 208.46 421.032 208.64 420.205 208.64C419.205 208.64 418.305 208.407 417.505 207.94C416.705 207.473 416.072 206.833 415.605 206.02C415.152 205.207 414.925 204.293 414.925 203.28C414.925 202.253 415.152 201.34 415.605 200.54C416.072 199.74 416.698 199.107 417.485 198.64C418.272 198.173 419.172 197.94 420.185 197.94C421.012 197.94 421.745 198.12 422.385 198.48C423.038 198.827 423.572 199.333 423.985 200L423.685 200.56V198.18H425.825V208.5C425.825 209.433 425.598 210.267 425.145 211C424.705 211.747 424.092 212.333 423.305 212.76C422.518 213.187 421.612 213.4 420.585 213.4ZM420.465 206.54C421.065 206.54 421.598 206.4 422.065 206.12C422.532 205.827 422.898 205.44 423.165 204.96C423.445 204.467 423.585 203.913 423.585 203.3C423.585 202.687 423.445 202.133 423.165 201.64C422.885 201.147 422.512 200.76 422.045 200.48C421.578 200.187 421.052 200.04 420.465 200.04C419.852 200.04 419.305 200.187 418.825 200.48C418.345 200.76 417.965 201.147 417.685 201.64C417.418 202.12 417.285 202.673 417.285 203.3C417.285 203.9 417.418 204.447 417.685 204.94C417.965 205.433 418.345 205.827 418.825 206.12C419.305 206.4 419.852 206.54 420.465 206.54Z" fill="white"/>
<circle cx="378.622" cy="97.0001" r="69" transform="rotate(-60 378.622 97.0001)" stroke="url(#paint1_linear_24_79)" stroke-width="2"/>
<path d="M364.68 117.576C361.832 117.576 359.336 116.808 357.192 115.272C355.048 113.736 353.368 111.576 352.152 108.792C350.968 106.008 350.376 102.776 350.376 99.096C350.376 95.384 350.968 92.152 352.152 89.4C353.336 86.648 355 84.504 357.144 82.968C359.288 81.432 361.784 80.664 364.632 80.664C367.544 80.664 370.056 81.432 372.168 82.968C374.312 84.504 375.992 86.664 377.208 89.448C378.424 92.2 379.032 95.416 379.032 99.096C379.032 102.776 378.424 106.008 377.208 108.792C376.024 111.544 374.36 113.704 372.216 115.272C370.072 116.808 367.56 117.576 364.68 117.576ZM364.728 111.624C366.36 111.624 367.752 111.128 368.904 110.136C370.056 109.112 370.936 107.672 371.544 105.816C372.184 103.928 372.504 101.688 372.504 99.096C372.504 96.504 372.184 94.28 371.544 92.424C370.936 90.536 370.04 89.096 368.856 88.104C367.704 87.112 366.296 86.616 364.632 86.616C363.032 86.616 361.656 87.112 360.504 88.104C359.352 89.096 358.456 90.536 357.816 92.424C357.208 94.28 356.904 96.504 356.904 99.096C356.904 101.656 357.208 103.88 357.816 105.768C358.456 107.624 359.352 109.064 360.504 110.088C361.688 111.112 363.096 111.624 364.728 111.624ZM383.88 117V112.056L393.576 101.928C395.496 99.912 396.968 98.312 397.992 97.128C399.048 95.912 399.784 94.872 400.2 94.008C400.616 93.144 400.824 92.264 400.824 91.368C400.824 89.864 400.344 88.68 399.384 87.816C398.456 86.952 397.256 86.52 395.784 86.52C394.248 86.52 392.92 86.968 391.8 87.864C390.68 88.728 389.864 90.008 389.352 91.704L383.64 89.928C384.024 88.04 384.808 86.408 385.992 85.032C387.176 83.624 388.616 82.552 390.312 81.816C392.04 81.048 393.864 80.664 395.784 80.664C398.088 80.664 400.104 81.08 401.832 81.912C403.592 82.744 404.952 83.912 405.912 85.416C406.904 86.92 407.4 88.68 407.4 90.696C407.4 91.976 407.16 93.24 406.68 94.488C406.2 95.736 405.48 97.016 404.52 98.328C403.56 99.608 402.312 101.048 400.776 102.648L392.376 111.48H407.88V117H383.88Z" fill="#00C7F4"/>
<path d="M617.608 209V194.1H619.968V209H617.608ZM622.838 209V198.18H624.998V200.3L624.738 200.02C625.004 199.34 625.431 198.827 626.018 198.48C626.604 198.12 627.284 197.94 628.058 197.94C628.858 197.94 629.564 198.113 630.178 198.46C630.791 198.807 631.271 199.287 631.618 199.9C631.964 200.513 632.138 201.22 632.138 202.02V209H629.898V202.62C629.898 202.073 629.798 201.613 629.598 201.24C629.398 200.853 629.111 200.56 628.738 200.36C628.378 200.147 627.964 200.04 627.498 200.04C627.031 200.04 626.611 200.147 626.238 200.36C625.878 200.56 625.598 200.853 625.398 201.24C625.198 201.627 625.098 202.087 625.098 202.62V209H622.838ZM639.236 209.12C638.103 209.12 637.223 208.8 636.596 208.16C635.97 207.52 635.656 206.62 635.656 205.46V200.22H633.756V198.18H634.056C634.563 198.18 634.956 198.033 635.236 197.74C635.516 197.447 635.656 197.047 635.656 196.54V195.7H637.916V198.18H640.376V200.22H637.916V205.36C637.916 205.733 637.976 206.053 638.096 206.32C638.216 206.573 638.41 206.773 638.676 206.92C638.943 207.053 639.29 207.12 639.716 207.12C639.823 207.12 639.943 207.113 640.076 207.1C640.21 207.087 640.336 207.073 640.456 207.06V209C640.27 209.027 640.063 209.053 639.836 209.08C639.61 209.107 639.41 209.12 639.236 209.12ZM647.546 209.24C646.466 209.24 645.506 208.993 644.666 208.5C643.84 207.993 643.193 207.313 642.726 206.46C642.26 205.593 642.026 204.627 642.026 203.56C642.026 202.467 642.26 201.5 642.726 200.66C643.206 199.82 643.846 199.16 644.646 198.68C645.446 198.187 646.353 197.94 647.366 197.94C648.18 197.94 648.906 198.08 649.546 198.36C650.186 198.64 650.726 199.027 651.166 199.52C651.606 200 651.94 200.553 652.166 201.18C652.406 201.807 652.526 202.473 652.526 203.18C652.526 203.353 652.52 203.533 652.506 203.72C652.493 203.907 652.466 204.08 652.426 204.24H643.806V202.44H651.146L650.066 203.26C650.2 202.607 650.153 202.027 649.926 201.52C649.713 201 649.38 200.593 648.926 200.3C648.486 199.993 647.966 199.84 647.366 199.84C646.766 199.84 646.233 199.993 645.766 200.3C645.3 200.593 644.94 201.02 644.686 201.58C644.433 202.127 644.333 202.793 644.386 203.58C644.32 204.313 644.42 204.953 644.686 205.5C644.966 206.047 645.353 206.473 645.846 206.78C646.353 207.087 646.926 207.24 647.566 207.24C648.22 207.24 648.773 207.093 649.226 206.8C649.693 206.507 650.06 206.127 650.326 205.66L652.166 206.56C651.953 207.067 651.62 207.527 651.166 207.94C650.726 208.34 650.193 208.66 649.566 208.9C648.953 209.127 648.28 209.24 647.546 209.24ZM654.732 209V198.18H656.892V200.36L656.692 200.04C656.932 199.333 657.319 198.827 657.852 198.52C658.385 198.2 659.025 198.04 659.772 198.04H660.432V200.1H659.492C658.745 200.1 658.139 200.333 657.672 200.8C657.219 201.253 656.992 201.907 656.992 202.76V209H654.732ZM665.118 209L660.878 198.18H663.338L666.598 207H665.698L668.958 198.18H671.438L667.178 209H665.118ZM672.974 209V198.18H675.234V209H672.974ZM672.974 196.7V194.1H675.234V196.7H672.974ZM682.957 209.24C681.877 209.24 680.917 208.993 680.077 208.5C679.25 207.993 678.603 207.313 678.137 206.46C677.67 205.593 677.437 204.627 677.437 203.56C677.437 202.467 677.67 201.5 678.137 200.66C678.617 199.82 679.257 199.16 680.057 198.68C680.857 198.187 681.763 197.94 682.777 197.94C683.59 197.94 684.317 198.08 684.957 198.36C685.597 198.64 686.137 199.027 686.577 199.52C687.017 200 687.35 200.553 687.577 201.18C687.817 201.807 687.937 202.473 687.937 203.18C687.937 203.353 687.93 203.533 687.917 203.72C687.903 203.907 687.877 204.08 687.837 204.24H679.217V202.44H686.557L685.477 203.26C685.61 202.607 685.563 202.027 685.337 201.52C685.123 201 684.79 200.593 684.337 200.3C683.897 199.993 683.377 199.84 682.777 199.84C682.177 199.84 681.643 199.993 681.177 200.3C680.71 200.593 680.35 201.02 680.097 201.58C679.843 202.127 679.743 202.793 679.797 203.58C679.73 204.313 679.83 204.953 680.097 205.5C680.377 206.047 680.763 206.473 681.257 206.78C681.763 207.087 682.337 207.24 682.977 207.24C683.63 207.24 684.183 207.093 684.637 206.8C685.103 206.507 685.47 206.127 685.737 205.66L687.577 206.56C687.363 207.067 687.03 207.527 686.577 207.94C686.137 208.34 685.603 208.66 684.977 208.9C684.363 209.127 683.69 209.24 682.957 209.24ZM692.762 209L689.042 198.18H691.442L694.282 206.8H693.442L696.342 198.18H698.402L701.282 206.8H700.442L703.302 198.18H705.702L701.962 209H699.922L697.002 200.18H697.742L694.822 209H692.762Z" fill="white"/>
<circle cx="661.622" cy="97.0001" r="69" transform="rotate(-60 661.622 97.0001)" stroke="url(#paint2_linear_24_79)" stroke-width="2"/>
<path d="M647.328 117.576C644.48 117.576 641.984 116.808 639.84 115.272C637.696 113.736 636.016 111.576 634.8 108.792C633.616 106.008 633.024 102.776 633.024 99.096C633.024 95.384 633.616 92.152 634.8 89.4C635.984 86.648 637.648 84.504 639.792 82.968C641.936 81.432 644.432 80.664 647.28 80.664C650.192 80.664 652.704 81.432 654.816 82.968C656.96 84.504 658.64 86.664 659.856 89.448C661.072 92.2 661.68 95.416 661.68 99.096C661.68 102.776 661.072 106.008 659.856 108.792C658.672 111.544 657.008 113.704 654.864 115.272C652.72 116.808 650.208 117.576 647.328 117.576ZM647.376 111.624C649.008 111.624 650.4 111.128 651.552 110.136C652.704 109.112 653.584 107.672 654.192 105.816C654.832 103.928 655.152 101.688 655.152 99.096C655.152 96.504 654.832 94.28 654.192 92.424C653.584 90.536 652.688 89.096 651.504 88.104C650.352 87.112 648.944 86.616 647.28 86.616C645.68 86.616 644.304 87.112 643.152 88.104C642 89.096 641.104 90.536 640.464 92.424C639.856 94.28 639.552 96.504 639.552 99.096C639.552 101.656 639.856 103.88 640.464 105.768C641.104 107.624 642 109.064 643.152 110.088C644.336 111.112 645.744 111.624 647.376 111.624ZM678.384 117.576C676.432 117.576 674.576 117.224 672.816 116.52C671.088 115.784 669.6 114.76 668.352 113.448C667.136 112.104 666.304 110.52 665.856 108.696L671.568 106.68C672.144 108.312 673.024 109.56 674.208 110.424C675.392 111.256 676.784 111.672 678.384 111.672C679.664 111.672 680.768 111.432 681.696 110.952C682.656 110.472 683.408 109.784 683.952 108.888C684.496 107.96 684.768 106.872 684.768 105.624C684.768 104.376 684.496 103.32 683.952 102.456C683.44 101.56 682.704 100.872 681.744 100.392C680.784 99.912 679.648 99.672 678.336 99.672C677.728 99.672 677.088 99.736 676.416 99.864C675.776 99.992 675.2 100.184 674.688 100.44L673.2 97.32L682.464 86.76H667.872V81.24H689.808V86.376L680.496 97.272L680.592 94.824C682.736 94.856 684.608 95.32 686.208 96.216C687.808 97.112 689.056 98.344 689.952 99.912C690.848 101.48 691.296 103.32 691.296 105.432C691.296 107.736 690.736 109.816 689.616 111.672C688.496 113.496 686.96 114.936 685.008 115.992C683.056 117.048 680.848 117.576 678.384 117.576Z" fill="#00C7F4"/>
<path d="M899.714 209V206.8H900.574C901.241 206.8 901.774 206.607 902.174 206.22C902.574 205.82 902.774 205.287 902.774 204.62V194.1H905.114V204.54C905.114 205.447 904.927 206.233 904.554 206.9C904.194 207.567 903.667 208.087 902.974 208.46C902.294 208.82 901.494 209 900.574 209H899.714ZM913.167 209.24C912.127 209.24 911.174 208.993 910.307 208.5C909.454 208.007 908.774 207.333 908.267 206.48C907.76 205.627 907.507 204.66 907.507 203.58C907.507 202.487 907.76 201.52 908.267 200.68C908.774 199.827 909.454 199.16 910.307 198.68C911.16 198.187 912.114 197.94 913.167 197.94C914.234 197.94 915.187 198.187 916.027 198.68C916.88 199.16 917.554 199.827 918.047 200.68C918.554 201.52 918.807 202.487 918.807 203.58C918.807 204.673 918.554 205.647 918.047 206.5C917.54 207.353 916.86 208.027 916.007 208.52C915.154 209 914.207 209.24 913.167 209.24ZM913.167 207.14C913.807 207.14 914.374 206.987 914.867 206.68C915.36 206.373 915.747 205.953 916.027 205.42C916.32 204.873 916.467 204.26 916.467 203.58C916.467 202.9 916.32 202.293 916.027 201.76C915.747 201.227 915.36 200.807 914.867 200.5C914.374 200.193 913.807 200.04 913.167 200.04C912.54 200.04 911.974 200.193 911.467 200.5C910.974 200.807 910.58 201.227 910.287 201.76C910.007 202.293 909.867 202.9 909.867 203.58C909.867 204.26 910.007 204.873 910.287 205.42C910.58 205.953 910.974 206.373 911.467 206.68C911.974 206.987 912.54 207.14 913.167 207.14ZM926.793 209.24C925.953 209.24 925.187 209.067 924.493 208.72C923.813 208.373 923.287 207.873 922.913 207.22L923.173 206.8V209H921.013V193.86H923.273V200.42L922.913 199.9C923.313 199.287 923.847 198.807 924.513 198.46C925.18 198.113 925.94 197.94 926.793 197.94C927.82 197.94 928.74 198.187 929.553 198.68C930.38 199.173 931.027 199.847 931.493 200.7C931.973 201.553 932.213 202.513 932.213 203.58C932.213 204.647 931.973 205.607 931.493 206.46C931.027 207.313 930.387 207.993 929.573 208.5C928.76 208.993 927.833 209.24 926.793 209.24ZM926.573 207.14C927.213 207.14 927.78 206.987 928.273 206.68C928.767 206.373 929.153 205.953 929.433 205.42C929.727 204.873 929.873 204.26 929.873 203.58C929.873 202.9 929.727 202.293 929.433 201.76C929.153 201.227 928.767 200.807 928.273 200.5C927.78 200.193 927.213 200.04 926.573 200.04C925.947 200.04 925.38 200.193 924.873 200.5C924.38 200.807 923.987 201.227 923.693 201.76C923.413 202.293 923.273 202.9 923.273 203.58C923.273 204.26 923.413 204.873 923.693 205.42C923.987 205.953 924.38 206.373 924.873 206.68C925.38 206.987 925.947 207.14 926.573 207.14ZM945.368 209.24C944.288 209.24 943.281 209.047 942.348 208.66C941.428 208.273 940.615 207.733 939.908 207.04C939.215 206.347 938.668 205.533 938.268 204.6C937.881 203.667 937.688 202.647 937.688 201.54C937.688 200.433 937.881 199.413 938.268 198.48C938.668 197.533 939.215 196.72 939.908 196.04C940.601 195.347 941.415 194.813 942.348 194.44C943.281 194.053 944.288 193.86 945.368 193.86C946.461 193.86 947.468 194.053 948.388 194.44C949.321 194.813 950.135 195.347 950.828 196.04C951.535 196.733 952.081 197.547 952.468 198.48C952.855 199.413 953.048 200.433 953.048 201.54C953.048 202.647 952.848 203.667 952.448 204.6C952.061 205.533 951.521 206.347 950.828 207.04C950.135 207.733 949.321 208.273 948.388 208.66C947.455 209.047 946.448 209.24 945.368 209.24ZM945.368 207.08C946.141 207.08 946.848 206.94 947.488 206.66C948.141 206.38 948.708 205.993 949.188 205.5C949.668 204.993 950.041 204.407 950.308 203.74C950.575 203.06 950.708 202.327 950.708 201.54C950.708 200.753 950.575 200.027 950.308 199.36C950.041 198.693 949.668 198.107 949.188 197.6C948.708 197.093 948.141 196.7 947.488 196.42C946.848 196.14 946.141 196 945.368 196C944.595 196 943.881 196.14 943.228 196.42C942.588 196.7 942.028 197.093 941.548 197.6C941.068 198.107 940.695 198.693 940.428 199.36C940.175 200.027 940.048 200.753 940.048 201.54C940.048 202.327 940.175 203.06 940.428 203.74C940.695 204.407 941.068 204.993 941.548 205.5C942.028 205.993 942.595 206.38 943.248 206.66C943.901 206.94 944.608 207.08 945.368 207.08ZM956.686 209V200.22H954.686V198.18H956.686V197.62C956.686 196.807 956.853 196.127 957.186 195.58C957.52 195.02 957.98 194.593 958.566 194.3C959.166 194.007 959.853 193.86 960.626 193.86C960.773 193.86 960.94 193.873 961.126 193.9C961.313 193.913 961.466 193.933 961.586 193.96V195.92C961.48 195.893 961.36 195.88 961.226 195.88C961.093 195.867 960.986 195.86 960.906 195.86C960.306 195.86 959.826 196 959.466 196.28C959.106 196.547 958.926 196.993 958.926 197.62V198.18H961.406V200.22H958.926V209H956.686ZM964.538 209V200.22H962.538V198.18H964.538V197.62C964.538 196.807 964.705 196.127 965.038 195.58C965.371 195.02 965.831 194.593 966.418 194.3C967.018 194.007 967.705 193.86 968.478 193.86C968.625 193.86 968.791 193.873 968.978 193.9C969.165 193.913 969.318 193.933 969.438 193.96V195.92C969.331 195.893 969.211 195.88 969.078 195.88C968.945 195.867 968.838 195.86 968.758 195.86C968.158 195.86 967.678 196 967.318 196.28C966.958 196.547 966.778 196.993 966.778 197.62V198.18H969.258V200.22H966.778V209H964.538ZM976.054 209.24C974.974 209.24 974.014 208.993 973.174 208.5C972.348 207.993 971.701 207.313 971.234 206.46C970.768 205.593 970.534 204.627 970.534 203.56C970.534 202.467 970.768 201.5 971.234 200.66C971.714 199.82 972.354 199.16 973.154 198.68C973.954 198.187 974.861 197.94 975.874 197.94C976.688 197.94 977.414 198.08 978.054 198.36C978.694 198.64 979.234 199.027 979.674 199.52C980.114 200 980.448 200.553 980.674 201.18C980.914 201.807 981.034 202.473 981.034 203.18C981.034 203.353 981.028 203.533 981.014 203.72C981.001 203.907 980.974 204.08 980.934 204.24H972.314V202.44H979.654L978.574 203.26C978.708 202.607 978.661 202.027 978.434 201.52C978.221 201 977.888 200.593 977.434 200.3C976.994 199.993 976.474 199.84 975.874 199.84C975.274 199.84 974.741 199.993 974.274 200.3C973.808 200.593 973.448 201.02 973.194 201.58C972.941 202.127 972.841 202.793 972.894 203.58C972.828 204.313 972.928 204.953 973.194 205.5C973.474 206.047 973.861 206.473 974.354 206.78C974.861 207.087 975.434 207.24 976.074 207.24C976.728 207.24 977.281 207.093 977.734 206.8C978.201 206.507 978.568 206.127 978.834 205.66L980.674 206.56C980.461 207.067 980.128 207.527 979.674 207.94C979.234 208.34 978.701 208.66 978.074 208.9C977.461 209.127 976.788 209.24 976.054 209.24ZM983.24 209V198.18H985.4V200.36L985.2 200.04C985.44 199.333 985.827 198.827 986.36 198.52C986.893 198.2 987.533 198.04 988.28 198.04H988.94V200.1H988C987.253 200.1 986.647 200.333 986.18 200.8C985.727 201.253 985.5 201.907 985.5 202.76V209H983.24Z" fill="white"/>
<circle cx="944.622" cy="97" r="69" transform="rotate(-60 944.622 97)" stroke="url(#paint3_linear_24_79)" stroke-width="2"/>
<path d="M929.297 117.576C926.449 117.576 923.953 116.808 921.809 115.272C919.665 113.736 917.985 111.576 916.769 108.792C915.585 106.008 914.993 102.776 914.993 99.0959C914.993 95.3839 915.585 92.1519 916.769 89.3999C917.953 86.6479 919.617 84.5039 921.761 82.9679C923.905 81.4319 926.401 80.6639 929.249 80.6639C932.161 80.6639 934.673 81.4319 936.785 82.9679C938.929 84.5039 940.609 86.6639 941.825 89.4479C943.041 92.1999 943.649 95.4159 943.649 99.0959C943.649 102.776 943.041 106.008 941.825 108.792C940.641 111.544 938.977 113.704 936.833 115.272C934.689 116.808 932.177 117.576 929.297 117.576ZM929.345 111.624C930.977 111.624 932.369 111.128 933.521 110.136C934.673 109.112 935.553 107.672 936.161 105.816C936.801 103.928 937.121 101.688 937.121 99.0959C937.121 96.5039 936.801 94.2799 936.161 92.4239C935.553 90.5359 934.657 89.0959 933.473 88.1039C932.321 87.1119 930.913 86.6159 929.249 86.6159C927.649 86.6159 926.273 87.1119 925.121 88.1039C923.969 89.0959 923.073 90.5359 922.433 92.4239C921.825 94.2799 921.521 96.5039 921.521 99.0959C921.521 101.656 921.825 103.88 922.433 105.768C923.073 107.624 923.969 109.064 925.121 110.088C926.305 111.112 927.713 111.624 929.345 111.624ZM964.433 117V109.128H948.017V103.656L964.049 81.2399H970.865V103.656H976.097V109.128H970.865V117H964.433ZM952.817 106.008L951.665 103.656H964.433V86.3759L966.113 86.9039L952.817 106.008Z" fill="#00C7F4"/>
<defs>
<linearGradient id="paint0_linear_24_79" x1="95.6218" y1="26.3781" x2="95.6218" y2="166.378" gradientUnits="userSpaceOnUse">
<stop stop-color="#00C7F4" stop-opacity="0.3"/>
<stop offset="0.557292" stop-color="#D7F6FD" stop-opacity="0.63"/>
<stop offset="1" stop-color="#00C7F4" stop-opacity="0.51"/>
</linearGradient>
<linearGradient id="paint1_linear_24_79" x1="378.622" y1="27.0001" x2="378.622" y2="167" gradientUnits="userSpaceOnUse">
<stop stop-color="#00C7F4" stop-opacity="0.3"/>
<stop offset="0.557292" stop-color="#D7F6FD" stop-opacity="0.63"/>
<stop offset="1" stop-color="#00C7F4" stop-opacity="0.51"/>
</linearGradient>
<linearGradient id="paint2_linear_24_79" x1="661.622" y1="27.0001" x2="661.622" y2="167" gradientUnits="userSpaceOnUse">
<stop stop-color="#00C7F4" stop-opacity="0.3"/>
<stop offset="0.557292" stop-color="#D7F6FD" stop-opacity="0.63"/>
<stop offset="1" stop-color="#00C7F4" stop-opacity="0.51"/>
</linearGradient>
<linearGradient id="paint3_linear_24_79" x1="944.622" y1="27" x2="944.622" y2="167" gradientUnits="userSpaceOnUse">
<stop stop-color="#00C7F4" stop-opacity="0.3"/>
<stop offset="0.557292" stop-color="#D7F6FD" stop-opacity="0.63"/>
<stop offset="1" stop-color="#00C7F4" stop-opacity="0.51"/>
</linearGradient>
</defs>
</svg>
