<svg width="1120" height="147" viewBox="0 0 1120 147" fill="none" xmlns="http://www.w3.org/2000/svg">
<path d="M78.6523 139L83.6523 125H87.4523L92.4523 139H89.5523L88.4923 136H82.6123L81.5523 139H78.6523ZM83.4523 133.6H87.6523L85.7523 128H85.3523L83.4523 133.6ZM100.741 136.12C101.221 135.587 101.461 134.847 101.461 133.9C101.461 132.953 101.221 132.22 100.741 131.7C100.261 131.167 99.6343 130.9 98.8609 130.9C98.0876 130.9 97.4609 131.167 96.9809 131.7C96.5009 132.22 96.2609 132.953 96.2609 133.9C96.2609 134.847 96.5009 135.587 96.9809 136.12C97.4609 136.64 98.0876 136.9 98.8609 136.9C99.6343 136.9 100.261 136.64 100.741 136.12ZM93.7609 143V128.8H96.0609L96.2609 129.9H96.3609C96.5476 129.66 96.7809 129.447 97.0609 129.26C97.7276 128.82 98.4609 128.6 99.2609 128.6C100.594 128.6 101.708 129.093 102.601 130.08C103.508 131.053 103.961 132.327 103.961 133.9C103.961 135.473 103.508 136.753 102.601 137.74C101.708 138.713 100.594 139.2 99.2609 139.2C98.3809 139.2 97.6343 139 97.0209 138.6C96.7543 138.413 96.5343 138.213 96.3609 138H96.2609V143H93.7609ZM113.046 136.12C113.526 135.587 113.766 134.847 113.766 133.9C113.766 132.953 113.526 132.22 113.046 131.7C112.566 131.167 111.939 130.9 111.166 130.9C110.392 130.9 109.766 131.167 109.286 131.7C108.806 132.22 108.566 132.953 108.566 133.9C108.566 134.847 108.806 135.587 109.286 136.12C109.766 136.64 110.392 136.9 111.166 136.9C111.939 136.9 112.566 136.64 113.046 136.12ZM106.066 143V128.8H108.366L108.566 129.9H108.666C108.852 129.66 109.086 129.447 109.366 129.26C110.032 128.82 110.766 128.6 111.566 128.6C112.899 128.6 114.012 129.093 114.906 130.08C115.812 131.053 116.266 132.327 116.266 133.9C116.266 135.473 115.812 136.753 114.906 137.74C114.012 138.713 112.899 139.2 111.566 139.2C110.686 139.2 109.939 139 109.326 138.6C109.059 138.413 108.839 138.213 108.666 138H108.566V143H106.066ZM118.47 139V125H120.97V139H118.47ZM123.663 139V128.8H126.163V139H123.663ZM123.563 127.2V124.8H126.263V127.2H123.563ZM135.761 135.2H138.261C138.168 135.653 138.014 136.093 137.801 136.52C137.601 136.947 137.321 137.373 136.961 137.8C136.601 138.213 136.114 138.553 135.501 138.82C134.901 139.073 134.221 139.2 133.461 139.2C131.954 139.2 130.708 138.707 129.721 137.72C128.748 136.72 128.261 135.447 128.261 133.9C128.261 132.353 128.748 131.087 129.721 130.1C130.708 129.1 131.954 128.6 133.461 128.6C134.221 128.6 134.901 128.733 135.501 129C136.114 129.253 136.601 129.587 136.961 130C137.321 130.413 137.601 130.827 137.801 131.24C138.014 131.653 138.168 132.073 138.261 132.5H135.761C135.361 131.433 134.594 130.9 133.461 130.9C132.701 130.9 132.061 131.18 131.541 131.74C131.021 132.3 130.761 133.02 130.761 133.9C130.761 134.78 131.021 135.5 131.541 136.06C132.061 136.62 132.701 136.9 133.461 136.9C134.634 136.9 135.401 136.333 135.761 135.2ZM146.665 139L146.465 138H146.365C146.192 138.213 145.958 138.413 145.665 138.6C145.025 139 144.292 139.2 143.465 139.2C142.345 139.2 141.445 138.9 140.765 138.3C140.098 137.7 139.765 136.967 139.765 136.1C139.765 135.06 140.125 134.233 140.845 133.62C141.565 133.007 142.605 132.7 143.965 132.7H146.265V132.5C146.265 131.927 146.098 131.467 145.765 131.12C145.445 130.773 145.012 130.6 144.465 130.6C143.945 130.6 143.525 130.733 143.205 131C142.898 131.267 142.718 131.567 142.665 131.9H140.165C140.285 130.98 140.712 130.2 141.445 129.56C142.178 128.92 143.185 128.6 144.465 128.6C145.745 128.6 146.778 128.973 147.565 129.72C148.365 130.467 148.765 131.393 148.765 132.5V139H146.665ZM146.265 134.9V134.6H144.165C142.898 134.6 142.265 135.033 142.265 135.9C142.265 136.3 142.405 136.62 142.685 136.86C142.965 137.087 143.358 137.2 143.865 137.2C144.625 137.2 145.212 137 145.625 136.6C146.052 136.187 146.265 135.62 146.265 134.9ZM151.67 136.6V131.2H150.07V128.8H151.67V125.9H154.17V128.8H156.47V131.2H154.17V136.1C154.17 136.567 154.404 136.8 154.87 136.8H156.47V139H154.27C153.43 139 152.784 138.793 152.33 138.38C151.89 137.953 151.67 137.36 151.67 136.6ZM158.663 139V128.8H161.163V139H158.663ZM158.563 127.2V124.8H161.263V127.2H158.563ZM166.541 136.06C167.061 136.62 167.701 136.9 168.461 136.9C169.221 136.9 169.861 136.62 170.381 136.06C170.901 135.5 171.161 134.78 171.161 133.9C171.161 133.02 170.901 132.3 170.381 131.74C169.861 131.18 169.221 130.9 168.461 130.9C167.701 130.9 167.061 131.18 166.541 131.74C166.021 132.3 165.761 133.02 165.761 133.9C165.761 134.78 166.021 135.5 166.541 136.06ZM164.721 130.1C165.708 129.1 166.954 128.6 168.461 128.6C169.968 128.6 171.208 129.1 172.181 130.1C173.168 131.087 173.661 132.353 173.661 133.9C173.661 135.447 173.168 136.72 172.181 137.72C171.208 138.707 169.968 139.2 168.461 139.2C166.954 139.2 165.708 138.707 164.721 137.72C163.748 136.72 163.261 135.447 163.261 133.9C163.261 132.353 163.748 131.087 164.721 130.1ZM175.753 139V128.8H178.053L178.253 129.8H178.353C178.513 129.6 178.74 129.4 179.033 129.2C179.646 128.8 180.353 128.6 181.153 128.6C182.313 128.6 183.266 129 184.013 129.8C184.773 130.587 185.153 131.62 185.153 132.9V139H182.653V133.1C182.653 132.447 182.446 131.92 182.033 131.52C181.633 131.107 181.106 130.9 180.453 130.9C179.8 130.9 179.266 131.107 178.853 131.52C178.453 131.92 178.253 132.447 178.253 133.1V139H175.753Z" fill="white"/>
<path d="M370.153 134.6H372.753C372.753 135.227 373.033 135.753 373.593 136.18C374.166 136.593 374.92 136.8 375.853 136.8C376.8 136.8 377.5 136.64 377.953 136.32C378.42 135.987 378.653 135.547 378.653 135C378.653 134.067 377.886 133.467 376.353 133.2L373.953 132.8C371.62 132.413 370.453 131.147 370.453 129C370.453 127.8 370.92 126.8 371.853 126C372.786 125.2 374.053 124.8 375.653 124.8C377.386 124.8 378.72 125.227 379.653 126.08C380.586 126.933 381.053 128.04 381.053 129.4H378.453C378.453 128.773 378.206 128.253 377.713 127.84C377.22 127.413 376.533 127.2 375.653 127.2C374.786 127.2 374.133 127.367 373.693 127.7C373.266 128.02 373.053 128.453 373.053 129C373.053 129.427 373.193 129.773 373.473 130.04C373.753 130.293 374.246 130.48 374.953 130.6L377.153 131C378.58 131.253 379.62 131.7 380.273 132.34C380.926 132.967 381.253 133.853 381.253 135C381.253 136.253 380.786 137.267 379.853 138.04C378.92 138.813 377.586 139.2 375.853 139.2C374.093 139.2 372.7 138.773 371.673 137.92C370.66 137.053 370.153 135.947 370.153 134.6ZM390.448 135.2H392.948C392.855 135.653 392.702 136.093 392.488 136.52C392.288 136.947 392.008 137.373 391.648 137.8C391.288 138.213 390.802 138.553 390.188 138.82C389.588 139.073 388.908 139.2 388.148 139.2C386.642 139.2 385.395 138.707 384.408 137.72C383.435 136.72 382.948 135.447 382.948 133.9C382.948 132.353 383.435 131.087 384.408 130.1C385.395 129.1 386.642 128.6 388.148 128.6C388.908 128.6 389.588 128.733 390.188 129C390.802 129.253 391.288 129.587 391.648 130C392.008 130.413 392.288 130.827 392.488 131.24C392.702 131.653 392.855 132.073 392.948 132.5H390.448C390.048 131.433 389.282 130.9 388.148 130.9C387.388 130.9 386.748 131.18 386.228 131.74C385.708 132.3 385.448 133.02 385.448 133.9C385.448 134.78 385.708 135.5 386.228 136.06C386.748 136.62 387.388 136.9 388.148 136.9C389.322 136.9 390.088 136.333 390.448 135.2ZM394.952 139V128.8H397.052L397.252 129.7H397.352C397.472 129.54 397.619 129.393 397.792 129.26C398.206 128.953 398.659 128.8 399.152 128.8H401.152V131.2H399.352C398.086 131.2 397.452 131.833 397.452 133.1V139H394.952ZM404.257 133H409.457C409.337 132.32 409.057 131.767 408.617 131.34C408.19 130.913 407.637 130.7 406.957 130.7C406.237 130.7 405.644 130.913 405.177 131.34C404.724 131.753 404.417 132.307 404.257 133ZM409.057 136H411.657C411.59 136.253 411.457 136.54 411.257 136.86C411.07 137.167 410.797 137.513 410.437 137.9C410.09 138.273 409.61 138.587 408.997 138.84C408.384 139.08 407.704 139.2 406.957 139.2C405.45 139.2 404.204 138.707 403.217 137.72C402.244 136.72 401.757 135.447 401.757 133.9C401.757 132.353 402.244 131.087 403.217 130.1C404.204 129.1 405.45 128.6 406.957 128.6C408.357 128.6 409.537 129.093 410.497 130.08C411.47 131.053 411.957 132.26 411.957 133.7C411.957 133.82 411.937 134.06 411.897 134.42L411.857 134.7H404.257C404.364 135.42 404.664 136 405.157 136.44C405.65 136.88 406.25 137.1 406.957 137.1C407.49 137.1 407.944 136.987 408.317 136.76C408.69 136.52 408.937 136.267 409.057 136ZM416.054 133H421.254C421.134 132.32 420.854 131.767 420.414 131.34C419.987 130.913 419.434 130.7 418.754 130.7C418.034 130.7 417.441 130.913 416.974 131.34C416.521 131.753 416.214 132.307 416.054 133ZM420.854 136H423.454C423.387 136.253 423.254 136.54 423.054 136.86C422.867 137.167 422.594 137.513 422.234 137.9C421.887 138.273 421.407 138.587 420.794 138.84C420.181 139.08 419.501 139.2 418.754 139.2C417.247 139.2 416.001 138.707 415.014 137.72C414.041 136.72 413.554 135.447 413.554 133.9C413.554 132.353 414.041 131.087 415.014 130.1C416.001 129.1 417.247 128.6 418.754 128.6C420.154 128.6 421.334 129.093 422.294 130.08C423.267 131.053 423.754 132.26 423.754 133.7C423.754 133.82 423.734 134.06 423.694 134.42L423.654 134.7H416.054C416.161 135.42 416.461 136 416.954 136.44C417.447 136.88 418.047 137.1 418.754 137.1C419.287 137.1 419.741 136.987 420.114 136.76C420.487 136.52 420.734 136.267 420.854 136ZM425.851 139V128.8H428.151L428.351 129.8H428.451C428.611 129.6 428.837 129.4 429.131 129.2C429.744 128.8 430.451 128.6 431.251 128.6C432.411 128.6 433.364 129 434.111 129.8C434.871 130.587 435.251 131.62 435.251 132.9V139H432.751V133.1C432.751 132.447 432.544 131.92 432.131 131.52C431.731 131.107 431.204 130.9 430.551 130.9C429.897 130.9 429.364 131.107 428.951 131.52C428.551 131.92 428.351 132.447 428.351 133.1V139H425.851ZM437.745 139V128.8H440.245V139H437.745ZM437.645 127.2V124.8H440.345V127.2H437.645ZM442.843 139V128.8H445.143L445.343 129.8H445.443C445.603 129.6 445.83 129.4 446.123 129.2C446.736 128.8 447.443 128.6 448.243 128.6C449.403 128.6 450.356 129 451.103 129.8C451.863 130.587 452.243 131.62 452.243 132.9V139H449.743V133.1C449.743 132.447 449.536 131.92 449.123 131.52C448.723 131.107 448.196 130.9 447.543 130.9C446.89 130.9 446.356 131.107 445.943 131.52C445.543 131.92 445.343 132.447 445.343 133.1V139H442.843ZM454.538 139.5H457.138C457.191 139.713 457.278 139.92 457.398 140.12C457.518 140.32 457.744 140.513 458.078 140.7C458.424 140.9 458.844 141 459.338 141C460.058 141 460.638 140.793 461.078 140.38C461.518 139.967 461.738 139.407 461.738 138.7V137.3H461.638C461.478 137.487 461.251 137.673 460.958 137.86C460.411 138.22 459.704 138.4 458.838 138.4C457.518 138.4 456.418 137.947 455.538 137.04C454.671 136.12 454.238 134.94 454.238 133.5C454.238 132.06 454.671 130.887 455.538 129.98C456.418 129.06 457.518 128.6 458.838 128.6C459.664 128.6 460.398 128.8 461.038 129.2C461.331 129.387 461.564 129.587 461.738 129.8H461.838L462.038 128.8H464.238V138.72C464.238 140.067 463.791 141.147 462.898 141.96C462.018 142.787 460.831 143.2 459.338 143.2C458.591 143.2 457.918 143.093 457.318 142.88C456.718 142.667 456.251 142.407 455.918 142.1C455.584 141.793 455.304 141.46 455.078 141.1C454.864 140.74 454.718 140.427 454.638 140.16C454.571 139.893 454.538 139.673 454.538 139.5ZM461.018 131.56C460.538 131.053 459.944 130.8 459.238 130.8C458.531 130.8 457.938 131.053 457.458 131.56C456.978 132.067 456.738 132.713 456.738 133.5C456.738 134.287 456.978 134.933 457.458 135.44C457.938 135.947 458.531 136.2 459.238 136.2C459.944 136.2 460.538 135.947 461.018 135.44C461.498 134.933 461.738 134.287 461.738 133.5C461.738 132.713 461.498 132.067 461.018 131.56Z" fill="white"/>
<path d="M660.553 139V125H663.153V139H660.553ZM665.958 139V128.8H668.258L668.458 129.8H668.558C668.718 129.6 668.945 129.4 669.238 129.2C669.852 128.8 670.558 128.6 671.358 128.6C672.518 128.6 673.472 129 674.218 129.8C674.978 130.587 675.358 131.62 675.358 132.9V139H672.858V133.1C672.858 132.447 672.652 131.92 672.238 131.52C671.838 131.107 671.312 130.9 670.658 130.9C670.005 130.9 669.472 131.107 669.058 131.52C668.658 131.92 668.458 132.447 668.458 133.1V139H665.958ZM678.262 136.6V131.2H676.662V128.8H678.262V125.9H680.762V128.8H683.062V131.2H680.762V136.1C680.762 136.567 680.995 136.8 681.462 136.8H683.062V139H680.862C680.022 139 679.375 138.793 678.922 138.38C678.482 137.953 678.262 137.36 678.262 136.6ZM686.864 133H692.064C691.944 132.32 691.664 131.767 691.224 131.34C690.798 130.913 690.244 130.7 689.564 130.7C688.844 130.7 688.251 130.913 687.784 131.34C687.331 131.753 687.024 132.307 686.864 133ZM691.664 136H694.264C694.198 136.253 694.064 136.54 693.864 136.86C693.678 137.167 693.404 137.513 693.044 137.9C692.698 138.273 692.218 138.587 691.604 138.84C690.991 139.08 690.311 139.2 689.564 139.2C688.058 139.2 686.811 138.707 685.824 137.72C684.851 136.72 684.364 135.447 684.364 133.9C684.364 132.353 684.851 131.087 685.824 130.1C686.811 129.1 688.058 128.6 689.564 128.6C690.964 128.6 692.144 129.093 693.104 130.08C694.078 131.053 694.564 132.26 694.564 133.7C694.564 133.82 694.544 134.06 694.504 134.42L694.464 134.7H686.864C686.971 135.42 687.271 136 687.764 136.44C688.258 136.88 688.858 137.1 689.564 137.1C690.098 137.1 690.551 136.987 690.924 136.76C691.298 136.52 691.544 136.267 691.664 136ZM696.661 139V128.8H698.761L698.961 129.7H699.061C699.181 129.54 699.328 129.393 699.501 129.26C699.915 128.953 700.368 128.8 700.861 128.8H702.861V131.2H701.061C699.795 131.2 699.161 131.833 699.161 133.1V139H696.661ZM706.557 139L703.057 128.8H705.657L708.057 135.9H708.457L710.857 128.8H713.457L709.957 139H706.557ZM714.747 139V128.8H717.247V139H714.747ZM714.647 127.2V124.8H717.347V127.2H714.647ZM721.845 133H727.045C726.925 132.32 726.645 131.767 726.205 131.34C725.778 130.913 725.225 130.7 724.545 130.7C723.825 130.7 723.232 130.913 722.765 131.34C722.312 131.753 722.005 132.307 721.845 133ZM726.645 136H729.245C729.178 136.253 729.045 136.54 728.845 136.86C728.658 137.167 728.385 137.513 728.025 137.9C727.678 138.273 727.198 138.587 726.585 138.84C725.972 139.08 725.292 139.2 724.545 139.2C723.038 139.2 721.792 138.707 720.805 137.72C719.832 136.72 719.345 135.447 719.345 133.9C719.345 132.353 719.832 131.087 720.805 130.1C721.792 129.1 723.038 128.6 724.545 128.6C725.945 128.6 727.125 129.093 728.085 130.08C729.058 131.053 729.545 132.26 729.545 133.7C729.545 133.82 729.525 134.06 729.485 134.42L729.445 134.7H721.845C721.952 135.42 722.252 136 722.745 136.44C723.238 136.88 723.838 137.1 724.545 137.1C725.078 137.1 725.532 136.987 725.905 136.76C726.278 136.52 726.525 136.267 726.645 136ZM732.846 139L730.246 128.8H732.846L734.546 135.5H734.946L736.646 128.8H739.446L741.146 135.5H741.546L743.246 128.8H745.846L743.246 139H739.946L738.246 132.4H737.846L736.146 139H732.846Z" fill="white"/>
<path d="M944.253 139V136.5H947.353C947.953 136.5 948.253 136.167 948.253 135.5V125H950.853V136.2C950.853 138.067 949.919 139 948.053 139H944.253ZM956.336 136.06C956.856 136.62 957.496 136.9 958.256 136.9C959.016 136.9 959.656 136.62 960.176 136.06C960.696 135.5 960.956 134.78 960.956 133.9C960.956 133.02 960.696 132.3 960.176 131.74C959.656 131.18 959.016 130.9 958.256 130.9C957.496 130.9 956.856 131.18 956.336 131.74C955.816 132.3 955.556 133.02 955.556 133.9C955.556 134.78 955.816 135.5 956.336 136.06ZM954.516 130.1C955.503 129.1 956.749 128.6 958.256 128.6C959.763 128.6 961.003 129.1 961.976 130.1C962.963 131.087 963.456 132.353 963.456 133.9C963.456 135.447 962.963 136.72 961.976 137.72C961.003 138.707 959.763 139.2 958.256 139.2C956.749 139.2 955.503 138.707 954.516 137.72C953.543 136.72 953.056 135.447 953.056 133.9C953.056 132.353 953.543 131.087 954.516 130.1ZM968.868 136.12C969.348 136.64 969.975 136.9 970.748 136.9C971.521 136.9 972.148 136.64 972.628 136.12C973.108 135.587 973.348 134.847 973.348 133.9C973.348 132.953 973.108 132.22 972.628 131.7C972.148 131.167 971.521 130.9 970.748 130.9C969.975 130.9 969.348 131.167 968.868 131.7C968.388 132.22 968.148 132.953 968.148 133.9C968.148 134.847 968.388 135.587 968.868 136.12ZM965.648 139V125H968.148V129.9H968.248C968.435 129.66 968.668 129.447 968.948 129.26C969.601 128.82 970.335 128.6 971.148 128.6C972.481 128.6 973.595 129.093 974.488 130.08C975.395 131.053 975.848 132.327 975.848 133.9C975.848 135.473 975.395 136.753 974.488 137.74C973.595 138.713 972.481 139.2 971.148 139.2C970.268 139.2 969.508 138.987 968.868 138.56C968.588 138.373 968.348 138.153 968.148 137.9H968.048L967.848 139H965.648ZM986.33 135.42C987.117 136.273 988.124 136.7 989.35 136.7C990.577 136.7 991.584 136.273 992.37 135.42C993.157 134.553 993.55 133.413 993.55 132C993.55 130.587 993.157 129.453 992.37 128.6C991.584 127.733 990.577 127.3 989.35 127.3C988.124 127.3 987.117 127.733 986.33 128.6C985.544 129.453 985.15 130.587 985.15 132C985.15 133.413 985.544 134.553 986.33 135.42ZM984.51 126.84C985.817 125.48 987.43 124.8 989.35 124.8C991.27 124.8 992.884 125.48 994.19 126.84C995.497 128.2 996.15 129.92 996.15 132C996.15 134.08 995.497 135.8 994.19 137.16C992.884 138.52 991.27 139.2 989.35 139.2C987.43 139.2 985.817 138.52 984.51 137.16C983.204 135.8 982.55 134.08 982.55 132C982.55 129.92 983.204 128.2 984.51 126.84ZM999.241 139V131.2H997.541V128.8H999.241V127.3C999.241 126.54 999.468 125.933 999.921 125.48C1000.37 125.027 1000.98 124.8 1001.74 124.8H1003.94V127H1002.44C1002.24 127 1002.07 127.067 1001.94 127.2C1001.81 127.333 1001.74 127.5 1001.74 127.7V128.8H1003.94V131.2H1001.74V139H999.241ZM1006.64 139V131.2H1004.94V128.8H1006.64V127.3C1006.64 126.54 1006.87 125.933 1007.32 125.48C1007.78 125.027 1008.38 124.8 1009.14 124.8H1011.34V127H1009.84C1009.64 127 1009.48 127.067 1009.34 127.2C1009.21 127.333 1009.14 127.5 1009.14 127.7V128.8H1011.34V131.2H1009.14V139H1006.64ZM1014.76 133H1019.96C1019.84 132.32 1019.56 131.767 1019.12 131.34C1018.69 130.913 1018.14 130.7 1017.46 130.7C1016.74 130.7 1016.14 130.913 1015.68 131.34C1015.22 131.753 1014.92 132.307 1014.76 133ZM1019.56 136H1022.16C1022.09 136.253 1021.96 136.54 1021.76 136.86C1021.57 137.167 1021.3 137.513 1020.94 137.9C1020.59 138.273 1020.11 138.587 1019.5 138.84C1018.88 139.08 1018.2 139.2 1017.46 139.2C1015.95 139.2 1014.7 138.707 1013.72 137.72C1012.74 136.72 1012.26 135.447 1012.26 133.9C1012.26 132.353 1012.74 131.087 1013.72 130.1C1014.7 129.1 1015.95 128.6 1017.46 128.6C1018.86 128.6 1020.04 129.093 1021 130.08C1021.97 131.053 1022.46 132.26 1022.46 133.7C1022.46 133.82 1022.44 134.06 1022.4 134.42L1022.36 134.7H1014.76C1014.86 135.42 1015.16 136 1015.66 136.44C1016.15 136.88 1016.75 137.1 1017.46 137.1C1017.99 137.1 1018.44 136.987 1018.82 136.76C1019.19 136.52 1019.44 136.267 1019.56 136ZM1024.55 139V128.8H1026.65L1026.85 129.7H1026.95C1027.07 129.54 1027.22 129.393 1027.39 129.26C1027.81 128.953 1028.26 128.8 1028.75 128.8H1030.75V131.2H1028.95C1027.69 131.2 1027.05 131.833 1027.05 133.1V139H1024.55Z" fill="white"/>
<path d="M112.001 92.1C114.086 94.82 116.67 96.18 119.753 96.18C122.835 96.18 125.419 94.82 127.505 92.1C129.59 89.3347 130.633 85.368 130.633 80.2C130.633 75.032 129.59 71.088 127.505 68.368C125.419 65.6027 122.835 64.22 119.753 64.22C116.67 64.22 114.086 65.6027 112.001 68.368C109.915 71.088 108.873 75.032 108.873 80.2C108.873 85.368 109.915 89.3347 112.001 92.1ZM105.677 62.316C109.439 57.9187 114.131 55.72 119.753 55.72C125.374 55.72 130.066 57.9187 133.829 62.316C137.591 66.668 139.473 72.6293 139.473 80.2C139.473 87.7707 137.591 93.7547 133.829 98.152C130.066 102.504 125.374 104.68 119.753 104.68C114.131 104.68 109.439 102.504 105.677 98.152C101.914 93.7547 100.033 87.7707 100.033 80.2C100.033 72.6293 101.914 66.668 105.677 62.316ZM154.087 104V70H144.227V61.5H152.047C153.407 61.5 154.087 60.82 154.087 59.46V56.4H162.927V104H154.087Z" fill="white"/>
<path d="M390.36 92.1C392.445 94.82 395.029 96.18 398.112 96.18C401.195 96.18 403.779 94.82 405.864 92.1C407.949 89.3347 408.992 85.368 408.992 80.2C408.992 75.032 407.949 71.088 405.864 68.368C403.779 65.6027 401.195 64.22 398.112 64.22C395.029 64.22 392.445 65.6027 390.36 68.368C388.275 71.088 387.232 75.032 387.232 80.2C387.232 85.368 388.275 89.3347 390.36 92.1ZM384.036 62.316C387.799 57.9187 392.491 55.72 398.112 55.72C403.733 55.72 408.425 57.9187 412.188 62.316C415.951 66.668 417.832 72.6293 417.832 80.2C417.832 87.7707 415.951 93.7547 412.188 98.152C408.425 102.504 403.733 104.68 398.112 104.68C392.491 104.68 387.799 102.504 384.036 98.152C380.273 93.7547 378.392 87.7707 378.392 80.2C378.392 72.6293 380.273 66.668 384.036 62.316ZM424.627 104V96.18L444.007 77.48C444.732 76.7547 445.253 76.188 445.571 75.78C445.933 75.3267 446.273 74.692 446.591 73.876C446.908 73.06 447.067 72.108 447.067 71.02C447.067 69.116 446.432 67.5067 445.163 66.192C443.893 64.8773 442.261 64.22 440.267 64.22C438.181 64.22 436.413 65.0133 434.963 66.6C433.512 68.1413 432.787 70.068 432.787 72.38H423.947C423.947 67.484 425.465 63.4947 428.503 60.412C431.585 57.284 435.507 55.72 440.267 55.72C445.117 55.72 448.993 57.148 451.895 60.004C454.796 62.86 456.247 66.532 456.247 71.02C456.247 71.836 456.179 72.6293 456.043 73.4C455.907 74.1253 455.748 74.76 455.567 75.304C455.431 75.848 455.159 76.4827 454.751 77.208C454.388 77.888 454.093 78.4093 453.867 78.772C453.64 79.0893 453.232 79.588 452.643 80.268C452.053 80.948 451.645 81.4013 451.419 81.628C451.237 81.8093 450.784 82.2627 450.059 82.988C449.333 83.7133 448.903 84.144 448.767 84.28L437.547 95.16V95.5H456.927V104H424.627Z" fill="white"/>
<path d="M675.194 92.1C677.279 94.82 679.863 96.18 682.946 96.18C686.029 96.18 688.613 94.82 690.698 92.1C692.783 89.3347 693.826 85.368 693.826 80.2C693.826 75.032 692.783 71.088 690.698 68.368C688.613 65.6027 686.029 64.22 682.946 64.22C679.863 64.22 677.279 65.6027 675.194 68.368C673.109 71.088 672.066 75.032 672.066 80.2C672.066 85.368 673.109 89.3347 675.194 92.1ZM668.87 62.316C672.633 57.9187 677.325 55.72 682.946 55.72C688.567 55.72 693.259 57.9187 697.022 62.316C700.785 66.668 702.666 72.6293 702.666 80.2C702.666 87.7707 700.785 93.7547 697.022 98.152C693.259 102.504 688.567 104.68 682.946 104.68C677.325 104.68 672.633 102.504 668.87 98.152C665.107 93.7547 663.226 87.7707 663.226 80.2C663.226 72.6293 665.107 66.668 668.87 62.316ZM707.761 89.72H716.601C716.601 91.5333 717.326 93.0747 718.777 94.344C720.273 95.568 722.267 96.18 724.761 96.18C727.254 96.18 729.181 95.6133 730.541 94.48C731.901 93.3467 732.581 91.8733 732.581 90.06C732.581 88.1107 731.878 86.5467 730.473 85.368C729.067 84.1893 727.05 83.6 724.421 83.6H721.361V75.78H724.421C726.914 75.78 728.773 75.2133 729.997 74.08C731.266 72.9467 731.901 71.4733 731.901 69.66C731.901 68.0733 731.289 66.7813 730.065 65.784C728.841 64.7413 727.073 64.22 724.761 64.22C722.403 64.22 720.567 64.7413 719.253 65.784C717.938 66.8267 717.281 68.232 717.281 70H708.441C708.441 65.9653 709.959 62.588 712.997 59.868C716.079 57.1027 720.114 55.72 725.101 55.72C729.77 55.72 733.533 57.0573 736.389 59.732C739.29 62.3613 740.741 65.6707 740.741 69.66C740.741 72.7427 739.653 75.3267 737.477 77.412C736.434 78.364 735.369 79.0667 734.281 79.52V79.86C735.641 80.4493 736.819 81.1973 737.817 82.104C740.219 84.2347 741.421 87.1133 741.421 90.74C741.421 94.5933 739.879 97.88 736.797 100.6C733.714 103.32 729.702 104.68 724.761 104.68C719.593 104.68 715.467 103.275 712.385 100.464C709.302 97.608 707.761 94.0267 707.761 89.72Z" fill="white"/>
<path d="M960.526 92.1C962.611 94.82 965.195 96.18 968.278 96.18C971.361 96.18 973.945 94.82 976.03 92.1C978.115 89.3347 979.158 85.368 979.158 80.2C979.158 75.032 978.115 71.088 976.03 68.368C973.945 65.6027 971.361 64.22 968.278 64.22C965.195 64.22 962.611 65.6027 960.526 68.368C958.441 71.088 957.398 75.032 957.398 80.2C957.398 85.368 958.441 89.3347 960.526 92.1ZM954.202 62.316C957.965 57.9187 962.657 55.72 968.278 55.72C973.899 55.72 978.591 57.9187 982.354 62.316C986.117 66.668 987.998 72.6293 987.998 80.2C987.998 87.7707 986.117 93.7547 982.354 98.152C978.591 102.504 973.899 104.68 968.278 104.68C962.657 104.68 957.965 102.504 954.202 98.152C950.439 93.7547 948.558 87.7707 948.558 80.2C948.558 72.6293 950.439 66.668 954.202 62.316ZM992.073 94.48V87L1009.07 56.4H1022.67V86.32H1028.11V94.48H1022.67V104H1013.83V94.48H992.073ZM1001.93 86.32H1013.83V66.94H1012.47L1001.93 85.98V86.32Z" fill="white"/>
<rect width="1000" height="20" transform="matrix(-1 0 0 1 1060 0)" fill="url(#paint0_linear_1_16)"/>
<line x1="132.5" y1="21" x2="132.5" y2="37" stroke="#00C7F4"/>
<line x1="417.5" y1="21" x2="417.5" y2="37" stroke="#00C7F4"/>
<line x1="702.5" y1="21" x2="702.5" y2="37" stroke="#00C7F4"/>
<line x1="987.5" y1="21" x2="987.5" y2="37" stroke="#00C7F4"/>
<defs>
<linearGradient id="paint0_linear_1_16" x1="-40.5" y1="9.72999" x2="1048.5" y2="9.72999" gradientUnits="userSpaceOnUse">
<stop stop-color="#00C7F4"/>
<stop offset="1" stop-color="#00C7F4" stop-opacity="0"/>
</linearGradient>
</defs>
</svg>
