<svg width="32" height="32" viewBox="0 0 32 32" fill="none" xmlns="http://www.w3.org/2000/svg">
<path d="M29.9487 17.16H2.05131C0.918125 17.16 0 16.4438 0 15.56C0 14.6761 0.918125 13.96 2.05131 13.96H29.9487C31.0819 13.96 32 14.6761 32 15.56C32 16.4439 31.0819 17.16 29.9487 17.16Z" fill="white"/>
<path d="M14.976 8.2H1.66402C0.744781 8.2 0 7.48382 0 6.6C0 5.71618 0.744781 5 1.66402 5H14.976C15.8952 5 16.64 5.71613 16.64 6.6C16.64 7.48387 15.8952 8.2 14.976 8.2Z" fill="white"/>
<path d="M30.3358 26.1199H17.0239C16.1046 26.1199 15.3599 25.4037 15.3599 24.5199C15.3599 23.6361 16.1046 22.9199 17.0239 22.9199H30.3358C31.255 22.9199 31.9999 23.636 31.9999 24.5199C31.9999 25.4038 31.255 26.1199 30.3358 26.1199Z" fill="white"/>
</svg>
