<svg width="20" height="20" viewBox="0 0 20 20" fill="none" xmlns="http://www.w3.org/2000/svg">
<g clip-path="url(#clip0_356_3733)">
<path d="M12.2339 15.4854C12.2339 16.7396 12.2339 17.9938 12.2332 19.2474C12.2332 19.361 12.2299 19.4754 12.2227 19.589C12.2084 19.802 12.1039 19.9398 11.885 19.9718C11.789 19.9862 11.691 19.9979 11.5943 19.9979C10.6008 19.9999 9.60721 20.0006 8.61364 19.9986C8.13417 19.9979 8.01136 19.8725 8.01136 19.3859C8.01071 16.7801 8.00679 14.1744 8.01724 11.5686C8.01855 11.3243 7.94865 11.2786 7.72132 11.2832C7.01322 11.2989 6.30446 11.291 5.59571 11.2877C5.12342 11.2858 5.00388 11.1682 5.00257 10.6927C4.99931 9.73175 4.99931 8.77084 5.00257 7.80994C5.00388 7.32132 5.12342 7.2057 5.61008 7.20505C6.33517 7.20439 7.0596 7.19917 7.78469 7.20897C7.96041 7.21158 8.0192 7.17826 8.01659 6.98621C8.00483 6.22259 7.99307 5.45634 8.01985 4.69141C8.07015 3.26149 8.50782 1.9903 9.64575 1.04442C10.4368 0.386612 11.3735 0.0691409 12.3861 0.0247211C13.3613 -0.0183922 14.3399 0.00643065 15.3171 0.00839034C15.6431 0.00904357 15.7848 0.146876 15.7861 0.467612C15.7914 1.43636 15.7914 2.40575 15.7868 3.37449C15.7848 3.71613 15.6503 3.84417 15.2805 3.85266C14.6214 3.86703 13.9617 3.86834 13.3019 3.87814C12.5566 3.88924 12.2502 4.1845 12.2358 4.93311C12.2227 5.60855 12.2378 6.28464 12.228 6.96074C12.2254 7.12927 12.2848 7.15932 12.437 7.15801C13.3084 7.15148 14.1798 7.15344 15.0512 7.1554C15.5634 7.15605 15.6895 7.28147 15.6901 7.78708C15.6914 8.75582 15.6914 9.72521 15.6901 10.694C15.6895 11.1453 15.5797 11.257 15.1277 11.259C14.2648 11.2623 13.4012 11.2727 12.5383 11.2531C12.2704 11.2472 12.2267 11.3348 12.2293 11.5765C12.2397 12.879 12.2339 14.1822 12.2339 15.4854Z" fill="#9F9F9F"/>
</g>
<defs>
<clipPath id="clip0_356_3733">
<rect width="10.7901" height="20" fill="white" transform="translate(5)"/>
</clipPath>
</defs>
</svg>
