<svg width="16" height="16" viewBox="0 0 16 16" fill="none" xmlns="http://www.w3.org/2000/svg">
<path d="M9.06354 11.84C9.06354 12.7179 9.06354 13.5959 9.06309 14.4733C9.06309 14.5529 9.0608 14.6329 9.05577 14.7125C9.04571 14.8615 8.97255 14.958 8.81937 14.9804C8.75215 14.9905 8.68356 14.9987 8.61589 14.9987C7.9204 15.0001 7.22492 15.0005 6.52943 14.9992C6.1938 14.9987 6.10784 14.9109 6.10784 14.5703C6.10738 12.7463 6.10464 10.9223 6.11195 9.09828C6.11287 8.92727 6.06394 8.89526 5.90482 8.89846C5.40915 8.90943 4.91303 8.90395 4.4169 8.90166C4.08631 8.90029 4.00263 8.81798 4.00171 8.4851C3.99943 7.81247 3.99943 7.13985 4.00171 6.46723C4.00263 6.1252 4.08631 6.04426 4.42696 6.04381C4.93452 6.04335 5.44162 6.03969 5.94917 6.04655C6.07217 6.04838 6.11333 6.02506 6.1115 5.89063C6.10327 5.35609 6.09504 4.81973 6.11378 4.28429C6.14899 3.28335 6.45535 2.39353 7.25189 1.73142C7.80563 1.27097 8.46134 1.04874 9.17009 1.01765C9.85277 0.987467 10.5377 1.00484 11.2218 1.00621C11.45 1.00667 11.5492 1.10315 11.5501 1.32767C11.5538 2.00578 11.5538 2.68435 11.5506 3.36246C11.5492 3.6016 11.455 3.69122 11.1962 3.69717C10.7348 3.70723 10.273 3.70814 9.81116 3.715C9.28943 3.72277 9.07498 3.92945 9.06492 4.45347C9.05577 4.92627 9.06629 5.39953 9.05943 5.87279C9.0576 5.99077 9.09921 6.0118 9.20575 6.01089C9.81573 6.00631 10.4257 6.00768 11.0357 6.00906C11.3942 6.00951 11.4824 6.09731 11.4829 6.45122C11.4838 7.12933 11.4838 7.8079 11.4829 8.48601C11.4824 8.80198 11.4056 8.88017 11.0892 8.88154C10.4852 8.88383 9.88066 8.89114 9.27663 8.87742C9.08915 8.87331 9.05851 8.93458 9.06034 9.10377C9.06766 10.0155 9.06354 10.9278 9.06354 11.84Z" fill="white"/>
</svg>
