<svg width="39" height="39" viewBox="0 0 39 39" fill="none" xmlns="http://www.w3.org/2000/svg">
<path d="M19.9306 23.36C19.9306 24.1282 19.9306 24.8964 19.9302 25.6642C19.9302 25.7338 19.9282 25.8038 19.9238 25.8734C19.915 26.0038 19.851 26.0883 19.7169 26.1079C19.6581 26.1167 19.5981 26.1239 19.5389 26.1239C18.9304 26.1251 18.3218 26.1255 17.7133 26.1243C17.4196 26.1239 17.3444 26.0471 17.3444 25.749C17.344 24.153 17.3416 22.557 17.348 20.961C17.3488 20.8114 17.3059 20.7834 17.1667 20.7862C16.733 20.7958 16.2989 20.791 15.8648 20.789C15.5755 20.7878 15.5023 20.7157 15.5015 20.4245C15.4995 19.8359 15.4995 19.2474 15.5015 18.6588C15.5023 18.3595 15.5755 18.2887 15.8736 18.2883C16.3177 18.2879 16.7614 18.2847 17.2055 18.2907C17.3132 18.2923 17.3492 18.2719 17.3476 18.1543C17.3404 17.6866 17.3332 17.2173 17.3496 16.7487C17.3804 15.8729 17.6484 15.0943 18.3454 14.515C18.8299 14.1121 19.4037 13.9176 20.0238 13.8904C20.6212 13.864 21.2205 13.8792 21.8191 13.8804C22.0187 13.8808 22.1055 13.9653 22.1063 14.1617C22.1095 14.7551 22.1095 15.3488 22.1067 15.9421C22.1055 16.1514 22.0231 16.2298 21.7967 16.235C21.393 16.2438 20.9889 16.2446 20.5848 16.2506C20.1283 16.2574 19.9406 16.4383 19.9318 16.8968C19.9238 17.3105 19.933 17.7246 19.927 18.1387C19.9254 18.2419 19.9618 18.2603 20.055 18.2595C20.5888 18.2555 21.1225 18.2567 21.6562 18.2579C21.9699 18.2583 22.0471 18.3351 22.0475 18.6448C22.0483 19.2382 22.0483 19.8319 22.0475 20.4253C22.0471 20.7017 21.9799 20.7701 21.703 20.7713C21.1745 20.7733 20.6456 20.7797 20.117 20.7677C19.953 20.7641 19.9262 20.8178 19.9278 20.9658C19.9342 21.7636 19.9306 22.5618 19.9306 23.36Z" fill="#09DDFA"/>
<circle opacity="0.6" cx="19.1244" cy="19.8756" r="13.5" transform="rotate(-60 19.1244 19.8756)" stroke="url(#paint0_linear_55_538)"/>
<defs>
<linearGradient id="paint0_linear_55_538" x1="19.1244" y1="5.87564" x2="19.1244" y2="33.8756" gradientUnits="userSpaceOnUse">
<stop stop-color="#00C7F4" stop-opacity="0.3"/>
<stop offset="0.557292" stop-color="#D7F6FD" stop-opacity="0.63"/>
<stop offset="1" stop-color="#00C7F4" stop-opacity="0.51"/>
</linearGradient>
</defs>
</svg>
