<svg width="39" height="39" viewBox="0 0 39 39" fill="none" xmlns="http://www.w3.org/2000/svg">
<circle cx="19.1244" cy="19.1244" r="13.5" transform="rotate(-60 19.1244 19.1244)" fill="url(#paint0_radial_55_552)" fill-opacity="0.2" stroke="url(#paint1_linear_55_552)"/>
<path d="M19.9306 22.36C19.9306 23.1282 19.9306 23.8964 19.9302 24.6642C19.9302 24.7338 19.9282 24.8038 19.9238 24.8734C19.915 25.0038 19.851 25.0883 19.7169 25.1079C19.6581 25.1167 19.5981 25.1239 19.5389 25.1239C18.9304 25.1251 18.3218 25.1255 17.7133 25.1243C17.4196 25.1239 17.3444 25.0471 17.3444 24.749C17.344 23.153 17.3416 21.557 17.348 19.961C17.3488 19.8114 17.3059 19.7834 17.1667 19.7862C16.733 19.7958 16.2989 19.791 15.8648 19.789C15.5755 19.7878 15.5023 19.7157 15.5015 19.4245C15.4995 18.8359 15.4995 18.2474 15.5015 17.6588C15.5023 17.3595 15.5755 17.2887 15.8736 17.2883C16.3177 17.2879 16.7614 17.2847 17.2055 17.2907C17.3132 17.2923 17.3492 17.2719 17.3476 17.1543C17.3404 16.6866 17.3332 16.2173 17.3496 15.7487C17.3804 14.8729 17.6484 14.0943 18.3454 13.515C18.8299 13.1121 19.4037 12.9176 20.0238 12.8904C20.6212 12.864 21.2205 12.8792 21.8191 12.8804C22.0187 12.8808 22.1055 12.9653 22.1063 13.1617C22.1095 13.7551 22.1095 14.3488 22.1067 14.9421C22.1055 15.1514 22.0231 15.2298 21.7967 15.235C21.393 15.2438 20.9889 15.2446 20.5848 15.2506C20.1283 15.2574 19.9406 15.4383 19.9318 15.8968C19.9238 16.3105 19.933 16.7246 19.927 17.1387C19.9254 17.2419 19.9618 17.2603 20.055 17.2595C20.5888 17.2555 21.1225 17.2567 21.6562 17.2579C21.9699 17.2583 22.0471 17.3351 22.0475 17.6448C22.0483 18.2382 22.0483 18.8319 22.0475 19.4253C22.0471 19.7017 21.9799 19.7701 21.703 19.7713C21.1745 19.7733 20.6456 19.7797 20.117 19.7677C19.953 19.7641 19.9262 19.8178 19.9278 19.9658C19.9342 20.7636 19.9306 21.5618 19.9306 22.36Z" fill="#09DDFA"/>
<defs>
<radialGradient id="paint0_radial_55_552" cx="0" cy="0" r="1" gradientUnits="userSpaceOnUse" gradientTransform="translate(19.1244 19.1244) rotate(90) scale(14)">
<stop stop-color="#09DDFA" stop-opacity="0"/>
<stop offset="1" stop-color="#09DDFA"/>
</radialGradient>
<linearGradient id="paint1_linear_55_552" x1="19.1244" y1="5.12442" x2="19.1244" y2="33.1244" gradientUnits="userSpaceOnUse">
<stop stop-color="#00C7F4" stop-opacity="0.3"/>
<stop offset="0.557292" stop-color="#D7F6FD" stop-opacity="0.63"/>
<stop offset="1" stop-color="#00C7F4" stop-opacity="0.51"/>
</linearGradient>
</defs>
</svg>
