<svg width="20" height="20" viewBox="0 0 20 20" fill="none" xmlns="http://www.w3.org/2000/svg">
<g clip-path="url(#clip0_580_3709)">
<path d="M12.2337 15.4854C12.2337 16.7396 12.2337 17.9938 12.2331 19.2474C12.2331 19.361 12.2298 19.4754 12.2226 19.589C12.2083 19.802 12.1037 19.9398 11.8849 19.9718C11.7889 19.9862 11.6909 19.9979 11.5942 19.9979C10.6007 19.9999 9.60708 20.0006 8.61352 19.9986C8.13405 19.9979 8.01124 19.8725 8.01124 19.3859C8.01058 16.7801 8.00667 14.1744 8.01712 11.5686C8.01842 11.3243 7.94853 11.2786 7.7212 11.2832C7.0131 11.2989 6.30434 11.291 5.59558 11.2877C5.1233 11.2858 5.00376 11.1682 5.00245 10.6927C4.99918 9.73175 4.99918 8.77084 5.00245 7.80994C5.00376 7.32132 5.1233 7.2057 5.60996 7.20505C6.33504 7.20439 7.05948 7.19917 7.78457 7.20897C7.96029 7.21158 8.01908 7.17826 8.01646 6.98621C8.00471 6.22259 7.99295 5.45634 8.01973 4.69141C8.07003 3.26149 8.50769 1.9903 9.64563 1.04442C10.4367 0.386612 11.3734 0.0691409 12.3859 0.0247211C13.3612 -0.0183922 14.3398 0.00643065 15.317 0.00839034C15.643 0.00904357 15.7847 0.146876 15.786 0.467612C15.7912 1.43636 15.7912 2.40575 15.7867 3.37449C15.7847 3.71613 15.6501 3.84417 15.2804 3.85266C14.6213 3.86703 13.9615 3.86834 13.3018 3.87814C12.5564 3.88924 12.2501 4.1845 12.2357 4.93311C12.2226 5.60855 12.2377 6.28464 12.2279 6.96074C12.2252 7.12927 12.2847 7.15932 12.4369 7.15801C13.3083 7.15148 14.1797 7.15344 15.0511 7.1554C15.5633 7.15605 15.6893 7.28147 15.69 7.78708C15.6913 8.75582 15.6913 9.72521 15.69 10.694C15.6893 11.1453 15.5796 11.257 15.1276 11.259C14.2646 11.2623 13.4011 11.2727 12.5381 11.2531C12.2703 11.2472 12.2265 11.3348 12.2292 11.5765C12.2396 12.879 12.2337 14.1822 12.2337 15.4854Z" fill="#00C7F4"/>
</g>
<defs>
<clipPath id="clip0_580_3709">
<rect width="10.7901" height="20" fill="white" transform="translate(5)"/>
</clipPath>
</defs>
</svg>
