<svg width="48" height="48" viewBox="0 0 48 48" fill="none" xmlns="http://www.w3.org/2000/svg">
<path d="M25.0118 28.3729C25.0118 29.3369 25.0118 30.3009 25.0113 31.2645C25.0113 31.3518 25.0088 31.4397 25.0033 31.5271C24.9922 31.6908 24.9119 31.7967 24.7437 31.8213C24.6699 31.8323 24.5946 31.8414 24.5203 31.8414C23.7566 31.8429 22.9929 31.8434 22.2292 31.8419C21.8606 31.8414 21.7662 31.745 21.7662 31.3709C21.7657 29.368 21.7627 27.3651 21.7707 25.3623C21.7718 25.1745 21.718 25.1393 21.5433 25.1428C20.999 25.1549 20.4542 25.1489 19.9095 25.1464C19.5464 25.1448 19.4545 25.0545 19.4535 24.6889C19.451 23.9503 19.451 23.2118 19.4535 22.4732C19.4545 22.0976 19.5464 22.0087 19.9205 22.0082C20.4778 22.0077 21.0347 22.0037 21.592 22.0112C21.7271 22.0132 21.7723 21.9876 21.7702 21.84C21.7612 21.253 21.7522 20.6641 21.7728 20.0761C21.8114 18.977 22.1478 17.9999 23.0225 17.2729C23.6305 16.7673 24.3505 16.5232 25.1288 16.4891C25.8784 16.456 26.6306 16.475 27.3817 16.4766C27.6323 16.4771 27.7412 16.583 27.7423 16.8295C27.7463 17.5741 27.7463 18.3193 27.7428 19.0639C27.7412 19.3265 27.6378 19.4249 27.3536 19.4314C26.847 19.4425 26.3399 19.4435 25.8328 19.451C25.2599 19.4595 25.0244 19.6865 25.0133 20.2619C25.0033 20.7811 25.0148 21.3007 25.0073 21.8204C25.0053 21.95 25.051 21.9731 25.168 21.9721C25.8378 21.967 26.5076 21.9685 27.1774 21.9701C27.571 21.9706 27.6679 22.067 27.6684 22.4556C27.6694 23.2002 27.6694 23.9453 27.6684 24.6899C27.6679 25.0369 27.5836 25.1228 27.2361 25.1243C26.5729 25.1268 25.9091 25.1348 25.2458 25.1197C25.0399 25.1152 25.0063 25.1825 25.0083 25.3683C25.0163 26.3695 25.0118 27.3712 25.0118 28.3729Z" fill="#09DDFA"/>
<circle opacity="0.6" cx="24" cy="24.0001" r="17.0692" transform="rotate(-60 24 24.0001)" stroke="url(#paint0_linear_950_11540)"/>
<defs>
<linearGradient id="paint0_linear_950_11540" x1="24" y1="6.43091" x2="24" y2="41.5693" gradientUnits="userSpaceOnUse">
<stop stop-color="#00C7F4" stop-opacity="0.3"/>
<stop offset="0.557292" stop-color="#D7F6FD" stop-opacity="0.63"/>
<stop offset="1" stop-color="#00C7F4" stop-opacity="0.51"/>
</linearGradient>
</defs>
</svg>
