<svg width="48" height="48" viewBox="0 0 48 48" fill="none" xmlns="http://www.w3.org/2000/svg">
<circle cx="24" cy="24.0001" r="17.0692" transform="rotate(-60 24 24.0001)" fill="url(#paint0_radial_71_350)" fill-opacity="0.2" stroke="url(#paint1_linear_71_350)"/>
<rect width="17.5692" height="17.5692" transform="translate(15.0593 15.3715)" fill="url(#paint2_radial_71_350)" fill-opacity="0.2"/>
<path d="M25.0118 28.3727C25.0118 29.3368 25.0118 30.3008 25.0113 31.2643C25.0113 31.3517 25.0088 31.4396 25.0033 31.5269C24.9922 31.6906 24.9119 31.7966 24.7437 31.8212C24.6699 31.8322 24.5946 31.8413 24.5203 31.8413C23.7566 31.8428 22.9929 31.8433 22.2292 31.8418C21.8606 31.8413 21.7662 31.7449 21.7662 31.3708C21.7657 29.3679 21.7627 27.365 21.7707 25.3621C21.7718 25.1743 21.718 25.1392 21.5433 25.1427C20.999 25.1548 20.4542 25.1487 19.9095 25.1462C19.5464 25.1447 19.4545 25.0543 19.4535 24.6888C19.451 23.9502 19.451 23.2116 19.4535 22.473C19.4545 22.0975 19.5464 22.0086 19.9205 22.0081C20.4778 22.0076 21.0347 22.0036 21.592 22.0111C21.7271 22.0131 21.7723 21.9875 21.7702 21.8399C21.7612 21.2529 21.7522 20.664 21.7728 20.076C21.8114 18.9769 22.1478 17.9998 23.0225 17.2728C23.6305 16.7671 24.3505 16.5231 25.1288 16.489C25.8784 16.4558 26.6306 16.4749 27.3817 16.4764C27.6323 16.4769 27.7412 16.5829 27.7423 16.8294C27.7463 17.574 27.7463 18.3191 27.7428 19.0638C27.7412 19.3264 27.6378 19.4248 27.3536 19.4313C26.847 19.4423 26.3399 19.4434 25.8328 19.4509C25.2599 19.4594 25.0244 19.6864 25.0133 20.2618C25.0033 20.781 25.0148 21.3006 25.0073 21.8203C25.0053 21.9498 25.051 21.9729 25.168 21.9719C25.8378 21.9669 26.5076 21.9684 27.1774 21.9699C27.571 21.9704 27.6679 22.0668 27.6684 22.4555C27.6694 23.2001 27.6694 23.9452 27.6684 24.6898C27.6679 25.0368 27.5836 25.1226 27.2361 25.1241C26.5729 25.1266 25.9091 25.1347 25.2458 25.1196C25.0399 25.1151 25.0063 25.1824 25.0083 25.3682C25.0163 26.3694 25.0118 27.371 25.0118 28.3727Z" fill="#09DDFA"/>
<defs>
<radialGradient id="paint0_radial_71_350" cx="0" cy="0" r="1" gradientUnits="userSpaceOnUse" gradientTransform="translate(24 24.0001) rotate(90) scale(17.5692)">
<stop stop-color="#09DDFA" stop-opacity="0"/>
<stop offset="1" stop-color="#09DDFA"/>
</radialGradient>
<linearGradient id="paint1_linear_71_350" x1="24" y1="6.43085" x2="24" y2="41.5693" gradientUnits="userSpaceOnUse">
<stop stop-color="#00C7F4" stop-opacity="0.3"/>
<stop offset="0.557292" stop-color="#D7F6FD" stop-opacity="0.63"/>
<stop offset="1" stop-color="#00C7F4" stop-opacity="0.51"/>
</linearGradient>
<radialGradient id="paint2_radial_71_350" cx="0" cy="0" r="1" gradientUnits="userSpaceOnUse" gradientTransform="translate(8.78461 8.78461) rotate(90) scale(8.78461)">
<stop stop-color="#09DDFA" stop-opacity="0"/>
<stop offset="1" stop-color="#09DDFA" stop-opacity="0"/>
</radialGradient>
</defs>
</svg>
