<svg width="28" height="28" viewBox="0 0 28 28" fill="none" xmlns="http://www.w3.org/2000/svg">
<circle cx="14" cy="14" r="14" fill="#3072DE"/>
<path d="M14.9306 17.36C14.9306 18.1282 14.9306 18.8964 14.9302 19.6642C14.9302 19.7338 14.9282 19.8038 14.9238 19.8734C14.915 20.0038 14.851 20.0883 14.7169 20.1079C14.6581 20.1167 14.5981 20.1239 14.5389 20.1239C13.9304 20.1251 13.3218 20.1255 12.7133 20.1243C12.4196 20.1239 12.3444 20.0471 12.3444 19.749C12.344 18.153 12.3416 16.557 12.348 14.961C12.3488 14.8114 12.3059 14.7834 12.1667 14.7862C11.733 14.7958 11.2989 14.791 10.8648 14.789C10.5755 14.7878 10.5023 14.7157 10.5015 14.4245C10.4995 13.8359 10.4995 13.2474 10.5015 12.6588C10.5023 12.3595 10.5755 12.2887 10.8736 12.2883C11.3177 12.2879 11.7614 12.2847 12.2055 12.2907C12.3132 12.2923 12.3492 12.2719 12.3476 12.1543C12.3404 11.6866 12.3332 11.2173 12.3496 10.7487C12.3804 9.87293 12.6484 9.09434 13.3454 8.515C13.8299 8.1121 14.4037 7.91765 15.0238 7.89044C15.6212 7.86403 16.2205 7.87924 16.8191 7.88044C17.0187 7.88084 17.1055 7.96526 17.1063 8.16171C17.1095 8.75506 17.1095 9.3488 17.1067 9.94215C17.1055 10.1514 17.0231 10.2298 16.7967 10.235C16.393 10.2438 15.9889 10.2446 15.5848 10.2506C15.1283 10.2574 14.9406 10.4383 14.9318 10.8968C14.9238 11.3105 14.933 11.7246 14.927 12.1387C14.9254 12.2419 14.9618 12.2603 15.055 12.2595C15.5888 12.2555 16.1225 12.2567 16.6562 12.2579C16.9699 12.2583 17.0471 12.3351 17.0475 12.6448C17.0483 13.2382 17.0483 13.8319 17.0475 14.4253C17.0471 14.7017 16.9799 14.7701 16.703 14.7713C16.1745 14.7733 15.6456 14.7797 15.117 14.7677C14.953 14.7641 14.9262 14.8178 14.9278 14.9658C14.9342 15.7636 14.9306 16.5618 14.9306 17.36Z" fill="white"/>
</svg>
