<svg width="28" height="28" viewBox="0 0 28 28" fill="none" xmlns="http://www.w3.org/2000/svg">
<circle cx="14" cy="14" r="14" fill="#2F73AE"/>
<path d="M14.6354 13.428C14.8586 13.1091 15.1102 12.8389 15.4236 12.626C16.0602 12.1935 16.7712 12.1014 17.5159 12.1702C18.0017 12.2153 18.4674 12.3316 18.8793 12.607C19.4506 12.9892 19.7331 13.5562 19.8898 14.2015C20.0342 14.795 20.0615 15.4008 20.0631 16.0077C20.0667 17.4333 20.0631 18.8588 20.0667 20.2848C20.0671 20.3928 20.0445 20.4253 19.9306 20.4245C19.1808 20.4189 18.4306 20.4189 17.6809 20.4245C17.5689 20.4253 17.5447 20.396 17.5447 20.2868C17.5483 18.9301 17.5475 17.5737 17.544 16.217C17.5432 15.9361 17.523 15.656 17.4672 15.3786C17.2979 14.5418 16.7582 14.2723 16.0017 14.3614C15.2938 14.4449 14.9112 14.8631 14.7969 15.6255C14.7549 15.904 14.7391 16.1842 14.7395 16.4659C14.7407 17.7435 14.7383 19.0211 14.7427 20.2987C14.7431 20.4126 14.717 20.4454 14.5987 20.4447C13.8536 20.4387 13.1086 20.4399 12.364 20.4439C12.2627 20.4443 12.2203 20.4324 12.2203 20.3121C12.2243 17.6976 12.2243 15.0831 12.2207 12.4685C12.2207 12.3593 12.2563 12.3411 12.3549 12.3415C13.0702 12.3455 13.7856 12.3467 14.5009 12.3407C14.6172 12.3399 14.6394 12.3775 14.637 12.4836C14.6311 12.7989 14.6354 13.1135 14.6354 13.428Z" fill="white"/>
<path d="M8.13395 16.399C8.13395 15.0973 8.13554 13.7956 8.13118 12.4938C8.13079 12.3712 8.16125 12.3395 8.2847 12.3407C9.02419 12.3471 9.76408 12.3459 10.5036 12.3415C10.6128 12.3407 10.6539 12.3593 10.6535 12.4836C10.6492 15.0918 10.6496 17.7003 10.6531 20.3085C10.6531 20.4221 10.6219 20.4458 10.5135 20.445C9.76408 20.4403 9.0143 20.4395 8.26492 20.4458C8.14661 20.447 8.13118 20.4082 8.13158 20.3042C8.13514 19.0025 8.13395 17.7007 8.13395 16.399Z" fill="white"/>
<path d="M10.8442 9.77131C10.8422 10.5836 10.1819 11.244 9.3779 11.2392C8.58658 11.2341 7.9286 10.5614 7.93334 9.76221C7.93809 8.96811 8.5937 8.31448 9.387 8.3125C10.1886 8.31053 10.8466 8.9693 10.8442 9.77131Z" fill="white"/>
</svg>
