<svg width="39" height="39" viewBox="0 0 39 39" fill="none" xmlns="http://www.w3.org/2000/svg">
<path d="M19.6354 19.428C19.8586 19.1091 20.1102 18.8389 20.4236 18.626C21.0602 18.1936 21.7712 18.1014 22.5159 18.1702C23.0017 18.2153 23.4674 18.3317 23.8793 18.607C24.4506 18.9893 24.7331 19.5562 24.8898 20.2016C25.0342 20.795 25.0615 21.4008 25.0631 22.0078C25.0667 23.4333 25.0631 24.8589 25.0667 26.2848C25.0671 26.3929 25.0445 26.4253 24.9306 26.4245C24.1808 26.419 23.4306 26.419 22.6809 26.4245C22.5689 26.4253 22.5447 26.396 22.5447 26.2868C22.5483 24.9301 22.5475 23.5738 22.544 22.2171C22.5432 21.9361 22.523 21.656 22.4672 21.3786C22.2979 20.5418 21.7582 20.2724 21.0017 20.3614C20.2938 20.4449 19.9112 20.8631 19.7969 21.6255C19.7549 21.9041 19.7391 22.1842 19.7395 22.4659C19.7407 23.7435 19.7383 25.0211 19.7427 26.2987C19.7431 26.4126 19.717 26.4455 19.5987 26.4447C18.8536 26.4388 18.1086 26.4399 17.364 26.4439C17.2627 26.4443 17.2203 26.4324 17.2203 26.3121C17.2243 23.6976 17.2243 21.0831 17.2207 18.4686C17.2207 18.3594 17.2563 18.3412 17.3549 18.3416C18.0702 18.3455 18.7856 18.3467 19.5009 18.3408C19.6172 18.34 19.6394 18.3776 19.637 18.4836C19.6311 18.7989 19.6354 19.1135 19.6354 19.428Z" fill="#09DDFA"/>
<path d="M13.134 22.3989C13.134 21.0972 13.1355 19.7955 13.1312 18.4937C13.1308 18.3711 13.1613 18.3394 13.2847 18.3406C14.0242 18.3469 14.7641 18.3458 15.5036 18.3414C15.6128 18.3406 15.6539 18.3592 15.6535 18.4834C15.6492 21.0916 15.6496 23.7002 15.6531 26.3084C15.6531 26.422 15.6219 26.4457 15.5135 26.4449C14.7641 26.4402 14.0143 26.4394 13.2649 26.4457C13.1466 26.4469 13.1312 26.4081 13.1316 26.3041C13.1351 25.0023 13.134 23.7006 13.134 22.3989Z" fill="#09DDFA"/>
<path d="M15.8442 15.7713C15.8422 16.5836 15.1819 17.244 14.3779 17.2392C13.5866 17.2341 12.9286 16.5614 12.9333 15.7622C12.9381 14.9681 13.5937 14.3145 14.387 14.3125C15.1886 14.3105 15.8466 14.9693 15.8442 15.7713Z" fill="#09DDFA"/>
<circle opacity="0.6" cx="19.1244" cy="19.8756" r="13.5" transform="rotate(-60 19.1244 19.8756)" stroke="url(#paint0_linear_55_539)"/>
<defs>
<linearGradient id="paint0_linear_55_539" x1="19.1244" y1="5.87564" x2="19.1244" y2="33.8756" gradientUnits="userSpaceOnUse">
<stop stop-color="#00C7F4" stop-opacity="0.3"/>
<stop offset="0.557292" stop-color="#D7F6FD" stop-opacity="0.63"/>
<stop offset="1" stop-color="#00C7F4" stop-opacity="0.51"/>
</linearGradient>
</defs>
</svg>
