<svg width="16" height="16" viewBox="0 0 16 16" fill="none" xmlns="http://www.w3.org/2000/svg">
<path d="M8.72595 7.34626C8.98098 6.9818 9.26857 6.67296 9.6267 6.42969C10.3543 5.93545 11.1668 5.83009 12.0178 5.90877C12.5731 5.96032 13.1053 6.09326 13.5761 6.40798C14.229 6.84479 14.5519 7.49277 14.7309 8.23028C14.896 8.90856 14.9272 9.60085 14.929 10.2945C14.9331 11.9237 14.929 13.5529 14.9331 15.1826C14.9335 15.3061 14.9078 15.3431 14.7775 15.3422C13.9206 15.3359 13.0633 15.3359 12.2064 15.3422C12.0784 15.3431 12.0509 15.3097 12.0509 15.1849C12.0549 13.6343 12.054 12.0842 12.05 10.5337C12.049 10.2127 12.026 9.89251 11.9622 9.57553C11.7687 8.61916 11.1519 8.31122 10.2873 8.41296C9.47838 8.50838 9.04112 8.98633 8.91044 9.85769C8.86251 10.176 8.84442 10.4962 8.84487 10.8181C8.84623 12.2782 8.84352 13.7383 8.84849 15.1984C8.84894 15.3287 8.8191 15.3662 8.6839 15.3653C7.83243 15.3585 6.98097 15.3599 6.12996 15.3644C6.0142 15.3648 5.96582 15.3513 5.96582 15.2138C5.97034 12.2258 5.97034 9.23775 5.96627 6.24972C5.96627 6.12492 6.00697 6.10411 6.11956 6.10457C6.93711 6.10909 7.75466 6.11045 8.57221 6.10366C8.70515 6.10276 8.73047 6.14572 8.72776 6.2669C8.72098 6.62729 8.72595 6.98678 8.72595 7.34626Z" fill="white"/>
<path d="M1.29614 10.7418C1.29614 9.25416 1.29795 7.76648 1.29297 6.27879C1.29252 6.13861 1.32734 6.10244 1.46842 6.1038C2.31355 6.11103 3.15914 6.10967 4.00427 6.1047C4.12907 6.1038 4.1761 6.12505 4.17564 6.26703C4.17067 9.24783 4.17112 12.2291 4.17519 15.2099C4.17519 15.3396 4.13947 15.3668 4.01557 15.3659C3.15914 15.3604 2.30225 15.3595 1.44581 15.3668C1.31061 15.3681 1.29297 15.3238 1.29343 15.2049C1.29749 13.7172 1.29614 12.2295 1.29614 10.7418Z" fill="white"/>
<path d="M4.39315 3.16721C4.39089 4.09554 3.6362 4.85023 2.71736 4.84481C1.81299 4.83893 1.06101 4.07022 1.06644 3.15681C1.07186 2.24927 1.82113 1.50227 2.72776 1.50001C3.64388 1.49774 4.39586 2.25063 4.39315 3.16721Z" fill="white"/>
</svg>
