<svg width="39" height="39" viewBox="0 0 39 39" fill="none" xmlns="http://www.w3.org/2000/svg">
<path d="M19.6354 18.6773C19.8586 18.3584 20.1102 18.0882 20.4236 17.8753C21.0602 17.4428 21.7712 17.3507 22.5159 17.4195C23.0017 17.4646 23.4674 17.5809 23.8793 17.8563C24.4506 18.2385 24.7331 18.8055 24.8898 19.4508C25.0342 20.0443 25.0615 20.6501 25.0631 21.257C25.0667 22.6826 25.0631 24.1081 25.0667 25.5341C25.0671 25.6421 25.0445 25.6746 24.9306 25.6738C24.1808 25.6682 23.4306 25.6682 22.6809 25.6738C22.5689 25.6746 22.5447 25.6453 22.5447 25.5361C22.5483 24.1794 22.5475 22.823 22.544 21.4663C22.5432 21.1854 22.523 20.9053 22.4672 20.6279C22.2979 19.7911 21.7582 19.5216 21.0017 19.6107C20.2938 19.6942 19.9112 20.1124 19.7969 20.8748C19.7549 21.1534 19.7391 21.4335 19.7395 21.7152C19.7407 22.9928 19.7383 24.2704 19.7427 25.548C19.7431 25.6619 19.717 25.6947 19.5987 25.694C18.8536 25.688 18.1086 25.6892 17.364 25.6932C17.2627 25.6936 17.2203 25.6817 17.2203 25.5614C17.2243 22.9469 17.2243 20.3324 17.2207 17.7178C17.2207 17.6086 17.2563 17.5904 17.3549 17.5908C18.0702 17.5948 18.7856 17.596 19.5009 17.59C19.6172 17.5892 19.6394 17.6268 19.637 17.7329C19.6311 18.0482 19.6354 18.3628 19.6354 18.6773Z" fill="#09DDFA"/>
<path d="M13.134 21.6482C13.134 20.3464 13.1355 19.0447 13.1312 17.743C13.1308 17.6203 13.1613 17.5887 13.2847 17.5899C14.0242 17.5962 14.7641 17.595 15.5036 17.5907C15.6128 17.5899 15.6539 17.6085 15.6535 17.7327C15.6492 20.3409 15.6496 22.9495 15.6531 25.5577C15.6531 25.6712 15.6219 25.695 15.5135 25.6942C14.7641 25.6894 14.0143 25.6887 13.2649 25.695C13.1466 25.6962 13.1312 25.6574 13.1316 25.5533C13.1351 24.2516 13.134 22.9499 13.134 21.6482Z" fill="#09DDFA"/>
<path d="M15.8442 15.0206C15.8422 15.8329 15.1819 16.4932 14.3779 16.4885C13.5866 16.4833 12.9286 15.8107 12.9333 15.0115C12.9381 14.2174 13.5937 13.5638 14.387 13.5618C15.1886 13.5598 15.8466 14.2186 15.8442 15.0206Z" fill="#09DDFA"/>
<circle cx="19.1244" cy="19.1249" r="13.5" transform="rotate(-60 19.1244 19.1249)" fill="url(#paint0_radial_55_546)" fill-opacity="0.2" stroke="url(#paint1_linear_55_546)"/>
<defs>
<radialGradient id="paint0_radial_55_546" cx="0" cy="0" r="1" gradientUnits="userSpaceOnUse" gradientTransform="translate(19.1244 19.1249) rotate(90) scale(14)">
<stop stop-color="#09DDFA" stop-opacity="0"/>
<stop offset="1" stop-color="#09DDFA"/>
</radialGradient>
<linearGradient id="paint1_linear_55_546" x1="19.1244" y1="5.12491" x2="19.1244" y2="33.1249" gradientUnits="userSpaceOnUse">
<stop stop-color="#00C7F4" stop-opacity="0.3"/>
<stop offset="0.557292" stop-color="#D7F6FD" stop-opacity="0.63"/>
<stop offset="1" stop-color="#00C7F4" stop-opacity="0.51"/>
</linearGradient>
</defs>
</svg>
