<svg width="48" height="48" viewBox="0 0 48 48" fill="none" xmlns="http://www.w3.org/2000/svg">
<g clip-path="url(#clip0_950_11541)">
<path d="M24.6414 23.4385C24.9215 23.0383 25.2373 22.6992 25.6305 22.4321C26.4294 21.8893 27.3217 21.7737 28.2562 21.8601C28.8659 21.9167 29.4503 22.0626 29.9672 22.4082C30.6842 22.8879 31.0387 23.5994 31.2354 24.4092C31.4166 25.154 31.4509 25.9142 31.4529 26.6759C31.4573 28.4649 31.4529 30.2539 31.4573 32.0434C31.4578 32.179 31.4295 32.2197 31.2865 32.2187C30.3456 32.2118 29.4042 32.2118 28.4632 32.2187C28.3227 32.2197 28.2924 32.183 28.2924 32.0459C28.2969 30.3433 28.2959 28.6412 28.2914 26.9386C28.2904 26.586 28.2651 26.2345 28.1951 25.8864C27.9826 24.8363 27.3053 24.4981 26.356 24.6098C25.4677 24.7146 24.9875 25.2395 24.844 26.1963C24.7914 26.5458 24.7715 26.8974 24.772 27.2509C24.7735 28.8542 24.7705 30.4575 24.776 32.0608C24.7765 32.2038 24.7437 32.245 24.5953 32.244C23.6603 32.2366 22.7253 32.2381 21.7908 32.243C21.6637 32.2435 21.6106 32.2286 21.6106 32.0777C21.6156 28.7966 21.6156 25.5155 21.6111 22.2344C21.6111 22.0974 21.6558 22.0746 21.7794 22.0751C22.6771 22.08 23.5749 22.0815 24.4726 22.0741C24.6186 22.0731 24.6464 22.1202 24.6434 22.2533C24.636 22.649 24.6414 23.0438 24.6414 23.4385Z" fill="#09DDFA"/>
<path d="M16.4824 27.1669C16.4824 25.5334 16.4843 23.8998 16.4789 22.2662C16.4784 22.1122 16.5166 22.0725 16.6715 22.074C17.5996 22.082 18.5281 22.0805 19.4561 22.075C19.5931 22.074 19.6448 22.0974 19.6443 22.2533C19.6388 25.5264 19.6393 28.8 19.6438 32.0732C19.6438 32.2157 19.6046 32.2455 19.4685 32.2445C18.5281 32.2385 17.5871 32.2375 16.6467 32.2455C16.4983 32.247 16.4789 32.1983 16.4794 32.0677C16.4839 30.4341 16.4824 28.8005 16.4824 27.1669Z" fill="#09DDFA"/>
<path d="M19.8836 18.8495C19.8811 19.8689 19.0524 20.6976 18.0435 20.6917C17.0504 20.6852 16.2247 19.8411 16.2306 18.8381C16.2366 17.8416 17.0593 17.0213 18.0549 17.0188C19.0609 17.0163 19.8866 17.843 19.8836 18.8495Z" fill="#09DDFA"/>
</g>
<circle cx="24" cy="24.0001" r="17.0692" transform="rotate(-60 24 24.0001)" fill="url(#paint0_radial_950_11541)" fill-opacity="0.2" stroke="url(#paint1_linear_950_11541)"/>
<defs>
<radialGradient id="paint0_radial_950_11541" cx="0" cy="0" r="1" gradientUnits="userSpaceOnUse" gradientTransform="translate(24 24.0001) rotate(90) scale(17.5692)">
<stop stop-color="#09DDFA" stop-opacity="0"/>
<stop offset="1" stop-color="#09DDFA"/>
</radialGradient>
<linearGradient id="paint1_linear_950_11541" x1="24" y1="6.43091" x2="24" y2="41.5693" gradientUnits="userSpaceOnUse">
<stop stop-color="#00C7F4" stop-opacity="0.3"/>
<stop offset="0.557292" stop-color="#D7F6FD" stop-opacity="0.63"/>
<stop offset="1" stop-color="#00C7F4" stop-opacity="0.51"/>
</linearGradient>
<clipPath id="clip0_950_11541">
<rect width="17.5692" height="17.5692" fill="white" transform="translate(15.0593 15.3716)"/>
</clipPath>
</defs>
</svg>
