<svg width="48" height="48" viewBox="0 0 48 48" fill="none" xmlns="http://www.w3.org/2000/svg">
<g clip-path="url(#clip0_71_343)">
<path d="M24.6412 23.4383C24.9212 23.0381 25.237 22.6989 25.6303 22.4318C26.4292 21.8891 27.3215 21.7734 28.2559 21.8598C28.8657 21.9164 29.4501 22.0624 29.967 22.408C30.684 22.8876 31.0385 23.5992 31.2351 24.409C31.4164 25.1538 31.4506 25.914 31.4526 26.6757C31.4571 28.4647 31.4526 30.2537 31.4571 32.0432C31.4576 32.1787 31.4293 32.2195 31.2863 32.2185C30.3453 32.2115 29.4039 32.2115 28.463 32.2185C28.3225 32.2195 28.2922 32.1827 28.2922 32.0457C28.2967 30.3431 28.2957 28.6409 28.2912 26.9383C28.2902 26.5858 28.2649 26.2343 28.1949 25.8862C27.9823 24.836 27.3051 24.4979 26.3557 24.6096C25.4674 24.7144 24.9873 25.2392 24.8438 26.196C24.7911 26.5456 24.7713 26.8971 24.7718 27.2507C24.7733 28.854 24.7703 30.4573 24.7757 32.0606C24.7762 32.2036 24.7435 32.2448 24.595 32.2438C23.66 32.2363 22.7251 32.2378 21.7906 32.2428C21.6635 32.2433 21.6104 32.2284 21.6104 32.0774C21.6153 28.7964 21.6153 25.5153 21.6108 22.2342C21.6108 22.0972 21.6555 22.0743 21.7792 22.0748C22.6769 22.0798 23.5746 22.0813 24.4724 22.0738C24.6183 22.0728 24.6461 22.12 24.6432 22.2531C24.6357 22.6488 24.6412 23.0435 24.6412 23.4383Z" fill="#09DDFA"/>
<path d="M16.4822 27.1668C16.4822 25.5332 16.4842 23.8996 16.4788 22.266C16.4783 22.1121 16.5165 22.0723 16.6714 22.0738C17.5994 22.0818 18.528 22.0803 19.456 22.0748C19.593 22.0738 19.6447 22.0972 19.6442 22.2531C19.6387 25.5262 19.6392 28.7999 19.6437 32.073C19.6437 32.2155 19.6044 32.2453 19.4684 32.2443C18.528 32.2383 17.587 32.2373 16.6466 32.2453C16.4981 32.2468 16.4788 32.1981 16.4793 32.0675C16.4837 30.4339 16.4822 28.8004 16.4822 27.1668Z" fill="#09DDFA"/>
<path d="M19.8835 18.8493C19.881 19.8687 19.0523 20.6974 18.0433 20.6915C17.0503 20.685 16.2245 19.8409 16.2305 18.8379C16.2365 17.8414 17.0592 17.0211 18.0548 17.0186C19.0607 17.0161 19.8865 17.8429 19.8835 18.8493Z" fill="#09DDFA"/>
</g>
<circle cx="24" cy="24.0001" r="17.0692" transform="rotate(-60 24 24.0001)" stroke="url(#paint0_linear_71_343)"/>
<defs>
<linearGradient id="paint0_linear_71_343" x1="24" y1="6.43085" x2="24" y2="41.5693" gradientUnits="userSpaceOnUse">
<stop stop-color="#00C7F4" stop-opacity="0.3"/>
<stop offset="0.557292" stop-color="#D7F6FD" stop-opacity="0.63"/>
<stop offset="1" stop-color="#00C7F4" stop-opacity="0.51"/>
</linearGradient>
<clipPath id="clip0_71_343">
<rect width="17.5692" height="17.5692" fill="white" transform="translate(15.0593 15.3715)"/>
</clipPath>
</defs>
</svg>
