<svg width="22" height="22" viewBox="0 0 22 22" fill="none" xmlns="http://www.w3.org/2000/svg">
<path d="M11.9985 10.1012C12.3492 9.60004 12.7446 9.17538 13.2371 8.84088C14.2375 8.1613 15.3548 8.01644 16.5249 8.12462C17.2884 8.1955 18.0202 8.3783 18.6675 8.81104C19.5653 9.41165 20.0092 10.3026 20.2554 11.3167C20.4824 12.2493 20.5253 13.2012 20.5277 14.155C20.5333 16.3952 20.5277 18.6353 20.5333 20.8761C20.534 21.0459 20.4985 21.0969 20.3195 21.0956C19.1412 21.0869 17.9624 21.0869 16.7842 21.0956C16.6082 21.0969 16.5703 21.0509 16.5703 20.8793C16.5759 18.7473 16.5746 16.6159 16.569 14.4839C16.5678 14.0425 16.5361 13.6023 16.4484 13.1664C16.1823 11.8514 15.3342 11.428 14.1455 11.5679C13.0331 11.6991 12.4319 12.3563 12.2522 13.5544C12.1863 13.9921 12.1614 14.4323 12.1621 14.875C12.1639 16.8826 12.1602 18.8903 12.167 20.8979C12.1677 21.077 12.1266 21.1286 11.9407 21.1273C10.77 21.118 9.5992 21.1199 8.42907 21.1261C8.2699 21.1267 8.20337 21.1081 8.20337 20.919C8.20959 16.8105 8.20959 12.702 8.20399 8.59342C8.20399 8.42182 8.25995 8.39322 8.41477 8.39384C9.53889 8.40006 10.663 8.40192 11.7872 8.3926C11.9699 8.39135 12.0048 8.45042 12.001 8.61705C11.9917 9.11259 11.9985 9.60688 11.9985 10.1012Z" fill="#00C7F4"/>
<path d="M1.78192 14.7699C1.78192 12.7244 1.7844 10.6788 1.77756 8.63325C1.77694 8.4405 1.82482 8.39076 2.0188 8.39263C3.18086 8.40258 4.34354 8.40071 5.50559 8.39387C5.6772 8.39263 5.74186 8.42185 5.74124 8.61708C5.7344 12.7157 5.73502 16.8149 5.74061 20.9135C5.74061 21.0919 5.6915 21.1292 5.52114 21.128C4.34354 21.1205 3.16532 21.1193 1.98772 21.1292C1.80181 21.1311 1.77756 21.0702 1.77819 20.9066C1.78378 18.8611 1.78192 16.8155 1.78192 14.7699Z" fill="#00C7F4"/>
<path d="M6.04092 4.35491C6.03781 5.63137 5.0001 6.66907 3.7367 6.66161C2.4932 6.65353 1.45922 5.59655 1.46668 4.34061C1.47415 3.09275 2.50439 2.06562 3.751 2.06251C5.01067 2.0594 6.04465 3.09462 6.04092 4.35491Z" fill="#00C7F4"/>
</svg>
